<?xml version="1.0" standalone="no"?>
<!DOCTYPE svg PUBLIC "-//W3C//DTD SVG 1.1//EN" "http://www.w3.org/Graphics/SVG/1.1/DTD/svg11.dtd" >
<svg>
<metadata>
Created by FontForge 20120731 at Fri Apr 22 10:55:40 2016
 By www
(c) COPYRIGHT H. BERTHOLD AG 1992 Alle Rechte vorbehalten.
</metadata>
<defs>
<font id="BrushBQ" horiz-adv-x="646" >
  <font-face 
    font-family="Brush BQ"
    font-weight="500"
    font-stretch="normal"
    units-per-em="1000"
    panose-1="0 0 0 0 0 0 0 0 0 0"
    ascent="800"
    descent="-200"
    x-height="351"
    cap-height="696"
    bbox="-200 -283 1237 929"
    underline-thickness="50"
    underline-position="-75"
    stemh="110"
    stemv="79"
    unicode-range="U+0020-FB02"
  />
<missing-glyph horiz-adv-x="271" 
 />
    <glyph glyph-name=".notdef" horiz-adv-x="271" 
 />
    <glyph glyph-name="space" unicode=" " horiz-adv-x="271" 
 />
    <glyph glyph-name="exclam" unicode="!" horiz-adv-x="354" 
d="M472 594l-33 -51c-60 -90 -122 -179 -182 -270c-13 -19 -22 -32 -22 -40c1 -5 3 -9 5 -14l-32 -43c-19 16 -27 20 -44 41c0 1 -12 15 -12 24c0 10 8 23 18 45c7 13 13 27 20 41l27 48c15 26 30 53 46 79c17 27 33 53 50 80c17 25 34 49 51 73c14 19 28 38 44 58
c13 -6 26 -11 39 -17c7 -4 14 -9 23 -13c14 -7 18 -8 18 -15c0 -6 -7 -13 -16 -26zM152 -7c-18 6 -33 11 -48 26c-1 2 -11 11 -14 19c-1 4 -2 6 -2 14c0 16 6 55 31 99c4 7 11 22 21 21c3 0 12 -4 22 -10c35 -22 40 -40 40 -55c0 -6 0 -13 -4 -25c-1 -2 -14 -35 -26 -56
c-6 -11 -13 -22 -20 -33z" />
    <glyph glyph-name="dollar" unicode="$" horiz-adv-x="708" 
d="M554 557l-43 -148c60 -11 89 -19 119 -43c16 -12 24 -22 27 -27c10 -14 25 -42 25 -80c0 -20 -3 -74 -54 -131c-18 -20 -40 -41 -79 -64c-65 -39 -121 -50 -144 -56c-5 -15 -10 -30 -14 -45c-4 -16 -7 -33 -10 -49c-3 -12 -6 -24 -8 -36c-3 -11 -4 -23 -6 -35
c-1 -6 -2 -13 -3 -15c-1 -3 -4 -5 -7 -5c-4 0 -16 8 -26 18c-8 9 -30 34 -30 63c0 13 7 51 19 91l-71 -4c-9 -43 -16 -86 -24 -130c-2 -17 -3 -36 -15 -35c-5 0 -13 6 -23 15c-20 17 -33 39 -36 46c-4 7 -5 13 -5 20c0 14 8 35 12 48c4 14 8 28 12 43c-7 0 -13 0 -19 1
c-10 2 -42 7 -75 21c-13 5 -17 7 -23 11c-8 6 -17 17 -17 35c0 11 1 29 13 55c6 14 12 26 25 39c4 5 19 20 35 20c5 -1 9 -1 13 -2c14 -3 12 -7 34 -17c24 -10 52 -15 58 -16l52 176c-10 -1 -20 -1 -30 0c-29 1 -82 9 -107 38c-23 25 -23 59 -23 65c0 11 2 47 21 83
c6 12 13 22 21 33c6 6 12 14 18 20c7 6 12 10 19 15c5 5 12 10 18 14c7 5 14 10 22 14c14 8 27 16 40 22c35 15 70 25 105 34c13 37 28 78 34 88c10 16 29 29 60 35c5 1 9 2 14 2c2 0 11 -2 11 -10c0 -4 -5 -15 -7 -18c-3 -10 -6 -19 -9 -29c-5 -15 -11 -30 -16 -45l68 9
c18 65 26 95 66 120c13 9 29 19 57 19c4 0 8 -3 7 -8c0 -4 -3 -6 -6 -13c-4 -8 -8 -15 -11 -23c-9 -19 -17 -38 -25 -58c-5 -10 -9 -21 -13 -31c11 -2 25 0 38 -1c11 0 23 -1 34 -3c18 -2 24 -3 33 -7c16 -8 36 -28 36 -65c0 -10 0 -28 -12 -53c-23 -48 -57 -48 -104 -61
c-7 -3 -17 -5 -23 -5c-4 0 -12 0 -12 9c0 5 2 10 12 16c2 1 12 6 12 13c0 6 -7 9 -13 11c-10 4 -24 5 -47 6zM477 553l-72 -9l-37 -119l71 -7zM300 428l29 98c-55 -19 -107 -40 -107 -75c0 -14 17 -17 18 -18c24 -6 36 -6 60 -5zM363 148l49 173c-26 1 -51 0 -76 -1
c-11 -34 -21 -68 -31 -101c-7 -27 -15 -55 -22 -82c36 0 44 1 80 11zM484 313l-37 -139c40 18 65 31 83 47c10 9 22 21 22 42c0 5 0 17 -11 27c-20 20 -55 23 -57 23z" />
    <glyph glyph-name="percent" unicode="%" horiz-adv-x="792" 
d="M285 202l27 36l24 33c9 13 19 25 28 38c12 18 25 36 39 55c28 40 54 77 82 116c19 27 38 54 57 80c4 6 8 11 11 16c4 6 8 12 12 17l9 12c3 4 5 9 9 13c14 18 37 27 54 28c3 0 34 0 33 -9c0 -4 -4 -6 -8 -11c-15 -21 -30 -41 -45 -61c-34 -47 -70 -96 -103 -144
c-27 -38 -54 -77 -82 -115c-50 -71 -101 -142 -150 -213c-10 -13 -19 -26 -28 -39c-14 -21 -26 -42 -39 -63c-8 -12 -15 -23 -22 -36c0 0 -6 -21 -20 -21c-3 0 -4 1 -5 2c-6 8 -11 41 -11 69c0 25 11 37 29 61c8 10 15 20 22 31c8 9 14 19 21 28s13 17 19 26
c13 17 24 34 37 51zM322 605c0 0 9 -8 12 -12c7 -8 15 -31 15 -56c0 -63 -32 -131 -41 -149c-11 -20 -45 -77 -105 -120c-13 -8 -50 -33 -87 -33c-33 0 -50 16 -61 28c-16 18 -31 47 -31 89c0 26 6 75 48 139c8 12 16 25 25 36c39 46 100 82 145 99c10 4 26 10 36 10
c16 0 35 -12 39 -16c5 -6 4 -12 5 -15zM245 541h-1l-6 6c-17 -11 -34 -23 -51 -37c-62 -51 -103 -122 -103 -178c0 -8 1 -39 18 -39c5 0 12 2 22 5c48 18 99 72 130 115c7 9 32 48 44 81c3 9 5 18 6 27c1 6 2 11 2 17c0 4 -1 26 -20 26s-35 -18 -41 -23zM781 367
c2 -2 10 -9 15 -16c4 -7 12 -29 12 -52c0 -67 -37 -142 -46 -159c-13 -22 -26 -38 -33 -47c-19 -22 -87 -97 -156 -97c-8 0 -29 1 -50 18c-23 19 -41 52 -41 102c0 72 52 146 71 168c8 10 17 20 25 27c15 15 22 20 41 33c16 11 32 21 49 29c8 4 15 8 23 11c8 4 17 6 25 9
c1 0 13 4 22 4c16 0 35 -12 38 -17c4 -5 4 -10 5 -13zM704 302h-1l-6 7c-17 -11 -34 -23 -51 -37c-62 -51 -104 -121 -104 -176c0 -16 2 -41 18 -41c11 0 30 6 56 22c16 11 36 26 67 62c7 7 13 14 19 21c9 11 42 57 55 97c3 8 4 17 6 25c1 6 2 12 2 19c0 3 -2 25 -20 25
c-5 0 -7 -1 -11 -3c-12 -4 -18 -9 -30 -21z" />
    <glyph glyph-name="ampersand" unicode="&#x26;" horiz-adv-x="583" 
d="M358 369c3 -22 8 -49 29 -94c5 -11 11 -22 17 -32c21 14 42 28 63 45c15 12 29 24 42 37c7 7 16 18 29 35c10 -13 18 -25 18 -52c0 -21 -6 -62 -53 -113c-7 -8 -15 -15 -24 -23c-6 -5 -13 -11 -19 -17c5 -8 10 -15 15 -24c4 -6 8 -12 15 -12c6 0 13 5 24 19
c9 -14 9 -17 9 -26c0 -14 -5 -27 -26 -55c-8 -11 -14 -21 -22 -31c-7 -10 -19 -26 -30 -26c-7 0 -18 7 -31 20c-16 15 -22 21 -43 51c-26 -19 -81 -62 -151 -80c-5 -2 -26 -7 -44 -7c-26 0 -49 13 -57 18c-1 1 -14 12 -24 22c-25 26 -60 68 -60 132c0 10 1 27 9 52
c7 21 20 56 65 95c37 32 65 47 101 68c11 6 22 13 33 20c-2 14 -4 29 -4 43c0 46 17 74 30 95c5 9 10 16 17 26c3 3 7 7 9 10c4 5 6 7 10 11c6 6 17 15 25 21c7 6 39 33 73 48c13 5 26 9 39 12c3 1 27 6 45 6c19 0 35 -4 54 -20c33 -26 37 -57 37 -69c0 -38 -26 -68 -40 -83
c-17 -18 -29 -27 -36 -32c-8 -7 -17 -11 -25 -17c-7 -4 -14 -8 -21 -13c-32 -20 -65 -40 -98 -60zM350 451c19 13 37 26 57 40c12 8 24 17 35 27c23 20 21 17 30 28c6 8 26 30 26 53c0 20 -13 19 -21 19c-7 0 -17 -1 -34 -7c-61 -24 -88 -99 -90 -107c-1 -4 -5 -18 -5 -32
c0 -7 1 -14 2 -21zM258 311c-57 -40 -87 -70 -106 -98c-4 -6 -22 -34 -22 -57c0 -19 12 -28 20 -31c5 -2 8 -3 17 -3c30 1 47 8 76 20c11 5 22 9 32 15c12 6 24 13 36 20c-5 13 -15 28 -21 42c-13 31 -22 61 -32 92z" />
    <glyph glyph-name="quoteright" unicode="&#x2019;" horiz-adv-x="250" 
d="M234 554c-7 -1 -8 -2 -15 -2c-4 0 -9 1 -18 5c-20 10 -22 31 -22 38c0 1 0 8 2 13c3 10 13 27 31 45c34 34 84 62 119 62c32 0 40 -19 40 -34c0 -19 -11 -48 -46 -90c-74 -88 -151 -122 -177 -122c-2 0 -15 1 -15 12s9 11 23 18c9 5 18 11 27 17c29 18 35 23 51 38z" />
    <glyph glyph-name="parenleft" unicode="(" horiz-adv-x="396" 
d="M557 679c-2 0 -10 2 -17 0c-23 -4 -57 -34 -78 -57c-8 -8 -14 -17 -21 -25c-21 -25 -41 -50 -58 -75c-19 -27 -36 -54 -52 -81c-13 -21 -25 -39 -37 -60c-11 -18 -21 -38 -31 -57c-17 -29 -33 -58 -47 -87c-36 -71 -78 -183 -78 -255c0 0 -1 -27 7 -41
c5 -10 15 -16 26 -16c10 0 34 11 44 18c1 1 5 4 8 4c2 0 6 -1 6 -6c0 -4 -6 -11 -14 -21c-22 -28 -42 -43 -68 -51c-3 -1 -17 -5 -30 -5c-33 0 -49 20 -56 35c-10 18 -15 39 -15 75c0 13 1 43 8 79c8 35 19 83 54 162c10 23 21 45 33 68c8 16 17 32 26 48c6 10 11 19 18 30
c17 28 36 55 55 83c13 19 63 95 119 157c13 15 26 29 39 42c33 31 60 52 77 62c3 1 16 7 27 11c0 0 14 4 22 4c19 0 29 -18 31 -24s2 -10 2 -17z" />
    <glyph glyph-name="parenright" unicode=")" horiz-adv-x="396" 
d="M-117 -97c3 0 10 -2 19 0c21 5 55 31 93 77c53 63 96 125 172 259c25 43 48 86 68 129c20 44 37 89 50 133c4 12 17 58 17 99c0 2 1 28 -9 44c-3 5 -9 13 -23 13s-35 -11 -37 -13c-8 -4 -12 -9 -16 -9c-2 0 -6 2 -6 6c1 5 8 15 17 26c28 33 61 52 94 51c2 0 32 1 49 -22
c3 -3 5 -6 7 -10c17 -32 16 -67 16 -76c0 -142 -98 -318 -116 -351c-20 -36 -44 -72 -68 -107c-15 -22 -29 -43 -45 -65c-11 -16 -24 -32 -36 -48c-14 -18 -28 -36 -44 -54c-6 -6 -10 -11 -16 -17c-4 -5 -9 -10 -13 -14c-3 -3 -5 -6 -8 -9c-4 -4 -9 -7 -13 -11
c-5 -5 -9 -10 -14 -14c-10 -10 -44 -39 -74 -51c-1 0 -19 -7 -30 -7c-3 0 -11 1 -19 7c-17 12 -15 29 -15 34z" />
    <glyph glyph-name="asterisk" unicode="*" horiz-adv-x="500" 
d="M421 479l6 -9c10 -12 18 -24 27 -36c15 -22 25 -35 25 -59c0 -1 0 -15 -6 -24c-4 -5 -10 -12 -22 -12c-6 0 -13 1 -23 10c-5 5 -27 28 -30 32c-6 8 -11 14 -17 21s-12 15 -19 22c-20 -28 -40 -55 -66 -84c-20 -21 -32 -31 -44 -32c-19 1 -28 24 -28 39c0 36 53 99 55 101
l-81 -9c-12 -1 -24 -2 -36 -2c-4 0 -9 0 -13 1c-3 0 -17 -2 -25 10c-1 2 -3 8 -3 13s0 6 1 9c1 2 8 27 24 39c14 11 23 10 50 17c28 7 55 14 82 20c-14 21 -28 41 -42 60c-13 18 -22 27 -22 36c0 1 1 8 6 12c3 3 26 8 41 8c32 0 43 -17 53 -29c8 -10 15 -19 22 -28
s13 -19 22 -30c10 21 20 43 30 64c9 18 17 36 26 56c4 8 8 20 27 21c3 0 8 -2 12 -5c8 -5 12 -15 12 -32c0 -8 -1 -15 -2 -23c-3 -31 -7 -44 -18 -75c22 3 44 8 66 12c11 2 35 7 45 7c5 0 9 0 14 -3c15 -8 18 -20 18 -32c0 -13 -5 -20 -10 -26c-11 -14 -19 -19 -43 -28
c-39 -15 -76 -23 -114 -32z" />
    <glyph glyph-name="plus" unicode="+" horiz-adv-x="500" 
d="M515 251h-179v-180h-79v180h-178v80h178v179h79v-179h179v-80z" />
    <glyph glyph-name="comma" unicode="," horiz-adv-x="250" 
d="M68 1c-5 -1 -20 -5 -36 5c-7 5 -18 18 -18 36c0 10 7 33 32 58c9 8 15 15 25 22c7 6 14 9 20 13s11 8 17 11c8 4 34 16 58 16c22 0 40 -10 40 -35c0 -9 -2 -23 -14 -43c-15 -28 -75 -108 -160 -151c0 0 -33 -17 -50 -17c-2 0 -14 1 -14 13c0 8 7 10 13 13
c50 27 57 33 87 59z" />
    <glyph glyph-name="hyphen" unicode="-" horiz-adv-x="396" 
d="M374 236l1 -3c-11 -22 -25 -47 -47 -67c-35 -30 -74 -32 -84 -33c-28 -3 -57 -3 -85 -3c-27 0 -55 1 -82 0c-17 0 -34 -2 -51 -3l-1 2c4 9 21 47 53 72c31 24 65 28 97 29c23 1 45 2 68 2c22 0 43 -1 65 0c22 0 44 2 66 4z" />
    <glyph glyph-name="period" unicode="." horiz-adv-x="250" 
d="M144 147c3 1 11 2 19 -1c8 -2 26 -12 26 -34c-1 -29 -25 -67 -60 -92c-8 -6 -39 -26 -70 -26c-8 0 -12 0 -15 2c-10 3 -23 14 -23 33c0 4 2 20 9 35c10 22 50 78 114 83z" />
    <glyph glyph-name="slash" unicode="/" horiz-adv-x="396" 
d="M414 611l-36 -66c-14 -26 -29 -50 -43 -76c-12 -22 -23 -44 -36 -66c-10 -18 -21 -37 -31 -55c-13 -21 -23 -43 -35 -64c-12 -20 -24 -41 -36 -61c-12 -21 -24 -42 -36 -64c-28 -51 -57 -102 -82 -152c-11 -22 -21 -43 -32 -65l-6 -12c-3 -6 -7 -22 -18 -22
c-9 0 -12 13 -14 21c-6 22 -11 44 -11 66c0 18 7 28 18 46c7 11 13 22 19 32c23 40 47 80 70 120c14 24 27 48 40 72c12 20 23 39 34 58c13 23 26 47 39 70c12 20 24 40 35 60c8 13 15 27 23 41c6 11 12 21 18 31c12 21 22 41 33 61l24 42c22 40 45 83 71 122
c4 6 7 12 12 18c20 27 54 32 58 33c5 0 10 0 16 -1c8 -1 12 -3 11 -8c0 -3 -23 -39 -37 -64c-24 -39 -47 -78 -68 -117z" />
    <glyph glyph-name="zero" unicode="0" horiz-adv-x="521" 
d="M509 588c8 -6 17 -13 21 -20c10 -15 24 -48 24 -89c0 -17 -2 -35 -4 -52c-4 -25 -11 -63 -34 -122c-9 -23 -18 -46 -30 -69c-9 -18 -21 -36 -34 -54c-15 -21 -48 -67 -107 -115c-51 -42 -116 -75 -168 -75c-22 0 -43 6 -65 19c-42 25 -81 85 -81 173c0 26 3 73 32 139
c8 17 51 112 127 181c17 16 50 43 95 69c13 9 53 32 96 49c12 4 24 8 36 11s20 5 26 5c8 0 22 -3 41 -14c6 -4 14 -9 19 -14c7 -8 6 -20 6 -22zM388 485h-3l-8 9c-13 -4 -36 -22 -37 -22c-12 -10 -25 -19 -38 -29c-28 -23 -79 -68 -121 -135c-7 -11 -29 -46 -41 -80
c-12 -35 -13 -62 -13 -75c0 -33 6 -66 29 -66c22 0 63 15 116 55c13 10 25 21 38 33l31 31c26 27 62 75 80 102c11 17 63 102 63 172c0 6 3 43 -33 43c-10 0 -15 -2 -31 -11c-4 -3 -8 -5 -12 -8c-7 -5 -19 -18 -20 -19z" />
    <glyph glyph-name="one" unicode="1" horiz-adv-x="521" 
d="M370 527c-24 -9 -49 -17 -74 -27c-17 -7 -40 -16 -44 -16c-9 0 -10 13 -10 13c0 4 -1 18 8 31c14 20 65 49 82 57c16 9 108 53 123 53s25 -20 26 -21c6 -12 12 -38 12 -49c0 -14 -7 -27 -10 -31c-8 -15 -17 -29 -26 -44c-14 -22 -27 -44 -41 -66
c-34 -55 -67 -110 -98 -166c-14 -26 -29 -51 -41 -77c-6 -12 -11 -25 -16 -37c-8 -17 -16 -34 -22 -52c-2 -6 -8 -29 -8 -51c0 -8 1 -16 1 -24c0 0 2 -10 1 -15c0 -2 -3 -13 -11 -13c-8 1 -17 5 -32 14c-49 29 -66 55 -66 82c0 13 4 23 7 37c1 6 3 12 4 18
c11 42 33 88 39 100c11 21 41 76 85 137c12 17 25 35 38 53c8 10 16 20 23 30c9 12 18 23 27 35c7 9 17 19 23 29z" />
    <glyph glyph-name="two" unicode="2" horiz-adv-x="521" 
d="M268 480l-30 -15c-14 -9 -27 -20 -32 -24c41 1 63 0 81 -17c8 -8 9 -14 9 -19c0 -1 1 -4 -3 -6s-26 -3 -40 -5c-21 -2 -43 -6 -63 -11c-22 -5 -29 -9 -41 -9c-2 0 -8 1 -14 5c-10 7 -15 18 -15 40c0 17 4 41 23 81c8 17 28 66 83 92c35 17 123 48 223 48
c38 0 59 -7 74 -27c6 -7 9 -15 12 -22c8 -21 18 -55 18 -104c0 -54 -16 -78 -40 -105c-42 -45 -90 -72 -133 -99c-17 -10 -34 -21 -52 -32c-31 -18 -62 -35 -92 -53c-75 -43 -101 -61 -140 -98c18 1 36 5 54 8s37 5 55 8c67 11 134 22 201 39c10 2 21 4 31 7c3 1 7 3 10 3
c6 0 8 -6 8 -8c0 -3 -3 -7 -5 -14c-1 -3 -17 -56 -43 -88c-5 -6 -19 -20 -37 -28c-60 -27 -167 -38 -226 -38c-18 0 -36 2 -54 4c-2 0 -25 0 -37 13c-6 7 -10 18 -16 33c-11 28 -18 39 -18 66c0 5 0 16 6 30c15 32 63 77 65 79c44 40 115 85 122 90c15 9 31 17 46 26
c14 8 29 17 44 25c43 23 102 50 142 84c18 16 32 30 40 51c3 7 4 13 4 15c0 10 -5 18 -14 20c-5 1 -17 3 -28 3c-46 0 -129 -28 -130 -28c-17 -6 -32 -13 -48 -20z" />
    <glyph glyph-name="three" unicode="3" horiz-adv-x="521" 
d="M172 257l-10 -52l-3 1c-23 26 -28 30 -52 48c-3 15 -3 18 -3 28c0 7 1 32 13 55c23 44 69 44 101 48c24 4 48 8 72 13c45 8 90 19 135 36c6 3 41 16 65 39c6 5 10 11 12 14c6 10 7 16 7 21c0 7 -4 12 -6 14c-11 11 -48 18 -86 18c-24 0 -62 -2 -119 -17
c-13 -4 -25 -6 -38 -11c-9 -4 -20 -9 -29 -15c5 -2 22 -9 28 -12c2 -2 6 -4 11 -9c4 -4 8 -8 8 -11s-1 -5 -3 -7c-6 -5 -11 -3 -21 -2h-17c-13 0 -26 -1 -38 -3c-9 -1 -18 -4 -27 -4c-13 1 -26 8 -29 11c-6 4 -11 11 -12 13c-4 7 -10 19 -10 36c0 12 2 25 8 35
c11 22 38 43 81 59c27 11 100 33 181 33c15 0 30 0 44 -2c41 -3 96 -11 129 -59c9 -14 18 -30 18 -61c0 -46 -14 -71 -32 -91c-11 -12 -18 -18 -30 -26c-26 -17 -72 -38 -139 -52c-17 -3 -35 -6 -53 -10c-14 -3 -28 -7 -42 -11c25 -4 63 -9 105 -27c9 -4 18 -7 27 -13
c17 -10 52 -40 52 -85c0 -12 -2 -39 -18 -71c-14 -28 -46 -74 -114 -110c-45 -23 -111 -49 -213 -49c-15 0 -52 0 -92 15c-12 4 -21 8 -32 15c-5 4 -12 10 -18 16c-19 20 -22 34 -22 42c1 19 11 38 45 74c11 12 23 21 35 21c1 0 15 -2 15 -12c0 -3 -1 -5 -2 -8
c0 0 -5 -8 -5 -11c1 -8 11 -14 18 -16c13 -5 41 -12 75 -12c92 0 175 39 207 62c29 22 39 42 39 54c-1 24 -23 32 -42 39c-26 9 -55 15 -110 15c-21 0 -43 -3 -64 -6z" />
    <glyph glyph-name="four" unicode="4" horiz-adv-x="521" 
d="M552 596c7 -8 16 -18 16 -36c0 -24 -14 -47 -45 -96c-20 -31 -41 -62 -60 -93c-10 -17 -20 -33 -30 -49c-6 -9 -13 -18 -19 -27c25 2 49 5 73 5c3 0 18 3 29 -10c2 -3 5 -7 5 -15c0 -18 -16 -37 -31 -54c-13 -15 -24 -29 -31 -34c-6 -3 -30 -7 -52 -10
c-18 -3 -35 -7 -53 -10c-4 -12 -8 -24 -11 -36c-4 -17 -6 -34 -8 -50c8 -12 12 -15 12 -22c0 -6 -5 -11 -6 -12s-21 -20 -23 -22c-17 -13 -53 -34 -70 -34c-4 0 -20 3 -27 19c-3 7 -4 23 -4 31c0 16 2 32 5 48c3 21 7 42 11 63c-35 -1 -71 -5 -107 -5c-10 0 -20 0 -30 1
c-4 0 -23 0 -36 16c-17 21 -29 68 -29 89c0 5 1 15 5 28c4 9 18 40 41 70c33 45 78 88 90 98c5 4 9 6 13 10c9 8 18 16 28 23c7 6 15 12 23 18c34 24 67 44 100 63c16 10 32 19 48 27c16 9 32 17 48 24c22 10 85 42 107 42c11 0 17 -7 26 -17c7 -8 9 -12 9 -16
c0 -6 -5 -14 -17 -27zM521 583c-24 -10 -47 -21 -71 -34c-20 -11 -103 -59 -176 -120c-11 -10 -71 -58 -109 -111c-6 -8 -11 -16 -17 -25c-4 -5 -8 -10 -8 -16c0 -4 2 -11 11 -11c3 0 6 1 9 1c9 0 19 0 29 1c35 2 70 7 105 15c16 25 32 51 50 77c9 14 18 25 28 39
c8 11 15 21 24 32c13 18 26 34 40 50c2 3 5 6 7 9c10 12 21 26 31 37c6 7 15 16 22 25c8 10 17 21 25 31z" />
    <glyph glyph-name="five" unicode="5" horiz-adv-x="521" 
d="M590 638c-5 -14 -19 -50 -49 -89c-14 -20 -27 -32 -35 -36c-8 -5 -15 -4 -30 -5c-11 0 -21 -1 -32 -1c-51 0 -101 3 -152 5c-45 -45 -63 -65 -91 -112c21 7 75 27 136 27c10 0 50 1 87 -24c57 -38 59 -102 59 -116c0 -44 -19 -105 -52 -148c-16 -21 -37 -39 -60 -56
c-16 -12 -32 -23 -48 -32c-64 -34 -160 -59 -224 -59c-18 0 -36 2 -54 6c-4 0 -32 3 -46 26c-6 10 -7 23 -7 45c0 9 0 17 3 26c3 13 15 36 48 55c40 22 102 32 110 32c2 0 12 -1 12 -8c0 -1 -1 -3 -1 -3c-4 -8 -15 -8 -30 -14c-4 -2 -22 -10 -37 -20c-4 -3 -9 -6 -8 -9
c0 -2 1 -5 7 -6c0 -1 20 -2 31 -2c16 0 32 2 48 5c80 17 156 59 182 80c2 1 60 47 60 87c0 5 0 13 -11 22c-13 10 -34 15 -65 15c-22 0 -59 -6 -113 -19c-27 -7 -46 -13 -57 -13c-21 0 -24 13 -33 31c-20 43 -20 65 -21 86c4 10 9 20 15 30c9 15 38 58 79 105
c16 17 31 31 45 43c4 4 7 7 12 11c13 12 29 23 45 34c50 -1 101 -3 152 -3c41 0 83 2 125 4z" />
    <glyph glyph-name="six" unicode="6" horiz-adv-x="521" 
d="M542 625c-5 -12 -8 -12 -19 -19c-6 -4 -11 -7 -16 -11c-26 -17 -53 -35 -79 -54c-17 -12 -122 -84 -190 -175c45 31 77 51 123 51c36 0 57 -12 73 -26c22 -20 43 -52 43 -105c0 -20 -5 -42 -12 -62c-11 -33 -60 -140 -175 -204c-19 -10 -29 -16 -69 -29
c-10 3 -39 12 -64 27c-44 26 -97 79 -97 173c0 21 3 48 20 94c7 19 22 59 57 108c15 19 33 42 53 63c13 15 51 50 94 84c24 19 54 39 77 55c54 37 59 44 93 44c17 0 33 -1 50 -2c2 0 27 -3 29 -4c4 -2 6 -5 9 -8zM176 203c-9 -33 -10 -44 -10 -62c0 -31 5 -39 18 -54
c12 4 24 9 36 15c16 7 63 31 102 77c3 4 13 18 23 33c18 31 29 62 31 71c2 10 3 19 4 28c1 5 1 10 1 15s-3 24 -23 24c-2 0 -16 -2 -27 -7c-9 -4 -38 -21 -66 -44c-19 -16 -54 -49 -89 -96z" />
    <glyph glyph-name="seven" unicode="7" horiz-adv-x="521" 
d="M331 396l33 33c7 6 16 14 23 21c21 20 40 37 63 57c-19 5 -42 11 -83 11c-36 0 -72 -3 -107 -9c-43 -6 -65 -14 -86 -30c-12 -9 -21 -20 -32 -20c-10 0 -28 11 -28 22c0 3 3 10 4 13c2 4 21 38 40 63c4 6 9 12 14 18c10 13 18 23 30 30c10 6 26 9 27 10
c26 6 112 21 198 21c18 0 36 0 53 -1h21l21 -3c8 -1 15 -1 23 -5c10 -6 12 -12 18 -29c4 -10 11 -27 11 -53c0 -22 -10 -28 -32 -48c-9 -9 -17 -18 -27 -28c-20 -20 -37 -37 -53 -55c-25 -27 -91 -99 -140 -179c-14 -22 -25 -44 -35 -65c-11 -24 -20 -47 -26 -70
c-5 -17 -6 -35 -6 -52c12 0 22 1 27 -3c2 -2 2 -3 1 -4c0 -3 -2 -5 -6 -9c-6 -5 -40 -27 -45 -30c-16 -10 -32 -17 -47 -25c-22 -10 -36 -13 -45 -13c-5 0 -13 0 -23 11c-12 12 -17 24 -17 49c0 41 14 93 76 184c9 14 18 27 29 41c14 18 29 36 43 53c8 10 15 19 25 30
c14 16 27 30 39 44c4 3 7 7 11 11c3 3 6 6 8 9z" />
    <glyph glyph-name="eight" unicode="8" horiz-adv-x="521" 
d="M526 521c2 -6 8 -23 -5 -41c-4 -6 -10 -10 -16 -16c-3 -2 -6 -6 -9 -9c-25 -25 -49 -48 -74 -71c-16 -15 -32 -32 -48 -47c-11 -11 -23 -21 -34 -31c18 -30 47 -79 47 -151c0 -64 -24 -98 -57 -126c-21 -18 -92 -68 -163 -68c-19 0 -40 4 -58 13c-36 16 -55 44 -60 58
c-3 7 -3 15 -3 17c0 35 24 77 53 113c4 5 8 10 13 15c5 6 10 13 15 18s10 10 14 15c8 8 16 17 22 22c9 9 24 23 37 36c9 8 17 15 26 24c-40 60 -75 114 -75 176c0 40 15 60 28 78c8 11 13 19 24 29c15 15 49 37 66 45c15 6 61 21 75 24c22 5 83 13 147 13c5 0 60 1 96 -10
c13 -4 24 -6 24 -22c0 -13 -15 -43 -22 -57c-12 -23 -17 -33 -30 -42c-10 -6 -16 -7 -33 -5zM303 359c17 17 34 33 50 47c12 10 23 20 36 30c14 12 28 23 42 34c22 17 46 35 69 53c-28 2 -56 5 -84 5c-55 0 -102 -11 -121 -21c-37 -19 -40 -54 -40 -62c0 -22 18 -46 48 -86z
M266 230c-7 -7 -15 -14 -23 -22c-8 -7 -59 -59 -86 -95c-18 -25 -26 -40 -26 -52c0 -4 1 -5 2 -7c4 -8 21 -15 39 -15c3 0 8 0 16 2c8 1 43 10 70 35c15 15 33 37 33 76c-1 37 -17 65 -25 78z" />
    <glyph glyph-name="nine" unicode="9" horiz-adv-x="521" 
d="M495 525c-34 -4 -46 -6 -105 -27c-1 -1 -104 -36 -159 -97c-42 -48 -41 -84 -40 -102c9 -2 18 -4 28 -4s17 0 36 5c39 10 81 30 160 91c16 13 31 26 48 39c23 19 37 31 61 31c14 0 31 -3 42 -15c2 -2 4 -6 6 -12c-9 -13 -17 -25 -27 -38c-12 -15 -24 -31 -36 -47
c-19 -24 -37 -49 -55 -74c-15 -20 -30 -39 -45 -59c-13 -18 -27 -36 -41 -55c-22 -28 -43 -56 -66 -84c-12 -15 -24 -29 -36 -43c-11 -13 -23 -27 -36 -40c-2 -2 -43 -31 -69 -31c-16 0 -24 11 -24 19c0 6 4 16 5 17c14 32 41 68 48 75c7 6 17 11 18 11s3 -1 7 -1
c10 11 17 21 26 31c15 17 29 34 44 53c4 5 8 10 11 14c7 7 13 15 20 23c14 18 25 33 39 52c7 8 15 17 21 26c7 8 13 17 19 25c-64 -44 -96 -65 -161 -89c-3 -1 -19 -8 -32 -8c-8 0 -15 3 -17 4c-15 5 -24 13 -38 28c-56 58 -63 110 -63 131c0 54 49 110 61 123
c47 50 105 84 117 91c100 58 180 70 219 70c1 0 10 -1 16 -3c20 -9 38 -36 46 -47c18 -24 28 -36 28 -52c0 -5 -1 -13 -10 -26c-21 -29 -86 -74 -110 -74c-6 0 -11 4 -11 11c0 4 3 6 7 10c7 6 28 22 48 48z" />
    <glyph glyph-name="colon" unicode=":" horiz-adv-x="292" 
d="M270 367c3 0 18 2 31 -10c4 -4 7 -9 9 -13c1 -3 1 -5 1 -12c0 -35 -32 -70 -43 -80c-35 -33 -76 -40 -84 -40c-24 0 -40 14 -39 38c0 21 15 48 19 53c5 7 11 14 14 16c16 17 45 45 92 48zM187 147c6 0 9 1 15 0c12 -2 30 -11 30 -36c0 -30 -26 -61 -35 -70
c-40 -42 -80 -48 -95 -48c-31 0 -37 23 -37 36c0 10 3 32 23 59c8 11 15 17 20 22c17 15 41 33 79 37z" />
    <glyph glyph-name="semicolon" unicode=";" horiz-adv-x="292" 
d="M269 367c16 1 23 -3 30 -9c2 -1 5 -4 8 -9s4 -12 4 -17c0 -7 -1 -20 -10 -38c-10 -18 -33 -51 -76 -70c-6 -3 -23 -11 -42 -11c-3 0 -10 0 -18 3c-16 6 -20 21 -20 34c0 33 28 65 37 74c15 15 45 40 87 43zM102 0c-3 0 -12 -2 -21 0c-20 3 -33 21 -33 40c0 5 1 15 7 27
c15 29 55 59 55 59c9 6 53 36 89 36c32 0 40 -20 40 -34c0 -17 -8 -35 -11 -39c-20 -41 -71 -95 -114 -127c-22 -17 -43 -27 -50 -31c-4 -1 -28 -15 -48 -15c-3 0 -14 0 -14 12c0 8 9 11 21 18c42 22 57 35 79 54z" />
    <glyph glyph-name="equal" unicode="=" horiz-adv-x="500" 
d="M547 160h-500v78h500v-78zM547 341h-500v78h500v-78z" />
    <glyph glyph-name="question" unicode="?" horiz-adv-x="375" 
d="M333 686c42 1 70 -10 88 -23c15 -11 19 -17 25 -28c5 -11 10 -25 10 -48c0 -50 -31 -120 -66 -170c-12 -17 -27 -35 -42 -52c-16 -18 -31 -37 -47 -55c-8 -8 -17 -17 -25 -26c-11 -12 -20 -23 -30 -34c-2 -3 -13 -16 -18 -26c-7 -16 -1 -21 -1 -37c0 -11 -9 -24 -22 -24
c-30 1 -47 44 -47 73c0 11 2 29 17 56c17 29 43 60 105 108c11 8 22 16 33 25c15 11 30 23 44 35c43 36 51 54 51 77c0 13 -4 20 -9 25c-17 22 -43 23 -63 23c-37 0 -98 -14 -103 -15c-10 -3 -19 -6 -30 -11c-2 -1 -9 -3 -9 -10c0 -8 8 -8 14 -10c7 -3 27 -9 27 -20
c-1 -5 -5 -7 -9 -7c-6 0 -11 2 -17 4c-8 3 -17 5 -25 6c-26 3 -35 -1 -49 5c-13 6 -13 20 -13 23c0 17 3 41 32 72c12 13 21 20 26 23c26 19 57 29 112 37c14 2 27 3 41 4zM126 -7c-6 4 -12 7 -17 11c-6 3 -40 31 -40 58c0 10 5 20 9 29c3 7 10 25 26 46c13 16 27 25 32 25
c5 -1 9 -3 17 -11c8 -7 29 -23 29 -50c0 -22 -16 -58 -32 -81c-7 -9 -15 -18 -24 -27z" />
    <glyph glyph-name="A" unicode="A" horiz-adv-x="708" 
d="M617 370l103 -2c-13 -19 -27 -37 -40 -55c-5 -8 -10 -16 -16 -24c-3 -5 -7 -11 -11 -16c-16 -22 -16 -29 -33 -29c-10 0 -19 -2 -29 -2c-11 -1 -23 -2 -34 -2c-9 -18 -57 -106 -57 -125c0 -7 4 -8 7 -8c9 0 27 10 34 14c32 17 52 26 109 74l21 -25
c-10 -9 -20 -19 -29 -28c-5 -5 -105 -106 -168 -135c-6 -3 -23 -11 -42 -11c-12 0 -19 2 -24 4c-14 5 -37 25 -37 59c0 15 3 29 4 33c3 13 18 54 41 95c7 15 16 29 25 44l-198 -3c-26 -27 -49 -52 -73 -79c-7 -9 -14 -16 -22 -25c-27 -31 -52 -59 -82 -91
c-12 -12 -40 -46 -77 -67c-19 -11 -31 -13 -40 -13c-16 0 -36 12 -36 31c0 27 36 69 56 90c6 7 11 14 19 22c10 10 21 18 33 27c10 8 20 14 31 18c7 3 10 4 24 6c11 11 16 17 27 28c3 2 6 5 9 8s5 6 8 9c4 4 9 8 12 12c10 10 18 19 26 28c-22 0 -44 0 -66 2
c-10 2 -28 4 -28 21c0 11 10 25 17 36c28 42 65 65 81 72c15 7 33 10 74 12c7 0 15 1 22 1c2 0 9 0 9 -5c0 -3 -3 -8 -12 -10c-23 -6 -43 -11 -65 -17l87 2c16 15 31 30 47 45c4 4 8 7 12 11l20 20c4 4 7 6 11 9c6 6 14 13 20 18c7 7 14 14 22 21c10 9 22 19 33 28l30 27
c19 15 39 32 60 48c6 4 12 9 18 14c11 8 21 16 31 24c36 26 76 52 114 74c4 2 19 12 33 12c6 0 14 -1 26 -14c9 -10 12 -18 12 -29c0 -19 -8 -36 -29 -73c-10 -18 -22 -37 -32 -56c-30 -52 -59 -103 -88 -155zM374 360l143 9c22 39 45 78 68 118c12 20 24 41 37 62
c12 20 25 40 38 60c-21 -16 -43 -32 -64 -49c-18 -15 -37 -32 -54 -47c-32 -27 -63 -55 -94 -84c-9 -8 -19 -16 -27 -24c-14 -13 -31 -30 -47 -45z" />
    <glyph glyph-name="B" unicode="B" horiz-adv-x="708" 
d="M299 391l22 22c4 4 7 8 12 12s9 8 14 14c5 4 7 7 11 10l8 8c10 11 23 22 37 33c47 37 79 42 126 44l-108 -130c26 4 53 9 80 15c11 3 23 6 34 9c53 15 83 29 106 47c30 22 39 39 39 52c-1 26 -28 35 -33 37c-17 6 -34 12 -70 12c-76 0 -143 -16 -294 -60c2 -3 3 -4 5 -5
c3 -1 19 -5 19 -12c-1 -3 -5 -6 -11 -8c-11 -4 -23 -8 -34 -11c-73 -24 -122 -39 -153 -39c-4 0 -25 -3 -25 18c0 3 1 7 3 14c6 19 12 28 25 47c15 24 37 54 57 73c5 5 12 12 24 20c21 14 33 17 53 23c30 10 60 18 90 25c42 11 84 22 126 29c30 5 59 8 88 8
c14 0 84 1 141 -27c24 -11 36 -21 45 -31c5 -5 12 -12 17 -18c6 -10 16 -29 16 -55c0 -67 -62 -118 -89 -135c-37 -23 -110 -51 -205 -68c-14 -3 -30 -6 -44 -8c-18 -3 -33 -6 -59 -9l-24 -26c11 -1 154 -3 245 -57c16 -9 57 -32 57 -79c0 -14 -3 -35 -35 -68
c-28 -29 -69 -61 -134 -90c-26 -11 -111 -46 -195 -46c-9 0 -80 -1 -129 35c-14 10 -24 23 -29 29c-10 13 -15 26 -15 52c0 19 2 40 23 80c28 55 61 91 80 114c-19 3 -73 9 -73 44c0 4 -1 9 6 18c9 12 20 12 41 17c14 4 29 8 44 11c22 4 43 7 65 10zM313 278
c-14 -17 -28 -34 -43 -51c-1 -2 -25 -32 -32 -49c-2 -8 -2 -13 -2 -16s-1 -26 19 -37c4 -3 7 -4 15 -7c28 -10 42 -10 56 -10c10 0 114 1 183 57c23 18 29 31 29 41c0 3 -1 13 -8 20c-24 21 -113 40 -137 44c-27 4 -54 6 -80 8z" />
    <glyph glyph-name="C" unicode="C" 
d="M455 439l3 -19c10 8 19 15 28 24c7 6 12 12 18 18c7 8 17 19 24 28c12 15 23 32 34 48c10 15 20 29 28 44c6 10 10 20 14 31c4 10 7 20 7 24c0 10 -10 15 -12 16c-3 1 -5 1 -8 1c-18 0 -32 -6 -66 -24c-9 -4 -17 -9 -26 -14c-28 -19 -73 -57 -101 -82
c-15 -15 -30 -30 -46 -45c-20 -21 -39 -40 -56 -60c-16 -18 -32 -36 -46 -54c-51 -69 -71 -112 -83 -143c-9 -20 -28 -64 -28 -118c0 -28 6 -65 29 -90c4 -4 10 -11 14 -13c10 -7 27 -16 52 -16c32 0 95 20 127 34c39 18 97 51 183 118c17 13 33 25 48 39c11 9 22 19 33 29
c-1 -9 -1 -17 -2 -25c0 -16 -1 -22 -6 -30c-2 -4 -15 -17 -25 -28c-9 -9 -20 -19 -29 -29c-10 -10 -21 -20 -31 -30c-38 -36 -96 -90 -185 -136c-15 -8 -51 -27 -94 -38c-31 -8 -58 -9 -69 -9c-10 0 -68 0 -114 28c-6 3 -18 11 -32 26c-13 14 -22 33 -24 37
c-9 20 -20 50 -20 96c0 62 16 102 26 130c8 22 17 44 28 66c14 27 30 51 48 77c9 13 18 26 29 40c5 6 11 13 16 19c10 12 19 22 30 34c12 13 23 26 35 37c13 13 27 27 42 41c32 30 64 58 99 84c20 15 39 28 59 40c18 12 37 24 55 34c11 6 86 48 144 48c3 0 45 0 71 -29
c9 -10 22 -35 22 -67c0 -79 -49 -148 -69 -177c-11 -14 -22 -29 -34 -43s-23 -26 -36 -39c-13 -14 -26 -28 -38 -40c-6 -7 -13 -13 -20 -19c-9 -9 -16 -16 -25 -24c-16 -14 -32 -27 -48 -38c-40 -30 -59 -40 -81 -40s-33 13 -42 22c-1 1 -10 10 -14 17c-1 3 -4 9 -4 17
c0 11 8 23 10 26c9 15 22 32 33 43c4 5 8 9 13 13c32 33 50 50 112 90z" />
    <glyph glyph-name="D" unicode="D" horiz-adv-x="792" 
d="M253 311l21 30c9 11 18 25 28 38c4 5 8 9 11 14c8 11 16 20 25 32l21 27c6 6 10 13 15 18c7 8 13 15 19 22c13 15 29 32 46 50c-10 -2 -111 -11 -181 -36c-14 -5 -29 -12 -44 -21c20 3 39 6 60 6c7 0 13 0 21 -1s9 -3 9 -6c0 -9 -9 -7 -15 -8s-11 -2 -16 -3
c-6 -1 -11 -3 -17 -4c-5 -2 -10 -3 -15 -5c-5 -1 -11 -3 -16 -5c-7 -2 -13 -4 -20 -7c-2 -1 -50 -19 -78 -19c-5 0 -15 -2 -25 10c-2 2 -5 7 -5 14c0 6 1 11 2 16c2 5 3 10 3 16c5 35 4 64 41 96c48 42 176 90 318 99c15 1 29 3 44 3c47 0 85 -3 132 -17c10 -3 20 -5 30 -9
c7 -3 15 -7 22 -11c9 -4 33 -16 58 -42c26 -28 35 -55 40 -68c9 -25 18 -55 18 -109c0 -28 -1 -61 -27 -122c-6 -13 -12 -25 -20 -39c-10 -19 -35 -49 -35 -50c-19 -24 -48 -49 -53 -54c-12 -10 -24 -19 -36 -28c-46 -33 -106 -71 -210 -106c-28 -10 -103 -36 -185 -36
c-47 0 -85 7 -101 25c-6 6 -8 17 -8 35c0 48 6 64 33 113c26 47 57 96 90 142zM471 541c3 -9 4 -12 4 -17c0 -4 -2 -11 -7 -20c-9 -19 -15 -25 -39 -57c-15 -19 -30 -37 -43 -56c-39 -52 -75 -104 -107 -156c-26 -41 -51 -87 -51 -98c0 -8 5 -12 13 -17
c22 -11 37 -11 45 -11s17 1 25 1c14 1 28 2 42 4c76 12 192 51 267 105c6 4 38 28 55 45c11 13 14 17 20 26c6 8 12 17 16 24c7 13 27 58 27 102c0 48 -24 69 -48 83c-20 12 -38 18 -58 24c-70 19 -139 18 -161 18z" />
    <glyph glyph-name="E" unicode="E" 
d="M595 189v-23c0 -10 0 -41 -16 -73c-18 -34 -61 -74 -129 -107c-38 -18 -146 -62 -259 -62c-18 0 -59 1 -108 16c-22 7 -43 16 -51 23c-8 8 -16 25 -24 46c-12 31 -16 47 -16 63c0 19 5 35 29 71c20 30 57 78 134 119c89 47 163 61 251 77c-20 1 -51 0 -78 1
c-40 2 -81 6 -121 15c-24 5 -65 15 -87 35c-12 12 -24 35 -24 67c0 63 54 120 71 137c20 19 55 46 109 70c112 50 247 54 274 54c51 0 104 -9 118 -25c13 -14 8 -33 9 -50c0 -9 2 -19 2 -28c0 -4 0 -13 -5 -22c-11 -19 -49 -34 -61 -40c-23 -10 -46 -21 -70 -33
c-10 -6 -20 -11 -30 -18c-13 -10 -17 -16 -24 -16c-3 0 -10 3 -10 11c0 7 6 12 11 18c4 5 7 9 12 14c10 11 26 25 58 46c-24 0 -49 -2 -73 -5c-24 -2 -107 -8 -188 -43c-16 -7 -31 -15 -47 -25c-25 -17 -36 -30 -43 -42c-4 -6 -7 -14 -7 -20c0 -15 16 -19 28 -23
c27 -9 67 -16 130 -16c43 0 86 4 129 1c32 -2 57 -7 68 -12c4 -2 11 -5 11 -14c0 -5 -1 -9 -2 -11c-5 -13 -22 -39 -36 -52c-16 -15 -32 -15 -64 -21c-17 -3 -34 -7 -50 -10c-71 -16 -206 -51 -276 -128c-9 -10 -13 -15 -23 -32c-9 -14 -11 -19 -11 -26c0 -14 9 -18 22 -23
c18 -7 45 -14 88 -14c68 0 118 13 185 39c30 11 59 24 88 40c35 20 65 43 76 53c9 8 11 14 18 14c9 0 12 -10 12 -16z" />
    <glyph glyph-name="F" unicode="F" horiz-adv-x="667" 
d="M691 322l2 -5c-5 -7 -11 -14 -16 -21c-7 -11 -14 -22 -20 -33c-1 -1 -18 -36 -39 -52c-17 -12 -40 -15 -78 -20c-17 -20 -35 -41 -52 -62c-16 -19 -32 -38 -50 -58c-13 -14 -25 -28 -37 -42c-12 -12 -25 -26 -37 -38c-11 -11 -23 -24 -34 -35c-16 -16 -34 -30 -50 -45
c-10 -8 -26 -24 -48 -38c-3 -2 -12 -7 -20 -10c-3 -1 -8 -3 -15 -3c-4 0 -38 1 -38 30c0 15 3 31 25 61c6 9 12 16 19 24c3 5 9 10 13 14c22 23 24 25 39 36c8 5 15 11 23 15c11 6 20 10 42 16c33 28 60 53 115 119c-34 -3 -67 -7 -101 -10c-15 -1 -29 -3 -45 -3
c-29 1 -52 2 -52 25c0 6 7 25 9 30c7 16 18 29 29 38c18 15 31 15 48 20c15 4 29 11 43 16c83 29 139 30 173 32c14 23 28 45 40 67c18 32 33 63 46 94c7 16 14 32 18 48c3 11 6 23 6 26c0 16 -19 16 -29 16c-39 0 -79 -7 -117 -14c-23 -5 -46 -9 -69 -15
c-73 -17 -148 -40 -220 -70l1 -1h47c5 -1 11 -1 16 -2c4 0 9 1 13 0c8 -1 11 -5 11 -9c0 -1 -1 -3 -4 -5s-41 -12 -53 -16c-14 -4 -30 -10 -45 -15c-12 -4 -24 -7 -36 -11c-23 -7 -38 -15 -47 -15c-3 0 -12 2 -19 7c-9 7 -13 18 -13 28c0 5 2 12 3 16c4 12 17 43 38 78
c29 52 51 76 77 91c18 10 57 22 104 35c154 43 281 61 340 61c18 0 36 -1 54 -4c25 -3 37 -8 49 -17c4 -3 11 -8 16 -18c1 -4 4 -10 4 -19c0 -18 -4 -35 -15 -71c-28 -90 -68 -156 -90 -192c-9 -16 -17 -32 -27 -48c-6 -8 -12 -17 -18 -26c12 -2 23 -4 35 -4s24 2 36 4z" />
    <glyph glyph-name="G" unicode="G" 
d="M161 -75l10 10c3 3 32 29 57 45c14 9 28 17 42 24c14 20 27 37 40 56c15 21 29 44 43 66c16 24 31 47 46 71c5 7 10 14 14 21c10 17 20 34 29 51l-87 -66c-36 -28 -71 -55 -107 -80c-61 -42 -92 -59 -121 -59c-11 0 -37 3 -61 28c-26 27 -42 59 -42 117c0 10 0 20 1 30
c1 8 11 50 25 83c5 11 11 23 17 34c3 7 6 14 10 20c8 13 16 24 24 36c21 30 62 82 128 132c29 22 70 52 137 86c31 16 63 31 94 43c19 7 38 13 57 18c64 18 100 20 130 20c1 0 28 3 39 -18c5 -10 12 -49 12 -60c0 -4 0 -14 -6 -23c-14 -23 -55 -49 -73 -60
c-16 -10 -33 -20 -50 -29c-13 -6 -26 -13 -38 -19c-1 0 -20 -12 -32 -12c-5 0 -12 3 -11 10c0 5 5 9 14 17c10 10 20 18 29 26c6 5 12 10 18 17c3 3 6 6 8 10c-26 -8 -47 -14 -99 -40c-23 -12 -118 -61 -201 -133c-25 -21 -109 -97 -138 -176c-7 -18 -9 -31 -9 -39
c0 -21 11 -38 34 -38c12 0 26 5 52 21c41 26 82 56 122 86c15 12 30 23 46 35c5 5 9 9 15 13c17 14 33 26 49 39c15 13 30 27 47 42s29 26 45 41c21 20 33 34 46 34c4 0 8 -1 12 -2c14 -4 24 -9 38 -21c12 -9 15 -16 15 -20c0 -6 -4 -9 -8 -19c-23 -48 -52 -96 -81 -143
c-33 -55 -67 -109 -99 -163c36 15 65 28 134 80c14 10 26 19 39 30c3 -10 5 -14 5 -24c0 -6 -1 -10 -4 -16c-6 -12 -20 -22 -42 -40c-68 -55 -139 -106 -209 -156c-13 -16 -25 -32 -38 -48c-52 -63 -83 -93 -112 -116c-12 -9 -55 -42 -95 -42c-2 0 -12 0 -20 4
c-9 6 -19 20 -19 39c0 18 8 43 39 83c12 15 26 29 40 44z" />
    <glyph glyph-name="H" unicode="H" horiz-adv-x="833" 
d="M535 331l135 14c12 17 24 34 37 52c17 23 31 44 49 66c13 17 25 33 38 50c26 33 47 58 75 91c4 4 8 9 12 13c13 16 22 25 31 25c5 0 18 -7 17 -22c0 -6 -1 -13 -2 -19c-12 -53 -61 -106 -74 -122c-14 -18 -27 -36 -40 -53c-11 -15 -23 -31 -35 -47
c-10 -13 -19 -27 -27 -41c64 -1 84 -7 120 -23l-110 -123c-15 -1 -30 -3 -45 -3c-18 0 -36 2 -54 4c-7 -14 -13 -27 -19 -41c-4 -10 -8 -21 -11 -31c-6 -18 -11 -28 -11 -37c0 -8 6 -16 6 -25s-3 -15 -20 -27c-12 -8 -30 -22 -57 -29c-8 -2 -12 -3 -17 -3
c-10 0 -29 8 -29 34c0 7 1 19 5 34c11 49 27 77 58 125c-12 1 -24 1 -36 -1c-18 -2 -37 -7 -55 -10c-25 -3 -50 -5 -76 -7c-14 -16 -27 -31 -39 -46c-15 -18 -30 -37 -44 -56c-10 -13 -20 -26 -27 -39l-9 -15c-4 -6 -15 -20 -30 -20c-9 0 -19 6 -20 7c-16 9 -25 30 -25 44
c0 21 13 38 44 75c10 12 22 26 34 41c-16 -1 -32 0 -48 2c-11 1 -17 1 -22 4c-12 7 -24 27 -24 38c0 8 8 28 28 51c11 13 23 20 30 20c6 0 12 -3 18 -3c10 0 13 3 30 7c21 4 42 9 63 13c18 4 37 8 56 12c10 11 16 17 24 26c3 3 7 7 10 11c11 11 21 22 31 33c8 8 16 16 24 25
c16 17 31 33 48 53c7 8 13 15 19 22c15 18 34 39 48 60c3 4 20 28 20 49c0 2 -1 5 -3 6c-8 6 -30 5 -35 5c-16 0 -76 -4 -132 -20c-22 -6 -45 -15 -68 -23c-20 -8 -41 -16 -62 -26s-42 -21 -63 -33c5 1 10 1 15 1c2 0 6 1 11 0c8 -1 11 -6 11 -9c0 -2 0 -2 -2 -5
c-3 -6 -11 -6 -22 -10c-13 -4 -26 -9 -39 -15c-24 -9 -48 -22 -71 -36c-26 -14 -40 -23 -52 -22c-15 0 -29 10 -29 37c0 31 9 90 39 120c9 9 16 12 34 22c15 8 30 16 45 23c41 20 83 35 125 49c35 12 153 53 270 53c17 0 35 -2 53 -5c18 -4 37 -6 51 -28
c11 -16 17 -53 17 -71c0 -12 -2 -32 -18 -60c-29 -48 -136 -164 -179 -211z" />
    <glyph glyph-name="I" unicode="I" horiz-adv-x="458" 
d="M204 391l49 6c2 -2 10 -8 10 -15c-1 -9 -15 -14 -32 -26c-25 -18 -53 -46 -77 -45c-9 0 -14 2 -17 4c-7 4 -31 24 -40 33c-14 15 -20 23 -20 40c0 26 24 76 41 102c9 14 21 28 32 41c11 14 34 43 80 74c17 12 134 91 225 91c36 0 57 -17 69 -35c8 -11 18 -34 18 -67
c0 -66 -39 -182 -137 -344c-14 -23 -28 -45 -43 -68c-17 -27 -37 -53 -56 -80c1 0 5 -11 5 -17c0 -14 -28 -62 -38 -75c-2 -4 -10 -14 -21 -14c-8 0 -16 8 -24 11c-8 2 -15 0 -23 2c-8 3 -21 13 -21 31c0 21 11 34 35 70c10 14 21 30 31 45c18 26 35 53 53 80
c12 20 24 39 37 58c15 25 86 135 112 229c2 7 9 39 9 46s-3 13 -16 13c-12 0 -35 -7 -36 -7c-24 -8 -75 -31 -138 -91c-24 -23 -24 -22 -42 -45c-18 -25 -22 -36 -25 -47z" />
    <glyph glyph-name="J" unicode="J" horiz-adv-x="479" 
d="M153 -78l-45 -51c-4 -5 -8 -9 -12 -14c-7 -8 -16 -17 -24 -25c-26 -29 -55 -62 -85 -62c-39 0 -39 45 -39 49c1 12 5 42 24 77c4 8 9 16 15 24c3 4 6 9 9 13c4 5 9 10 13 14c4 5 7 9 11 14c8 9 31 32 59 55c8 6 14 10 21 15c16 13 35 27 53 39c28 19 56 34 83 50
c21 31 41 62 59 94c21 35 39 71 57 106c16 31 31 61 44 92c11 23 20 47 29 70c13 33 24 66 33 99c4 15 8 30 9 45c-23 -6 -42 -10 -87 -43c-73 -53 -114 -115 -132 -144c-11 -17 -21 -34 -29 -52c-29 -62 -34 -105 -36 -130c15 14 26 24 45 35c4 3 9 6 13 8
c10 4 14 -6 14 -7c-1 -6 -8 -10 -12 -15c-33 -30 -30 -31 -46 -51c-27 -34 -60 -53 -67 -57c-14 -9 -23 -15 -37 -15c-4 0 -12 -1 -20 7c-11 11 -9 22 -9 47c0 21 1 41 5 61c4 25 21 97 60 174c9 18 19 34 31 51c23 37 30 46 46 65c40 45 79 76 121 102c48 30 104 54 152 54
c28 0 39 -14 49 -25c3 -3 13 -12 17 -22c2 -4 4 -10 4 -21c0 -9 -4 -31 -10 -57c-38 -167 -171 -375 -193 -413c17 6 33 12 50 18c22 7 43 13 65 19c-2 -10 -4 -23 -12 -30c-6 -5 -8 -4 -15 -6c-6 -2 -12 -4 -18 -7c-23 -9 -47 -19 -71 -32c-13 -6 -26 -14 -39 -22
c-30 -40 -60 -80 -91 -120c-21 -26 -42 -52 -62 -76z" />
    <glyph glyph-name="K" unicode="K" horiz-adv-x="833" 
d="M780 523l-330 -163l-37 -50c2 -4 8 -11 12 -15c7 -7 25 -20 31 -24c5 -4 11 -7 17 -11c20 -13 39 -26 60 -39c11 -7 22 -13 33 -20c9 -6 18 -11 27 -17c14 -9 29 -17 43 -26c34 -21 88 -59 112 -92c6 -7 10 -12 16 -29c5 -15 6 -25 6 -32c0 -8 -2 -19 -3 -21
c-5 -20 -18 -26 -27 -26c-1 0 -8 2 -14 4c-15 5 -23 12 -35 20c-10 7 -21 14 -31 22c-26 19 -55 39 -83 57c-12 8 -24 15 -36 23c-64 43 -133 86 -200 126l-73 -99c-5 -22 -8 -28 -29 -51c-7 -8 -15 -16 -24 -24c0 -1 -40 -36 -62 -36c-4 0 -6 0 -8 1c-5 2 -15 8 -15 20
c0 3 2 12 7 21s28 44 54 77l21 27c25 33 51 68 80 105c-4 9 -9 17 -9 36c0 6 0 19 5 35c9 32 23 34 68 58c23 13 47 26 71 39c16 21 30 42 45 63c20 28 37 57 55 86c-21 -4 -42 -8 -63 -13c-23 -6 -46 -14 -68 -22c-36 -12 -71 -26 -105 -42c-37 -17 -74 -36 -110 -55
c-34 -17 -55 -27 -68 -27c-21 0 -25 18 -25 25c0 5 1 10 1 15c1 4 1 9 2 13c0 7 2 64 40 102c12 13 42 36 75 55c8 5 16 8 24 13c2 1 7 5 12 5s7 -5 7 -7c0 -4 -7 -9 -16 -17c-6 -6 -11 -13 -17 -19c8 1 22 8 23 8c13 5 26 11 39 16c32 13 63 23 95 32c71 21 134 32 159 32
c12 0 20 -2 32 -13c7 -6 14 -14 14 -15c11 -14 22 -40 22 -55c-1 -14 -9 -27 -26 -54s-34 -53 -51 -80c61 31 122 61 183 94c40 22 81 46 122 65c20 9 40 17 47 17c5 0 15 -7 15 -21c0 -16 -19 -40 -33 -56c-17 -21 -40 -44 -61 -44c-7 0 -14 3 -16 3z" />
    <glyph glyph-name="L" unicode="L" 
d="M576 526l-26 -10c-6 -6 -12 -12 -18 -17c-8 -9 -17 -16 -26 -25c-32 -31 -59 -62 -85 -92c-8 -10 -18 -20 -26 -30c-10 -12 -18 -24 -28 -35c-10 -13 -21 -26 -33 -39c-21 -25 -42 -50 -65 -74c-19 -20 -40 -40 -60 -59c33 -5 65 -11 97 -19c30 -8 60 -18 90 -27l63 -21
c19 -6 37 -14 55 -19c22 -7 45 -12 67 -17c-20 -23 -21 -25 -57 -58c-26 -23 -50 -43 -77 -43c-18 0 -68 13 -86 19l-54 18c-60 20 -175 50 -236 50h-18c-15 -7 -57 -28 -102 -28c-11 0 -21 2 -24 6c-2 2 -4 5 -4 10c0 3 1 6 3 11c3 9 24 44 55 77c16 16 27 27 33 32
c19 13 68 15 124 16c7 8 15 16 22 23c17 19 33 38 49 57c19 22 38 44 56 66s34 42 52 64c13 16 25 30 38 45c10 12 21 24 30 35c10 10 19 19 27 28c3 4 6 7 9 10c6 7 13 14 20 21c33 33 60 60 94 89c11 9 23 18 33 26c16 11 71 55 90 54c1 0 9 -1 15 -5c4 -3 27 -28 27 -50
c0 -27 -18 -76 -56 -142c-7 -12 -15 -24 -23 -37c-6 -9 -10 -19 -16 -28s-11 -17 -17 -25c-5 -10 -10 -19 -15 -28c5 -4 10 -7 10 -13c0 -8 -10 -15 -26 -29c-25 -23 -52 -43 -60 -48c-5 -3 -11 -6 -16 -9c-13 -5 -21 -10 -27 -10c-8 0 -18 8 -18 25c0 38 28 97 54 135
c11 16 23 28 35 44c11 14 21 28 30 42c8 11 16 23 21 34z" />
    <glyph glyph-name="M" unicode="M" horiz-adv-x="1083" 
d="M478 486l-54 -106c13 14 23 26 34 38c11 13 22 25 34 37c9 10 19 22 29 32c67 70 107 102 142 126c22 15 43 28 65 38c7 3 27 13 34 13c3 0 6 -1 12 -4c7 -4 39 -31 39 -59c0 -10 -8 -31 -12 -40c-38 -104 -109 -194 -136 -231c-9 -12 -18 -25 -26 -37c14 13 28 26 43 40
c11 10 23 20 35 31c27 26 55 53 82 78c8 8 15 14 22 21c10 10 25 24 36 34c8 7 17 14 25 21c18 16 37 32 57 49c23 19 46 35 68 51c13 9 40 26 53 26c14 0 22 -15 23 -18c10 -16 13 -21 24 -47c5 -12 6 -16 6 -22c0 -21 -27 -44 -45 -64c-16 -17 -33 -36 -48 -53
c-38 -41 -76 -89 -108 -134c-11 -15 -21 -29 -30 -44c-11 -17 -37 -62 -51 -110c-1 -6 -9 -31 -9 -52c0 -4 2 -24 4 -28c2 -6 6 -10 12 -10c2 0 5 1 7 1c12 2 22 3 45 13c69 27 128 80 148 98h4l1 -39c-13 -12 -26 -25 -39 -37c-66 -61 -146 -114 -211 -131
c-2 0 -25 -6 -39 -6c-19 0 -31 12 -38 19c-29 34 -28 77 -28 84c0 36 12 81 28 117c10 21 22 42 36 62c7 12 15 24 23 35c20 27 40 52 61 77c9 10 19 20 27 30c14 16 28 32 43 49l-42 -30l-42 -33c-15 -13 -31 -26 -46 -39c-17 -14 -33 -31 -49 -47c-17 -16 -33 -31 -50 -48
c-12 -12 -22 -23 -33 -34c-9 -10 -18 -18 -26 -28c-12 -12 -22 -24 -33 -37c-13 -14 -24 -27 -35 -41c-5 -8 -42 -63 -85 -90c-1 0 -13 -8 -20 -8c-3 0 -10 2 -15 7c-9 10 -24 47 -24 82c0 17 3 27 22 58c19 30 42 61 64 91c20 27 41 55 62 82c14 19 26 36 39 53
c8 11 17 23 25 35c17 24 31 48 45 72c4 8 17 36 17 43s-3 9 -5 9c-5 0 -11 -6 -16 -9c-7 -4 -14 -8 -21 -13c-30 -21 -70 -58 -98 -88c-14 -14 -30 -31 -45 -48c-11 -13 -23 -26 -34 -39c-17 -21 -33 -42 -50 -63c-17 -22 -36 -45 -53 -68c-23 -31 -45 -62 -65 -93
c-8 -10 -14 -21 -23 -32c-7 -10 -16 -20 -24 -30c-4 -5 -8 -10 -12 -14s-11 -11 -21 -11c-5 0 -14 2 -25 14c-13 16 -25 36 -29 70c-1 7 -2 14 -2 20c0 9 3 12 12 25c11 15 26 32 38 48c20 26 39 51 58 77c20 26 38 49 56 75c9 13 18 25 26 39c13 19 49 76 71 134
c3 6 13 34 13 40c0 5 -4 11 -9 11c-21 -1 -107 -40 -183 -79c-30 -16 -60 -33 -90 -46c-10 -5 -20 -9 -30 -13c-5 -2 -10 -4 -15 -4c-6 0 -14 6 -14 20c0 26 1 39 14 85c4 13 9 29 20 41c6 6 29 27 35 32c25 21 52 40 62 40c1 0 6 -1 6 -6c-1 -5 -9 -11 -18 -20
c-7 -8 -14 -16 -20 -23c117 54 218 100 260 100c3 0 15 0 26 -7c17 -10 18 -23 22 -38c2 -5 4 -10 9 -20c9 -15 10 -24 10 -31c0 -33 -24 -88 -38 -121z" />
    <glyph glyph-name="N" unicode="N" horiz-adv-x="812" 
d="M535 427l21 21c20 21 43 43 63 61c5 5 10 9 15 13c7 7 15 15 23 21c6 5 13 10 19 15c21 15 41 29 63 42c27 15 41 23 54 23c5 0 7 -1 11 -6c6 -6 36 -50 36 -84c0 -47 -55 -115 -90 -161c-20 -27 -40 -54 -59 -81c-13 -17 -26 -33 -38 -51c-9 -13 -18 -28 -26 -42
c-12 -19 -22 -38 -31 -57c-14 -30 -19 -46 -19 -60c0 -2 -1 -22 13 -32c8 -7 14 -7 17 -7s10 1 17 4c4 2 37 20 59 36c11 8 23 18 33 27c8 6 14 11 22 18c10 9 20 19 29 28c0 -44 6 -35 -23 -66c-7 -8 -13 -15 -20 -22c-9 -10 -20 -21 -31 -31c-22 -22 -43 -42 -65 -60
c-10 -8 -20 -15 -31 -21c-10 -7 -20 -13 -30 -19c-5 -2 -42 -22 -69 -22c-30 0 -55 30 -55 83c0 22 4 48 25 96c29 65 72 131 114 192c11 15 22 32 33 48c25 34 63 79 76 116c2 5 3 9 4 14c-43 -21 -84 -44 -169 -130c-34 -35 -64 -70 -95 -106c-39 -45 -78 -91 -117 -137
c-10 -13 -20 -25 -31 -37c-7 -8 -16 -16 -23 -24c-6 -7 -12 -13 -18 -19c-8 -7 -12 -9 -17 -9c-11 0 -23 10 -43 31c-4 4 -17 16 -17 28c1 8 6 15 15 31c9 14 19 27 28 41c14 22 28 45 42 67s29 43 43 65c24 38 48 77 71 116c16 27 31 54 45 81c2 4 22 37 22 61
c-1 10 -13 12 -16 12c-27 0 -65 -13 -70 -14c-10 -3 -20 -6 -29 -10c-18 -6 -35 -13 -53 -21c-22 -9 -44 -19 -66 -30c-21 -11 -42 -23 -63 -35c-9 -4 -17 -9 -26 -14c-8 -6 -10 -8 -15 -8c-10 0 -11 20 -11 23c0 7 3 32 14 55c16 33 48 64 60 76s20 19 30 28
c21 18 65 50 87 56c5 1 6 2 9 2c6 0 7 -4 7 -5c0 -10 -16 -16 -26 -23c-6 -5 -9 -7 -20 -18c12 3 22 8 33 13c19 9 38 20 57 29c13 7 83 41 138 41c35 0 82 -15 82 -62c0 -7 0 -19 -6 -35c-9 -27 -33 -69 -71 -133c-11 -17 -22 -35 -33 -53c-10 -16 -21 -32 -30 -49
c-8 -12 -14 -24 -20 -36c-5 -10 -11 -20 -16 -30c-2 -4 -4 -9 -5 -14c16 13 29 26 47 44c41 40 78 78 116 116z" />
    <glyph glyph-name="O" unicode="O" 
d="M530 618c40 9 50 11 73 11c3 0 22 0 36 -6c23 -9 30 -26 37 -43c7 -15 13 -39 13 -76c0 -105 -47 -198 -65 -234c-9 -17 -18 -33 -28 -50c-8 -14 -18 -27 -28 -41c-8 -11 -15 -22 -25 -34c-11 -13 -24 -26 -37 -38c-32 -31 -70 -64 -140 -94c-25 -11 -51 -21 -76 -27
c-9 -2 -29 -5 -54 -5c-12 0 -40 -1 -71 20c-26 18 -37 31 -47 43c-6 7 -11 13 -16 19c-25 33 -49 87 -49 167c0 30 4 92 42 171c9 20 35 63 51 84c10 15 23 32 34 45c4 5 8 9 12 15c5 4 10 10 15 15c6 6 10 12 16 17c4 5 10 9 14 13s7 8 12 13c7 6 11 9 18 15c2 3 4 5 7 7
c17 15 34 29 51 41c8 7 16 13 25 19c8 6 16 11 24 16c16 11 105 76 179 76c3 0 23 0 39 -9c22 -14 71 -69 71 -89c0 -1 -1 -4 -2 -5c-4 -8 -11 -7 -16 -9c-9 -3 -19 -5 -30 -8c-44 -12 -62 -23 -85 -39zM564 575h-11c-22 -2 -45 -4 -90 -29c-59 -33 -107 -81 -127 -105
c-11 -13 -21 -26 -30 -40c-4 -7 -10 -15 -14 -22c-4 -8 -7 -21 -14 -21c-4 1 -8 5 -9 13c-2 10 0 20 0 30c-25 -39 -69 -101 -91 -193c-2 -10 -9 -39 -9 -69s7 -54 17 -64c14 -14 31 -13 36 -13c23 0 56 7 107 39c11 6 22 13 32 21c14 10 27 21 40 33c6 5 38 36 65 70
c9 12 19 24 28 37c8 13 18 25 25 36c14 24 79 129 79 222c0 4 1 19 -5 33c-6 13 -17 22 -29 22z" />
    <glyph glyph-name="P" unicode="P" horiz-adv-x="708" 
d="M199 127l11 -9c-9 -20 -20 -52 -60 -98c-20 -22 -29 -30 -41 -30s-23 13 -23 34c0 14 5 35 18 66c24 59 36 76 78 135c-6 3 -13 7 -18 11c-6 5 -26 23 -26 45c0 7 1 24 18 44c43 48 119 52 122 53c36 51 74 98 111 141c20 25 42 49 65 78c-59 -2 -115 -3 -234 -35
c-17 -5 -35 -10 -52 -15l-36 -12c-6 -2 -12 -4 -17 -6c-5 -1 -9 -5 -13 -5s-8 4 -8 8s8 16 14 28c7 13 13 26 21 39c8 14 17 29 26 43c14 20 21 29 30 36c11 10 21 13 44 20c102 34 236 38 258 38c65 0 102 -10 132 -17c14 -4 28 -7 43 -13c3 -1 33 -14 54 -30
c19 -14 37 -31 53 -68c7 -16 18 -43 18 -83c0 -26 -6 -101 -71 -180c-9 -11 -20 -22 -32 -33c-63 -59 -169 -115 -319 -115c-24 0 -48 2 -72 5c-14 1 -29 4 -43 6c-10 -13 -19 -26 -27 -39c-9 -14 -17 -28 -24 -42zM349 357l-23 -33c11 -2 22 -5 33 -6c19 -3 38 -3 57 -3
c24 0 70 0 130 21c16 6 34 13 50 22s46 27 77 63c23 26 45 71 45 98c-1 27 -25 38 -32 41c-14 7 -31 14 -60 21c-42 10 -58 15 -131 17c0 -4 2 -16 -3 -29c-8 -20 -42 -63 -81 -116c-15 -21 -31 -42 -45 -63c17 0 30 1 52 0c7 0 16 1 23 -1c1 -1 5 -3 5 -7c0 -3 -2 -5 -3 -6
c-4 -3 -11 -2 -23 -4c-17 -3 -28 -5 -41 -7c-10 -2 -20 -5 -30 -8z" />
    <glyph glyph-name="Q" unicode="Q" horiz-adv-x="667" 
d="M267 170c7 -3 17 -5 26 -8c21 -5 128 -34 215 -34c59 0 80 7 111 17c-1 -5 -14 -59 -32 -94c-11 -22 -14 -29 -27 -38c-14 -10 -46 -13 -84 -13c-80 0 -160 19 -241 32c-29 5 -59 10 -89 12c-17 2 -34 2 -52 2c-19 -9 -38 -17 -57 -23c-5 -1 -16 -6 -21 -6
c-2 0 -5 1 -8 2c-5 4 -7 7 -7 17c0 3 3 73 48 110c25 20 54 22 108 24c84 50 170 107 249 167c17 13 32 25 50 40c5 4 11 9 16 13c6 5 9 9 15 14c12 10 23 20 37 34c7 7 12 14 19 21c11 13 22 26 30 38c7 11 12 18 21 39c1 4 10 22 10 39c0 3 -2 6 -5 8s-17 5 -29 5
c-15 0 -29 -3 -44 -6c-65 -13 -110 -32 -174 -63c-20 -10 -39 -20 -59 -31c-21 -13 -42 -28 -63 -44c19 1 37 1 55 0c3 0 19 0 23 -2c1 0 8 -3 8 -10c0 -3 -1 -7 -7 -10c-10 -5 -31 -7 -56 -13c-20 -5 -32 -10 -69 -28c-24 -11 -44 -19 -53 -19c-3 0 -6 0 -12 4
c-12 8 -10 16 -11 27c-2 11 -3 23 -4 35c-2 15 -5 29 -5 44c0 7 0 14 10 29c9 12 18 22 34 37c15 15 51 42 97 66c17 9 34 17 51 25c18 7 36 13 54 20c50 17 100 32 151 38c18 2 36 4 54 4c6 0 52 1 86 -24c12 -8 20 -19 24 -25c11 -13 27 -37 27 -72
c0 -51 -43 -105 -53 -119c-6 -7 -11 -15 -18 -23c-17 -18 -56 -57 -102 -92c-26 -21 -53 -42 -80 -60c-16 -11 -32 -21 -48 -32c-28 -18 -56 -36 -84 -53c-12 -7 -24 -13 -35 -21z" />
    <glyph glyph-name="R" unicode="R" horiz-adv-x="792" 
d="M310 291l-5 -9c191 -62 255 -81 357 -140c5 -3 35 -17 41 -42c1 -4 3 -44 3 -72v-20c-1 -1 1 -11 -4 -17c-6 -7 -14 -7 -16 -7c-8 4 -22 10 -34 15c-33 16 -67 34 -101 51c-29 14 -58 27 -87 42c-38 18 -76 38 -114 55c-33 16 -67 31 -100 46l-87 -129
c0 -6 2 -13 -10 -28c-3 -4 -7 -9 -15 -16c-11 -10 -32 -20 -44 -20c-18 0 -19 20 -19 23c0 4 1 13 5 24c2 5 23 48 40 76c21 32 43 63 66 97c-10 4 -19 8 -29 12c-9 3 -17 6 -17 16c0 26 26 57 32 62s14 11 29 17c35 15 61 16 75 17c11 16 21 29 32 45c6 8 11 15 17 22
c8 11 17 22 24 32c8 11 15 22 24 33c12 16 24 33 37 49c8 10 17 20 26 31c-34 -5 -66 -10 -98 -15c-25 -4 -47 -8 -72 -14c-17 -5 -36 -12 -56 -19c25 -1 51 -2 76 -4c9 -1 18 0 18 -6c0 -2 -1 -5 -5 -7s-21 -3 -31 -4c-13 -2 -23 -3 -34 -3c-19 -1 -39 0 -59 -1
c-10 0 -20 -1 -30 -1c-7 0 -12 0 -19 1c-13 2 -21 5 -21 28c0 16 11 45 19 61c4 8 19 34 43 53c21 18 46 26 92 38c51 14 142 40 268 40c23 0 89 0 158 -17c48 -12 78 -24 99 -40s46 -46 46 -96c0 -8 -1 -26 -7 -48c-16 -55 -53 -93 -78 -112c-32 -23 -87 -45 -164 -62
c-28 -6 -57 -10 -85 -15c-33 -5 -66 -10 -98 -14c-29 -3 -59 -5 -88 -8zM481 562c-9 -46 -15 -60 -71 -138c-15 -21 -29 -41 -44 -62c16 3 31 5 46 9c21 5 41 10 62 16c22 6 45 11 67 17c24 7 48 15 72 23c10 4 19 8 29 12c7 2 14 4 22 8c7 3 14 6 21 10c23 12 44 25 62 49
c8 10 12 18 12 21c0 7 -8 15 -13 18c-23 15 -75 27 -137 27c-43 0 -85 -5 -128 -10z" />
    <glyph glyph-name="S" unicode="S" 
d="M548 570c-77 -4 -148 -7 -225 -35c-36 -13 -85 -32 -117 -69c-10 -12 -12 -19 -11 -24c0 -19 18 -26 24 -28c5 -2 11 -4 16 -6c11 -3 22 -4 33 -6c16 -3 31 -7 47 -10c110 -24 158 -42 213 -76c4 -3 8 -5 12 -8c14 -10 48 -42 48 -85c0 -29 -18 -72 -45 -101
c-3 -4 -5 -6 -9 -10c-29 -28 -75 -56 -143 -77c-34 -10 -159 -40 -278 -40c-52 0 -72 3 -99 16c-2 0 -15 6 -23 13c-5 5 -17 15 -17 29c0 4 2 9 2 10c3 8 8 21 20 43c5 9 8 17 13 24c13 21 40 26 62 33c13 4 18 6 25 6c2 0 11 -1 11 -9c0 -1 -1 -5 -3 -7
c-5 -4 -18 -10 -32 -16c8 -3 15 -6 31 -6c21 0 42 2 63 3c14 1 174 8 277 59c4 1 27 12 42 27c8 7 11 11 11 16s-2 8 -9 17c-10 13 -19 19 -42 30c-24 11 -38 14 -61 19c-17 3 -33 7 -49 9c-34 6 -67 10 -100 17c-15 3 -29 6 -44 10c-6 2 -13 4 -19 7c-7 2 -14 4 -22 8
c-6 2 -12 6 -18 10c-9 7 -13 10 -21 21s-14 22 -14 45c0 13 2 27 4 40c4 41 8 79 49 115c34 31 77 55 114 70c78 32 197 54 275 54c15 0 51 -1 93 -11c16 -4 39 -10 39 -32c0 -7 -1 -15 -1 -24c-1 -9 -2 -19 -3 -27c-2 -10 -5 -24 -25 -41c-16 -13 -23 -14 -50 -28
c-25 -13 -50 -27 -76 -44c-16 -11 -25 -18 -33 -18c-2 0 -12 1 -12 10c0 4 4 13 12 21c13 16 28 30 65 56z" />
    <glyph glyph-name="T" unicode="T" horiz-adv-x="625" 
d="M494 142l16 -6c-3 -9 -24 -76 -76 -125c-11 -10 -14 -11 -25 -19c-12 -8 -14 -10 -21 -10c-4 0 -5 1 -9 3c-5 3 -35 22 -35 47c0 9 3 18 9 36c3 9 6 17 9 26c8 18 18 37 27 55c47 93 98 168 166 261c24 32 48 65 74 97c16 20 35 41 52 61c-15 3 -32 6 -63 6
c-53 0 -107 -4 -160 -12l-66 -12c-27 -5 -56 -10 -84 -17c-19 -5 -38 -10 -56 -16c-20 -6 -38 -12 -62 -22c13 -2 26 -3 39 -6c5 -1 11 -3 17 -5c5 -1 10 -2 15 -4c10 -4 19 -10 19 -15s-7 -11 -16 -11c-6 0 -13 2 -19 3c-10 1 -21 2 -31 3c-8 0 -16 1 -24 1
c-14 0 -27 -1 -41 -2c-12 0 -15 -1 -23 3c-18 8 -17 27 -17 31c0 10 1 21 3 32c1 5 13 63 35 102c10 17 19 30 35 39c9 4 47 16 57 19c140 38 308 41 343 41c24 0 113 -2 136 -34c1 -1 11 -18 16 -30c8 -20 18 -51 18 -72c0 -33 -21 -62 -68 -129c-33 -47 -67 -94 -95 -140
c-12 -19 -23 -38 -34 -58s-23 -39 -33 -58c-10 -21 -19 -42 -28 -63z" />
    <glyph glyph-name="U" unicode="U" horiz-adv-x="854" 
d="M831 184l-2 -50c-63 -58 -119 -108 -183 -130c-6 -2 -27 -9 -46 -9c-13 0 -23 3 -27 4c-22 10 -43 36 -43 78c0 9 1 29 8 52c9 28 35 89 80 163c22 35 46 71 69 107c-13 -12 -26 -23 -39 -34c-17 -17 -34 -35 -52 -54l-19 -19c-16 -18 -33 -38 -49 -55
c-26 -30 -55 -60 -85 -88c-10 -9 -18 -18 -27 -26c-6 -6 -12 -11 -18 -16c-18 -16 -35 -31 -52 -45c-10 -8 -20 -18 -30 -26c-9 -6 -17 -12 -25 -16c-5 -3 -18 -11 -30 -11c-3 0 -6 0 -12 2c-24 6 -38 20 -45 28c-14 16 -26 35 -26 70c0 12 1 29 10 56c18 57 52 96 98 151
c31 37 59 71 95 113c13 16 28 34 42 50c10 12 27 33 45 61c3 4 4 6 4 7c0 0 -1 2 -3 2c-4 0 -18 -4 -30 -8c-59 -19 -103 -50 -163 -84c-25 -13 -50 -26 -76 -36c-24 -10 -55 -23 -79 -23c-15 0 -24 13 -24 28c0 5 0 11 4 23c4 14 20 56 51 98c5 7 12 14 19 21
c36 38 74 62 156 92c91 33 165 43 200 43c10 0 20 -1 30 -2c11 -1 22 -6 31 -24c7 -14 10 -22 10 -44c0 -27 -8 -46 -12 -57c-17 -48 -31 -64 -96 -145c-21 -26 -41 -52 -61 -79c-27 -37 -55 -74 -78 -111c-13 -20 -27 -41 -35 -63c-3 -6 -5 -13 -5 -15s1 -9 8 -9s14 4 19 6
c27 13 48 30 74 52c11 9 23 20 35 31c11 10 22 21 32 30c17 16 37 35 56 54c30 29 59 60 88 89c19 19 38 40 54 56c5 6 10 12 16 18s12 13 18 19c13 13 29 30 45 46c6 6 10 9 14 14c3 3 6 7 10 11c6 7 13 13 19 19c3 4 7 9 10 12c5 6 10 10 15 16c8 10 17 19 28 19
c5 0 17 -3 24 -18c1 -2 13 -29 13 -47c0 -20 -15 -40 -40 -79c-17 -26 -34 -53 -52 -80c-14 -20 -29 -40 -42 -61c-19 -29 -36 -58 -53 -86c-8 -14 -16 -27 -23 -40c-7 -12 -39 -67 -39 -114c0 -5 0 -11 2 -17c2 -9 11 -18 28 -18c40 0 99 46 103 49c9 7 19 14 28 21
c10 9 19 18 30 28z" />
    <glyph glyph-name="V" unicode="V" 
d="M465 195l21 27c9 13 18 26 28 39c24 34 46 67 67 100c19 28 36 57 54 87c-2 6 -4 12 -4 19c0 9 3 21 12 42c1 3 15 35 30 57c4 6 8 11 12 16c9 11 20 19 23 22c16 13 24 16 33 16c4 0 6 -1 9 -3c10 -6 11 -19 11 -29c0 -45 -24 -97 -84 -193c-14 -21 -27 -43 -42 -65
c-16 -24 -33 -47 -50 -71s-33 -49 -50 -73c-29 -41 -62 -84 -93 -121c-8 -9 -17 -19 -26 -29c-36 -39 -53 -47 -74 -47c-11 0 -32 3 -54 27c-15 17 -44 62 -44 114c0 12 1 27 4 39c4 19 19 65 45 118c20 41 44 82 68 123c23 40 47 80 73 119c7 10 13 19 19 29
c4 6 7 11 10 17c-13 -5 -25 -10 -37 -15c-18 -8 -37 -18 -55 -27c-20 -10 -40 -20 -59 -31c-18 -11 -35 -22 -53 -34c-14 -9 -28 -19 -41 -30c-10 -8 -20 -17 -29 -27c26 3 46 5 83 5c13 0 18 -3 18 -9c0 -2 -2 -3 -3 -4c-8 -6 -29 -10 -52 -15c-62 -15 -89 -24 -120 -42
c-5 -3 -11 -8 -16 -7c-2 0 -7 1 -10 6c-3 7 -7 30 -7 52c0 20 6 53 14 72c3 8 10 19 11 21c9 13 16 22 35 39c44 39 89 65 135 89c11 6 118 62 191 80c25 6 36 7 80 7c11 -12 18 -20 31 -45c1 -3 11 -20 11 -34c0 -16 -14 -33 -35 -66c-18 -29 -36 -58 -55 -88
c-30 -48 -58 -95 -84 -143c-15 -30 -29 -59 -43 -88c-6 -12 -12 -24 -17 -36c-3 -7 -19 -41 -19 -69c0 -26 11 -45 26 -45c3 0 5 2 6 2c4 3 24 22 28 26c4 5 8 8 12 13c8 9 17 18 26 28c11 12 20 23 30 35z" />
    <glyph glyph-name="W" unicode="W" horiz-adv-x="917" 
d="M265 643l8 -15c56 20 111 40 167 40c17 0 34 -2 52 -5c12 -3 26 -6 36 -16c5 -5 10 -14 15 -29c5 -11 13 -34 13 -63c0 -9 -1 -18 -3 -27c-13 -55 -75 -135 -82 -144c-13 -17 -26 -34 -40 -51c-15 -19 -30 -37 -46 -55l-39 -48c-11 -14 -23 -28 -33 -42
c-5 -9 -10 -18 -14 -27c-3 -5 -7 -11 -7 -17c0 -7 3 -9 5 -9c3 0 7 2 13 6c34 20 96 76 121 101c9 8 19 19 30 30c8 8 14 15 21 23s14 14 20 21c18 20 37 42 54 61c7 9 15 18 22 27c5 4 8 8 13 14c9 10 19 23 28 34c16 17 33 37 49 55l23 23c17 18 31 34 52 51
c19 16 35 27 43 27c3 0 9 -2 15 -11c9 -10 18 -42 18 -52c0 -15 -11 -31 -30 -59c-12 -18 -24 -35 -36 -53c-26 -41 -52 -81 -78 -122c-49 -79 -67 -118 -78 -156c-6 -18 -10 -36 -10 -41c0 -7 5 -10 9 -10c1 0 2 1 3 1c6 3 13 7 19 12c25 16 38 23 76 58c12 11 25 24 37 37
c3 4 8 8 11 12c4 4 7 7 10 11c6 7 13 16 19 23c59 75 84 125 119 202c-3 13 -6 26 -6 39c0 3 0 8 3 15c12 25 50 68 51 69c6 6 13 14 20 14c4 0 10 -4 14 -12c0 -1 13 -30 13 -45c0 -9 -5 -25 -10 -48c-16 -60 -47 -169 -157 -317c-2 -1 -44 -58 -77 -90
c-7 -7 -13 -12 -20 -18c-14 -13 -30 -26 -59 -46c-34 -22 -52 -31 -68 -31c-24 0 -48 21 -64 39c-3 2 -15 14 -20 25c-4 9 -4 22 -4 43c0 39 5 71 38 148c9 19 17 39 25 58c-4 -4 -9 -8 -14 -12c-8 -10 -17 -19 -25 -28c-30 -32 -60 -68 -90 -99
c-74 -79 -127 -130 -165 -151c-1 -1 -22 -13 -35 -13c-16 0 -25 14 -35 29c-2 4 -23 36 -29 58c-3 10 -4 20 -4 22c1 22 10 43 21 64c23 42 43 71 109 145c11 12 20 23 32 36c9 10 17 19 26 28c11 13 22 24 32 36c42 47 63 67 70 96c2 4 3 9 3 13s-3 8 -4 8
c-7 6 -18 7 -25 7c-24 0 -46 -7 -54 -9c-53 -13 -71 -23 -123 -50c-37 -19 -73 -39 -109 -58c-20 -11 -33 -18 -41 -18c-13 0 -20 12 -20 24c0 27 9 38 16 64c3 12 4 23 7 35c11 39 44 58 57 66c32 20 64 34 96 47z" />
    <glyph glyph-name="X" unicode="X" horiz-adv-x="708" 
d="M657 175l24 -25c-11 -13 -23 -28 -34 -40l-22 -22c-18 -18 -29 -30 -64 -56c-47 -35 -71 -42 -94 -42c-28 0 -41 20 -45 31c-3 11 -5 31 -5 58c0 33 3 65 5 98s3 66 4 98c-17 -17 -33 -34 -50 -52c-15 -16 -28 -30 -43 -46c-22 -23 -44 -45 -68 -69
c-12 -12 -21 -21 -34 -33c-21 -20 -40 -37 -60 -52c-23 -18 -32 -25 -45 -25c-14 0 -21 14 -22 18c-1 5 -1 8 -1 13c0 4 0 8 2 18c2 8 12 35 35 62c9 11 42 47 82 70c10 6 21 9 31 13c18 19 33 34 48 50c12 13 26 28 38 40c8 8 16 16 25 26c7 7 14 15 20 22c5 6 12 11 17 17
c11 12 21 23 32 35l13 214c-7 0 -13 0 -20 -1c-13 -3 -70 -18 -119 -39l-45 -21c-11 -5 -22 -11 -33 -17c-16 -10 -33 -23 -49 -36c18 1 35 1 54 0c9 -1 14 0 14 -6c0 -2 -1 -3 -3 -5c-2 -1 -22 -9 -33 -13c-19 -7 -39 -14 -58 -20c-11 -3 -21 -6 -32 -10
c-6 -2 -17 -7 -23 -7c-8 1 -14 10 -14 18s11 71 37 116c29 51 98 82 138 100c87 37 132 47 174 54c21 4 42 7 63 7c32 0 50 -7 59 -26c4 -10 4 -19 4 -23c0 -12 -1 -24 -2 -36c-1 -27 -3 -55 -5 -82c-2 -20 -3 -39 -3 -59c26 27 42 44 65 67c10 12 22 23 30 32
c8 8 18 19 30 31c19 20 49 51 68 51c7 0 21 -7 21 -25c0 -9 -1 -23 -13 -43c-15 -27 -34 -46 -45 -53c-7 -5 -14 -7 -28 -10c-20 -22 -39 -41 -60 -63c-14 -15 -29 -32 -44 -46c-11 -12 -22 -23 -33 -36c-5 -55 -9 -110 -14 -165c-1 -20 -3 -41 -5 -61c0 -14 -1 -27 -1 -41
c0 -10 0 -18 2 -22c3 -6 9 -6 11 -6c8 0 11 3 23 7c31 12 49 21 100 68z" />
    <glyph glyph-name="Y" unicode="Y" horiz-adv-x="750" 
d="M560 -21l-27 -21c-17 -14 -62 -51 -102 -98c-27 -30 -64 -75 -98 -75c-19 0 -31 19 -33 25c-4 8 -4 14 -4 22c0 27 15 60 28 86c26 55 59 111 93 166c25 42 51 83 80 124c31 47 66 93 101 139c8 10 15 20 20 30c-4 -4 -8 -8 -12 -11c-8 -9 -17 -16 -26 -25
c-5 -5 -11 -11 -15 -16c-10 -9 -20 -18 -30 -28c-14 -12 -27 -25 -40 -37c-8 -7 -15 -14 -23 -21c-7 -6 -14 -14 -21 -21c-9 -8 -17 -15 -27 -24c-6 -6 -12 -12 -19 -18c-11 -10 -22 -19 -34 -29c-14 -12 -28 -25 -42 -36c-13 -11 -26 -21 -40 -31c-33 -25 -47 -35 -64 -35
c-9 0 -26 2 -47 17c-9 6 -23 23 -23 44c0 13 8 41 25 74c18 35 59 98 123 181c6 9 12 17 19 26c16 21 30 37 47 57c7 9 15 18 22 27c12 14 24 30 33 44c15 24 25 39 25 50c0 9 -9 11 -11 11c0 0 -7 -1 -12 -2c-10 -3 -22 -8 -44 -19c-10 -6 -20 -10 -29 -16
c-19 -11 -37 -25 -55 -36c-20 -13 -40 -25 -60 -37c-18 -10 -35 -20 -52 -29c-16 -9 -33 -17 -50 -26c-5 -3 -10 -5 -14 -7s-7 -2 -10 -4c-6 -2 -12 -7 -18 -7c-7 0 -10 8 -10 13c0 19 3 39 15 78c3 11 12 39 20 50c5 7 10 11 17 16c14 11 28 20 42 29c17 10 34 21 51 31
c20 12 41 23 61 34c18 9 136 74 226 74c38 0 62 -9 62 -35c0 -7 -1 -14 -2 -20c-7 -56 -40 -102 -80 -156c-19 -25 -37 -51 -56 -76c-17 -22 -33 -43 -50 -64c-24 -31 -85 -109 -85 -139c0 -8 7 -16 15 -15c16 0 34 13 50 23c11 7 22 14 32 22c6 4 10 8 17 13c3 3 7 6 10 9
c5 4 10 9 16 14c8 8 17 15 24 22c3 3 6 6 9 10c6 5 11 10 16 15c5 6 12 12 18 18c9 9 18 19 27 28c5 6 12 11 16 16c3 3 5 5 7 8c4 4 9 8 12 12c5 6 9 11 15 17c9 10 18 19 27 29c24 24 46 47 71 71c17 16 36 31 46 31c3 0 7 -2 10 -4c14 -11 34 -45 34 -60
c0 -3 0 -7 -2 -11c-3 -6 -16 -24 -28 -42c-19 -28 -39 -55 -58 -82c-30 -42 -58 -85 -86 -128c-20 -31 -41 -62 -59 -93c-8 -13 -58 -104 -58 -116c0 -2 1 -8 6 -8s12 5 12 5c28 16 53 36 80 52c9 5 18 9 27 14c10 4 19 9 28 12c9 4 17 6 26 8c7 1 14 4 20 4
c2 0 12 -1 12 -10c0 -1 -1 -6 -4 -10c-11 -17 -49 -52 -68 -68c-12 -11 -24 -20 -36 -30c-10 -9 -19 -17 -29 -25z" />
    <glyph glyph-name="Z" unicode="Z" horiz-adv-x="625" 
d="M539 200l-9 -36c-10 -30 -35 -91 -104 -165c-16 -16 -35 -34 -54 -51c-91 -79 -154 -106 -193 -120c-16 -5 -37 -12 -53 -12c-13 0 -28 5 -46 19c-4 4 -8 7 -11 11c-6 6 -18 15 -18 34c0 4 0 7 3 14c4 10 25 49 56 83c43 46 77 72 129 106c65 43 129 76 196 108
c6 3 11 6 17 9c8 3 11 3 11 11s0 15 -1 22c-5 21 -22 38 -58 38c-60 0 -141 -45 -199 -74c-19 -11 -39 -22 -59 -30c-9 -4 -20 -8 -22 -8c-7 0 -11 11 -11 18s3 17 5 23c8 29 16 44 23 58c5 9 11 20 19 28c22 21 63 41 119 66c39 18 78 36 116 56c24 13 49 28 73 44
c5 3 40 25 67 49c8 8 28 26 28 54c0 2 0 9 -8 13c-4 3 -20 6 -35 6c-35 0 -99 -17 -100 -17c-30 -8 -61 -19 -91 -31c-29 -11 -95 -36 -173 -86c-24 -15 -49 -35 -73 -55c3 40 6 81 18 122c13 43 29 66 48 84c24 24 80 57 109 71c19 9 38 17 58 25c28 11 75 30 142 40
c19 3 39 5 58 5c7 0 46 0 76 -14c49 -21 76 -66 76 -110c0 -16 -6 -61 -48 -110c-49 -57 -133 -95 -138 -97c-23 -11 -45 -19 -68 -27c30 -6 59 -9 90 -38c5 -5 9 -9 13 -14c5 -6 18 -29 21 -53c1 -9 1 -19 1 -29c14 3 28 7 41 12c6 2 20 8 25 8c1 0 9 -2 9 -8
c0 -4 -4 -9 -11 -16c-18 -15 -33 -21 -41 -24c-8 -4 -16 -8 -23 -12zM447 155c-20 -9 -39 -18 -59 -30c-10 -6 -20 -12 -30 -19c-10 -6 -115 -75 -181 -152c-7 -8 -13 -17 -19 -25c-5 -8 -11 -15 -15 -23c-2 -4 -3 -6 -5 -13c1 0 5 -1 8 -1c7 0 49 13 81 30
c26 14 80 51 134 106c32 32 57 62 75 97c4 9 11 23 11 30z" />
    <glyph glyph-name="bracketleft" unicode="[" horiz-adv-x="479" 
d="M180 3h75c3 -1 8 -4 8 -11c0 -3 -1 -5 0 -8c0 -3 2 -8 -4 -13c-11 -10 -36 -17 -67 -23c-3 -1 -91 -19 -141 -19c-7 0 -7 0 -10 1c-19 5 -20 30 -20 42c0 3 0 21 5 35c5 16 30 55 56 98c24 42 48 83 72 125c14 26 29 51 43 76c13 24 26 47 40 71c19 33 38 65 56 98
c8 12 15 24 22 37c8 14 15 29 23 43c5 9 10 18 15 26l6 12c3 6 7 12 10 17c20 35 39 70 56 106c2 4 3 8 6 12c13 22 47 40 48 41c8 4 13 5 17 6c33 -3 66 -6 100 -12c10 -2 20 -3 31 -6c13 -3 25 -6 39 -12c6 -2 14 -5 14 -14c0 -1 -1 -4 -1 -5c-1 -1 -1 -3 -1 -6
c0 -4 0 -6 -4 -9c-6 -5 -7 -3 -16 -3c-6 0 -12 -1 -17 -2c-7 0 -13 -1 -19 -1c-37 -3 -74 -6 -112 -10c-30 -32 -24 -29 -52 -75c-16 -28 -33 -56 -48 -83c-14 -25 -26 -49 -40 -73c-44 -79 -89 -158 -135 -238c-19 -35 -39 -70 -59 -105c-36 -63 -46 -80 -57 -115
c20 -1 40 -3 61 -3z" />
    <glyph glyph-name="backslash" unicode="\" horiz-adv-x="354" 
d="M296 0l-223 706h80l223 -706h-80z" />
    <glyph glyph-name="bracketright" unicode="]" horiz-adv-x="479" 
d="M-96 -4h13c15 1 31 2 47 4c31 2 62 5 94 9c29 30 23 25 51 73c20 32 39 65 57 98c10 18 19 36 29 53c6 9 11 19 17 28c7 13 14 27 22 40c10 18 20 34 29 52c14 24 27 49 41 73c24 42 48 83 72 125c13 22 25 45 38 68c7 12 15 25 20 37c7 14 12 27 17 41
c-26 2 -51 3 -76 3c-16 0 -31 -1 -46 0c-5 0 -10 -1 -15 1c-2 0 -8 3 -8 10v10c0 1 -1 2 0 5c3 9 22 17 41 22c40 12 133 26 173 26c18 0 28 -12 28 -41c0 -40 -12 -52 -25 -75s-27 -46 -40 -68c-27 -46 -53 -93 -80 -138c-15 -28 -31 -55 -47 -82c-18 -32 -36 -65 -54 -97
c-12 -20 -23 -38 -34 -58c-32 -57 -63 -113 -94 -169c-8 -14 -15 -28 -22 -42c-5 -9 -8 -19 -15 -29c-8 -13 -31 -36 -62 -46c-31 2 -62 5 -93 9c-14 3 -28 5 -42 8c-6 2 -12 4 -19 6c-14 4 -18 4 -26 11c-2 1 -7 4 -7 9c0 3 2 6 2 9c1 2 0 5 1 7c1 4 5 8 13 8z" />
    <glyph glyph-name="underscore" unicode="_" horiz-adv-x="500" 
d="M557 -216h-520v79h520v-79z" />
    <glyph glyph-name="quoteleft" unicode="&#x2018;" horiz-adv-x="250" 
d="M274 629c3 1 13 3 22 1c21 -3 33 -23 33 -40c0 -22 -16 -40 -23 -48c-3 -4 -6 -9 -9 -11c-2 -1 -3 -2 -4 -4c-3 -2 -8 -7 -12 -10c-13 -12 -30 -22 -33 -24c-6 -4 -43 -25 -70 -25c-7 0 -41 3 -41 35c0 26 17 50 23 59c5 7 8 12 13 18c4 5 8 11 13 15c34 40 70 73 116 98
c2 1 35 21 57 21c3 0 16 0 16 -12c0 -4 -2 -7 -3 -8c-4 -3 -15 -8 -24 -13c-39 -21 -54 -34 -74 -52z" />
    <glyph glyph-name="a" unicode="a" horiz-adv-x="437" 
d="M389 336l-37 -20l27 -58c-9 -16 -19 -31 -29 -47c-9 -15 -18 -30 -25 -45c-11 -23 -17 -36 -17 -46c0 -13 12 -26 25 -26c11 0 25 5 48 19c19 12 32 21 68 53v-44c-35 -41 -55 -66 -100 -103c-5 -4 -26 -21 -45 -30c-4 -3 -19 -9 -34 -9c-16 0 -50 7 -50 52
c0 27 13 69 21 95c-25 -27 -50 -51 -75 -75c-5 -6 -10 -11 -15 -16c-18 -17 -39 -32 -44 -34c-4 -3 -12 -7 -23 -7c-20 0 -45 24 -46 25c-17 18 -41 55 -41 104c0 44 21 71 36 91c8 9 23 27 43 45c9 8 20 17 29 24c7 6 15 11 23 17c9 7 19 14 28 20c20 13 88 56 154 67
c8 1 16 3 25 3c13 0 20 -4 26 -7c16 -11 18 -22 28 -48zM304 289c-95 -40 -144 -65 -189 -104c-20 -18 -38 -37 -38 -78c0 -11 1 -22 3 -33c43 14 66 33 85 50c46 39 73 78 89 98c18 23 34 44 50 67z" />
    <glyph glyph-name="b" unicode="b" horiz-adv-x="354" 
d="M364 163l-2 -49c-5 -3 -54 -36 -87 -36c-9 0 -16 2 -33 9c-15 -16 -89 -103 -158 -103c-31 0 -47 22 -55 37c-9 17 -22 64 -22 115c0 48 4 120 75 233c12 19 25 38 39 58c8 10 16 19 22 28c20 25 52 62 80 93c12 13 24 26 35 37c6 6 10 10 16 15c7 6 16 15 26 23
c12 11 57 47 85 60c10 4 13 4 19 4c2 0 7 0 13 -5c13 -10 14 -22 14 -33c0 -13 -3 -31 -16 -61c-22 -52 -56 -105 -146 -212c-8 -10 -17 -20 -25 -30c-4 -4 -8 -8 -11 -13c-16 -18 -32 -37 -49 -56c-31 -34 -59 -64 -92 -99c-1 -12 -3 -25 -3 -37c0 -18 6 -42 7 -46
c3 -5 11 -17 24 -17c8 0 16 3 17 4c15 5 28 15 48 45c-7 24 -8 31 -8 45c0 6 0 16 5 30c5 11 23 49 57 82c22 21 36 26 47 30c1 1 14 6 22 6c1 0 6 -1 12 -4c13 -8 11 -20 11 -25c0 -22 -2 -55 -30 -105c-6 -13 -15 -25 -24 -38c6 -4 11 -8 26 -8c28 0 50 15 61 23zM132 288
l9 9c4 4 8 9 13 14c32 36 60 70 87 106c23 32 45 62 65 94c10 17 19 34 27 51c5 10 10 20 13 29c-8 -5 -16 -13 -24 -22c-67 -69 -140 -170 -180 -243c-9 -18 -17 -35 -25 -52c7 5 10 9 15 14z" />
    <glyph glyph-name="c" unicode="c" horiz-adv-x="313" 
d="M329 170l-6 -52c-19 -21 -36 -39 -56 -58c-9 -8 -18 -15 -28 -23c-12 -11 -25 -21 -37 -29c-6 -4 -18 -12 -32 -19c-18 -9 -33 -12 -52 -12c-59 0 -84 32 -97 62c-4 10 -23 56 -23 96c0 29 6 68 63 128c11 12 24 24 37 35c14 13 32 27 49 39c37 24 83 43 120 43
c3 0 10 0 18 -3c27 -10 26 -34 26 -40c0 -19 -8 -51 -48 -95c-28 -30 -41 -38 -55 -38c-15 0 -24 11 -19 35c-67 -49 -116 -81 -116 -119c1 -34 33 -51 61 -51c27 0 80 15 149 64c15 11 30 23 46 37z" />
    <glyph glyph-name="d" unicode="d" horiz-adv-x="458" 
d="M472 170l-5 -54c-10 -11 -19 -21 -28 -32c-6 -5 -12 -12 -18 -17c-7 -8 -13 -14 -20 -21c-9 -8 -18 -16 -27 -23c-28 -23 -56 -43 -83 -43c-11 0 -25 4 -34 11c-14 13 -22 36 -22 71c0 28 6 56 12 84c-26 -24 -42 -41 -67 -67c-7 -6 -12 -12 -18 -17
c-6 -6 -12 -12 -17 -18c-7 -6 -13 -11 -19 -17c-19 -17 -28 -27 -47 -27c-17 0 -26 13 -31 19c-17 22 -42 65 -42 121c0 6 0 25 6 42c12 36 47 73 78 98c36 28 56 39 74 48c16 8 32 17 48 23c11 4 22 7 33 10c16 4 19 4 28 4c20 0 32 -3 45 -26c14 30 28 60 45 89
c11 20 24 41 36 61c12 19 23 38 37 57c6 9 13 18 21 27c4 6 21 29 45 29c1 0 16 -1 24 -13c3 -3 4 -8 5 -12c2 -3 4 -9 4 -17s-2 -13 -9 -28c-19 -39 -45 -79 -70 -118c-16 -24 -31 -48 -48 -71c-8 -10 -15 -19 -21 -29c-10 -14 -16 -29 -23 -43c-8 -17 -46 -96 -46 -163
c0 -11 0 -21 9 -29c6 -5 11 -5 15 -5c8 0 15 4 31 15c32 21 47 32 99 81zM276 244l11 31c-39 -14 -78 -29 -116 -51c-28 -16 -47 -29 -59 -42c-13 -14 -15 -25 -18 -39c-4 -15 -6 -23 -6 -39c0 -6 3 -9 11 -9c13 1 30 14 57 37c11 9 22 17 32 27c10 9 18 16 30 26
c7 7 11 12 17 18c6 5 11 10 15 14s8 9 14 16c4 3 8 7 12 11z" />
    <glyph glyph-name="e" unicode="e" horiz-adv-x="313" 
d="M328 168l-3 -50c-8 -8 -16 -18 -24 -25c-2 -3 -7 -7 -9 -10c-5 -4 -7 -8 -12 -13c-20 -20 -57 -49 -76 -60c-13 -8 -52 -29 -92 -29c-30 0 -53 11 -63 18s-17 17 -20 20c-19 28 -22 63 -23 69c-3 15 -5 30 -5 46c0 33 13 71 66 135c8 9 16 19 25 28s15 14 24 21
c63 52 116 61 141 61c8 0 16 -1 24 -3c14 -3 40 -10 40 -46c0 -18 -8 -52 -54 -95c-41 -39 -81 -61 -166 -99c0 -2 0 -16 2 -26c10 -38 37 -43 52 -43c17 0 51 11 93 38c8 6 18 12 26 18c5 5 10 9 16 14c6 4 12 9 18 14s13 11 20 17zM107 184c48 28 66 43 89 64
c6 6 30 27 41 52c2 5 3 11 4 16c-28 -6 -50 -17 -75 -39c-18 -17 -24 -26 -35 -42c-15 -23 -17 -28 -24 -51z" />
    <glyph glyph-name="f" unicode="f" horiz-adv-x="292" 
d="M306 170l-1 -51c-8 -10 -15 -19 -23 -28c-22 -24 -31 -29 -69 -55c0 -16 -1 -31 -3 -47c-10 -65 -49 -125 -65 -148c-14 -18 -31 -37 -44 -50c-5 -5 -60 -57 -98 -56c-7 0 -16 0 -29 15c-18 19 -32 51 -32 96c0 100 65 209 79 235c-3 6 -7 12 -10 18c-8 20 -9 39 -9 45
c0 30 19 50 31 57c4 3 7 4 15 7c47 43 89 95 96 103c8 20 19 42 30 63c14 26 27 53 43 79c12 21 24 41 37 61c13 21 27 41 42 61c5 7 9 11 15 17c4 6 8 11 12 15c9 9 14 15 20 15c2 0 6 -2 10 -5c11 -8 16 -19 16 -43c0 -12 -1 -23 -7 -46c-13 -47 -39 -96 -108 -193
c-8 -11 -16 -23 -25 -35c-33 -46 -61 -93 -89 -140c30 -27 39 -42 55 -74c10 3 18 7 28 12c16 8 30 19 57 44c9 9 17 18 26 28zM74 38c-13 -27 -45 -80 -45 -149c0 -3 -1 -33 8 -54c2 -6 3 -8 10 -17c10 8 22 19 37 38c30 39 50 102 50 143c0 6 0 13 -2 20
c-31 5 -40 8 -58 19z" />
    <glyph glyph-name="g" unicode="g" horiz-adv-x="417" 
d="M430 168l-2 -50c-15 -14 -31 -29 -47 -44c-12 -11 -24 -20 -35 -30c-16 -14 -32 -28 -48 -41c-15 -12 -30 -24 -45 -37c-27 -52 -42 -75 -85 -127c-12 -14 -24 -29 -37 -43c-5 -5 -12 -11 -18 -17s-51 -50 -87 -50c-13 0 -25 9 -25 24c0 24 7 40 11 50
c13 28 48 80 115 137c4 3 8 6 11 9c6 5 12 10 19 15c16 12 32 23 48 35c14 25 28 50 40 75c8 17 16 35 23 52c-10 -9 -20 -19 -30 -28c-28 -26 -60 -55 -119 -83c-24 -11 -33 -14 -45 -14c-22 0 -36 14 -48 36c-8 14 -27 52 -27 93c0 31 20 65 25 73c10 14 25 33 56 60
c16 14 48 42 93 68c13 7 78 46 131 46c21 0 52 -9 52 -31c0 -21 -40 -43 -77 -64c-24 -14 -48 -27 -72 -39c-28 -13 -62 -28 -91 -56c-13 -12 -32 -35 -37 -67c-2 -11 -2 -23 -1 -34c13 1 33 2 65 18c14 8 28 17 41 26c17 13 28 22 54 50c14 16 30 36 44 53
c18 21 38 44 59 63c7 7 17 16 27 16c8 0 18 -7 22 -16c5 -8 9 -31 9 -39c0 -6 -1 -12 -3 -18c-13 -31 -28 -61 -44 -92c-14 -27 -30 -54 -45 -80c30 22 56 42 84 66c13 11 25 22 39 35z" />
    <glyph glyph-name="h" unicode="h" horiz-adv-x="396" 
d="M77 166l-6 -57c17 18 30 34 46 49c5 6 9 11 15 17c7 7 16 15 22 21c68 66 95 84 139 114c12 8 28 18 40 18c11 0 17 -7 28 -19c14 -17 16 -21 16 -30c0 -12 -12 -22 -22 -35c-5 -6 -10 -13 -16 -19l-21 -27c-15 -18 -27 -36 -38 -55c-1 0 -16 -25 -16 -39
c0 -11 8 -21 21 -21c11 0 26 10 28 11c31 17 46 27 96 75l-5 -54c-38 -41 -60 -65 -101 -94c-30 -21 -42 -27 -57 -33c-15 -7 -21 -8 -29 -8c-23 0 -48 15 -48 60c0 46 48 112 53 119c6 10 13 20 20 30c6 8 13 16 18 24c4 4 6 9 8 13c-10 -7 -21 -14 -31 -23
c-40 -30 -72 -66 -81 -76c-12 -14 -21 -27 -32 -41c-17 -23 -34 -48 -58 -70c-10 -9 -21 -17 -31 -17c-8 1 -15 7 -18 9c-17 16 -18 42 -18 82c0 28 3 56 7 85c14 29 29 59 46 88c23 39 48 77 75 116c17 24 33 48 51 72c12 17 27 34 40 50c12 15 22 28 35 44
c6 7 13 14 18 19c6 6 11 13 18 20c10 11 20 21 31 31c8 9 15 15 23 22c17 14 37 31 53 31c6 0 11 -3 17 -6c3 -2 6 -3 9 -5c5 -4 13 -11 13 -24c0 -12 -5 -17 -18 -37c-8 -13 -15 -25 -23 -38c-6 -8 -13 -17 -19 -25c-16 -23 -32 -46 -50 -69c-40 -51 -82 -101 -123 -152
c-13 -16 -25 -31 -38 -46c-28 -33 -58 -67 -87 -100z" />
    <glyph glyph-name="i" unicode="i" horiz-adv-x="229" 
d="M257 509c11 1 34 -7 34 -35c0 -10 -4 -39 -37 -69c-5 -5 -23 -21 -41 -21c-20 0 -34 21 -34 38c0 5 1 18 8 31c6 13 33 55 70 56zM262 192l-3 -63c-37 -43 -59 -71 -105 -105c-21 -16 -43 -29 -65 -29c-41 0 -67 45 -71 54c-8 15 -17 43 -17 83c0 12 1 24 2 36
c13 39 22 64 74 130c11 14 45 62 93 62c18 0 26 -2 33 -10c5 -7 5 -12 5 -16c0 -8 -4 -26 -17 -48c-17 -30 -63 -80 -94 -105c-3 -7 -13 -25 -13 -45c0 -2 0 -12 3 -20c5 -11 19 -24 40 -24c34 0 72 33 78 39c19 16 40 42 57 61z" />
    <glyph glyph-name="j" unicode="j" horiz-adv-x="292" 
d="M324 520c2 0 12 1 21 -5c6 -5 18 -17 18 -36c0 -24 -25 -73 -57 -92c-5 -2 -18 -8 -32 -8c-19 0 -33 19 -33 37c0 10 3 38 26 68c8 10 29 34 57 36zM306 169l-4 -55c-18 -19 -34 -34 -52 -49c-15 -13 -32 -26 -47 -41c-9 -7 -16 -15 -23 -23c-4 -4 -9 -8 -13 -12
c-6 -6 -11 -12 -15 -17c-12 -12 -28 -26 -42 -39c-14 -24 -29 -49 -45 -74c-7 -11 -14 -21 -21 -31c-15 -22 -28 -43 -47 -65c-9 -10 -19 -20 -29 -25c-6 -3 -8 -3 -12 -3c-20 1 -32 21 -32 38c0 9 3 31 14 55c6 16 37 69 77 106c4 4 10 11 17 17c6 6 11 10 16 15
c7 5 13 10 19 16c22 39 43 77 63 115c24 47 46 93 68 139c-32 0 -35 -4 -55 -12c-10 -4 -20 -8 -31 -12c-11 -5 -23 -11 -34 -15c-27 -11 -54 -18 -81 -23c13 55 20 73 36 103c35 8 28 10 63 26c33 16 66 32 99 43c28 10 44 14 57 14c3 0 6 -1 10 -1c10 -2 31 -11 30 -37
c0 -31 -35 -93 -50 -123l-72 -144c59 41 75 55 102 81c8 7 14 12 20 18c4 4 9 10 14 15z" />
    <glyph glyph-name="k" unicode="k" horiz-adv-x="417" 
d="M398 142l12 9c6 6 11 11 18 17l-3 -51c-16 -19 -45 -50 -90 -89c-31 -27 -59 -48 -89 -48c-5 0 -27 2 -46 15c-4 3 -7 6 -15 15c-22 25 -34 46 -58 95c-11 -14 -22 -27 -32 -40c-9 -12 -18 -25 -28 -37c-9 -12 -21 -29 -35 -29c-9 1 -18 10 -21 18c-3 9 -7 80 -7 95
c0 18 0 33 4 50c13 56 81 152 83 156c9 12 16 22 24 34c22 31 45 61 70 90c21 26 42 49 65 73c3 4 6 8 10 12c5 5 10 9 13 12c12 12 30 30 45 44c16 14 35 30 52 42c17 13 27 16 35 16c21 0 25 -21 25 -26c0 -14 -10 -26 -29 -55c-14 -19 -27 -38 -42 -58
c-27 -36 -55 -71 -84 -105c-9 -11 -19 -22 -28 -33c-16 -18 -32 -38 -48 -56c-6 -8 -13 -15 -19 -23c-6 -7 -12 -13 -17 -19c-9 -9 -15 -18 -23 -27c-11 -12 -23 -25 -33 -37c-13 -16 -27 -30 -35 -46c-5 -11 -6 -15 -4 -35c15 17 27 31 41 46c16 17 31 33 48 50
c20 19 39 36 61 54c23 20 44 38 68 53c11 8 24 15 36 21c0 0 28 14 43 13c7 0 10 -2 13 -4c13 -9 28 -33 28 -63c0 -16 -3 -29 -24 -59c-33 -46 -73 -73 -156 -126c5 -11 21 -40 53 -40c33 0 63 28 72 36s17 14 26 21c6 6 14 12 21 19zM160 147c23 -1 29 -4 43 -9
c43 28 97 69 113 114c2 5 3 7 3 11c0 6 -2 7 -6 7c-26 0 -98 -63 -123 -90c-11 -11 -20 -22 -30 -33z" />
    <glyph glyph-name="l" unicode="l" horiz-adv-x="250" 
d="M263 166l-4 -53c-47 -45 -123 -121 -173 -121c-46 0 -64 40 -69 56c-7 21 -11 76 -11 97c0 14 1 27 2 41c2 24 5 28 14 52c37 100 109 204 130 234c9 13 19 25 27 35c11 15 36 47 81 81c24 18 50 30 58 30c9 -1 18 -11 18 -28c0 -39 -23 -100 -25 -105
c-5 -13 -12 -27 -18 -40c-4 -9 -8 -18 -13 -27c-4 -7 -8 -13 -12 -20c-10 -16 -20 -32 -31 -48c-11 -15 -24 -30 -36 -45c-9 -11 -18 -22 -27 -32c-6 -7 -12 -13 -18 -20c-5 -6 -10 -12 -14 -17c-7 -6 -13 -12 -20 -19c-7 -8 -15 -16 -23 -23c-4 -17 -7 -34 -7 -52
c0 -21 4 -32 11 -42c6 -9 15 -20 35 -20c4 0 13 1 24 6c17 7 59 36 101 80zM115 266c4 5 8 9 12 14c15 18 33 38 46 55c8 10 75 97 87 160c0 3 2 7 2 10c0 0 -1 1 -2 1c-2 0 -8 -6 -11 -9c-17 -16 -33 -35 -58 -73c-6 -10 -13 -20 -18 -30c-12 -21 -21 -41 -31 -62
c-10 -22 -21 -44 -27 -66z" />
    <glyph glyph-name="m" unicode="m" horiz-adv-x="604" 
d="M621 171l-1 -50c-18 -20 -36 -39 -55 -58c-64 -62 -106 -82 -134 -82c-3 0 -14 -1 -25 5c-10 6 -26 24 -26 47c0 17 6 33 9 39c10 26 34 70 80 133c-9 -6 -18 -11 -27 -18c-29 -22 -64 -57 -88 -82c-13 -14 -26 -29 -39 -43l-37 -37c-18 -18 -31 -29 -48 -29
c-20 0 -40 12 -40 35c0 6 1 18 7 33c15 46 45 85 56 102c4 7 8 13 11 20c7 12 11 17 13 30c-12 -5 -14 -8 -26 -17c-8 -6 -16 -12 -24 -19c-18 -15 -59 -57 -97 -108c-14 -18 -26 -37 -42 -56c-11 -12 -18 -20 -31 -20c-6 0 -16 0 -29 16c-24 30 -26 72 -26 102
c0 35 3 57 23 93c12 23 20 31 30 43c3 5 7 9 11 13c10 12 23 26 33 35c11 8 23 23 48 23c9 0 17 -1 26 -3c15 -2 21 -6 24 -13c1 -1 3 -5 3 -8c0 -9 -6 -14 -19 -30c-10 -13 -20 -26 -32 -39c-13 -14 -28 -28 -41 -41c-7 -12 -12 -23 -16 -34c-2 -5 -5 -11 -5 -16
c0 -4 4 -7 7 -10c10 10 17 17 24 25c3 3 7 7 11 10c3 4 6 7 8 9c10 9 26 25 40 39c5 5 9 8 14 13c7 7 14 13 21 20c6 5 14 13 21 20l15 12c6 6 12 11 18 16c15 13 32 25 48 37c6 4 31 24 54 24c1 0 8 0 14 -4c9 -5 20 -18 20 -40c0 -7 -1 -16 -8 -31
c-15 -35 -46 -70 -68 -106c-7 -10 -12 -21 -17 -31c15 14 29 26 43 39c8 7 17 14 24 21c27 23 53 46 82 69c11 9 21 17 32 25c22 16 44 29 65 40c3 -3 6 -7 9 -10c17 -24 21 -47 21 -56c0 -24 -17 -34 -37 -56c-8 -9 -16 -19 -23 -28c-6 -8 -38 -44 -38 -76
c0 -18 11 -23 20 -23c13 0 28 10 55 32c21 18 38 33 59 54z" />
    <glyph glyph-name="n" unicode="n" horiz-adv-x="396" 
d="M409 167l-4 -51c-14 -17 -27 -32 -41 -46c-5 -6 -62 -63 -103 -81c-5 -2 -17 -7 -31 -7c-1 0 -27 0 -40 18c-6 9 -12 22 -12 41c0 55 52 129 90 183c-19 -14 -40 -31 -57 -47c-36 -36 -66 -83 -73 -92l-27 -36c-7 -11 -15 -21 -24 -31c-12 -14 -21 -23 -35 -23
c-18 0 -26 14 -30 21c-17 29 -22 58 -23 119c2 9 5 19 9 29c6 17 20 49 54 91c10 12 22 25 30 33c17 17 29 30 49 30c7 0 12 -2 25 -5c7 -1 13 -2 17 -8c3 -4 4 -7 4 -11c0 -7 -4 -12 -12 -24c-9 -16 -20 -35 -49 -65c-22 -23 -34 -37 -42 -62c-1 -1 -6 -19 -5 -21
c0 -3 0 -4 4 -9c12 15 66 84 116 131c36 34 51 48 87 73c11 8 21 15 32 21c12 6 21 11 43 17c4 -4 7 -9 10 -13c4 -6 15 -28 15 -49c0 -26 -18 -40 -28 -52c-45 -53 -64 -84 -73 -108c-5 -13 -6 -18 -6 -25c0 -13 10 -18 16 -18c4 0 6 1 13 4c11 5 28 13 56 33
c17 12 43 38 45 40z" />
    <glyph glyph-name="o" unicode="o" horiz-adv-x="333" 
d="M347 167l-4 -54c-17 -14 -55 -48 -102 -50c-6 0 -13 1 -20 1c-11 -11 -21 -23 -32 -32c-39 -33 -77 -38 -90 -38c-25 0 -56 18 -73 42c-19 26 -25 53 -25 109c0 18 -1 45 29 86c4 7 8 12 13 18c4 4 8 8 11 12c15 16 31 31 48 44c6 5 43 35 72 48c24 12 45 14 55 14
c23 0 42 -13 51 -20c1 -1 14 -10 14 -19c0 -8 -12 -15 -19 -20c1 0 7 0 11 -3c11 -5 24 -20 24 -44c0 -5 0 -24 -4 -41c-5 -18 -16 -50 -42 -95c1 0 9 -1 15 0c20 2 48 23 50 25c6 6 12 11 18 17zM210 270c-9 -6 -19 -12 -28 -19c-8 -5 -16 -12 -25 -18
c-22 -17 -33 -26 -49 -45c-1 -1 -8 -10 -13 -17c-4 -7 -12 -26 -15 -46c-1 -6 -1 -12 -2 -19c0 -4 -2 -9 -2 -14c0 -2 1 -9 8 -14c4 -2 16 -5 28 -5c17 0 39 14 43 17c6 4 9 6 20 17c-2 11 -4 22 -4 33c0 13 3 51 20 89c5 14 13 27 19 41z" />
    <glyph glyph-name="p" unicode="p" horiz-adv-x="458" 
d="M471 166l-4 -48c-22 -21 -45 -42 -67 -60c-51 -40 -109 -68 -161 -68c-27 0 -49 7 -59 12c-8 4 -16 10 -23 15c-6 -1 -27 -4 -47 0c-5 2 -10 4 -16 6c-13 -23 -26 -45 -38 -68c-13 -25 -25 -50 -38 -76c-5 -9 -10 -19 -16 -28c-18 -33 -34 -54 -52 -54
c-21 0 -27 26 -27 41c0 14 1 29 4 43c4 17 20 70 57 123c10 13 32 44 61 73c19 32 41 62 61 94c21 32 40 64 59 95c-16 -14 -32 -28 -47 -43c-17 -16 -34 -33 -50 -50l-66 -66l1 50c7 9 14 17 22 25c7 8 15 15 23 24c11 12 23 25 31 34l15 15c6 7 11 13 20 22
c5 7 12 13 17 19c15 17 32 36 47 55l15 18c6 8 11 14 17 21c18 22 37 42 58 61c25 22 42 35 70 35c0 0 17 0 26 -5s14 -13 14 -22s-6 -17 -8 -20c-12 -19 -28 -29 -57 -60c-25 -28 -26 -26 -56 -71c-17 -25 -33 -49 -48 -74c44 35 85 68 129 89c32 14 56 21 68 21
c6 0 12 -2 18 -6c11 -6 17 -14 17 -35c0 -26 -12 -68 -65 -128c-12 -14 -25 -28 -38 -40c-19 -18 -39 -35 -59 -52c10 -2 21 -4 31 -4c16 0 35 6 38 7c57 19 104 63 123 80zM151 108c39 3 51 0 73 -8c21 21 39 40 60 64c31 35 37 52 37 69c0 3 0 11 -9 11
c-4 0 -10 -3 -13 -4c-14 -6 -30 -13 -58 -35c-26 -22 -50 -44 -90 -97z" />
    <glyph glyph-name="q" unicode="q" horiz-adv-x="417" 
d="M429 165l-5 -50c-28 -31 -39 -43 -92 -86c0 -5 3 -22 1 -38c-7 -55 -60 -115 -72 -128c-5 -6 -11 -13 -16 -18c-4 -3 -8 -8 -12 -12c-9 -10 -17 -17 -26 -26c-11 -11 -22 -20 -33 -30c-25 -22 -72 -60 -98 -60c-3 0 -10 0 -18 5c-19 12 -31 46 -31 62c0 8 3 19 7 27
c5 11 39 70 70 117c23 34 48 68 73 103c18 25 36 50 54 76c-26 -22 -52 -44 -78 -65c-23 -20 -50 -41 -74 -41c-19 0 -33 9 -48 25c-26 28 -33 55 -33 85c0 15 2 65 42 115c4 6 9 11 14 17c17 18 40 37 55 49c13 9 49 33 85 48c14 5 29 9 43 14c6 2 78 27 125 27
c15 0 24 -7 28 -15c2 -2 4 -10 5 -13c2 -6 4 -12 4 -19c-1 -7 -1 -9 -6 -21c8 -19 12 -23 12 -35c0 -20 -5 -23 -18 -43c-7 -11 -13 -22 -20 -32c-26 -38 -52 -76 -80 -114c3 -1 11 -5 19 -5c26 0 97 60 123 81zM267 220l17 17c5 6 11 12 17 20c13 14 22 23 32 38
c-127 -48 -239 -97 -257 -174c0 -1 -3 -12 -3 -20s6 -8 10 -8c8 0 16 3 23 5c39 14 58 30 76 44c6 4 13 10 19 15c9 8 17 15 24 21c3 4 9 8 13 12c2 2 4 5 7 7c3 4 7 7 11 11s7 8 11 12zM263 -1l-33 3c-25 -36 -50 -72 -71 -108c-17 -29 -29 -56 -29 -67c0 -3 2 -3 2 -3
c1 0 4 1 8 3c7 4 11 6 25 16c15 12 25 20 46 43c37 39 48 81 51 94c1 7 1 13 1 19z" />
    <glyph glyph-name="r" unicode="r" horiz-adv-x="333" 
d="M157 341l51 6c16 2 31 4 47 4c20 0 36 -3 44 -7c7 -4 14 -12 18 -20c4 -9 7 -27 7 -36c0 -4 0 -7 -2 -15c-4 -14 -14 -18 -27 -29c-20 -17 -48 -48 -51 -52c-4 -5 -34 -45 -34 -74c1 -7 3 -17 11 -21c2 -1 7 -2 14 -2c18 0 44 11 84 45c10 7 20 17 30 27l-4 -52
c-22 -23 -56 -60 -110 -98c-20 -15 -41 -27 -62 -27c-9 0 -26 1 -45 26c-20 26 -19 45 -19 56s1 28 11 53c23 54 78 105 89 115l-99 -18c-7 -8 -15 -16 -22 -25c-13 -14 -25 -28 -38 -43c-15 -17 -32 -33 -49 -50l1 51c11 13 26 27 47 59c-8 3 -23 9 -23 30
c0 48 43 91 58 104c5 4 11 9 17 13c21 15 24 16 36 20c5 1 14 5 18 5c6 -1 16 -5 16 -19c0 -10 -5 -16 -14 -26z" />
    <glyph glyph-name="s" unicode="s" horiz-adv-x="333" 
d="M349 168l-4 -53c-26 -25 -44 -45 -68 -65c-17 -15 -81 -67 -140 -67c-18 0 -31 2 -64 18c-10 6 -20 10 -29 17c-1 1 -15 13 -22 21c-8 11 -14 24 -18 47c-2 13 -4 25 -4 38c0 11 1 22 2 34c14 14 27 25 36 35c3 3 7 8 12 13s10 9 14 13c3 4 7 8 10 12c7 7 14 14 20 21
l13 13c24 26 42 46 66 71c3 16 6 32 19 49c9 12 18 17 23 19c4 3 15 7 26 7c10 0 24 -6 30 -15s2 -17 2 -27c0 -8 3 -9 7 -20c3 -9 5 -19 8 -28c7 -25 8 -59 8 -64c0 -15 -2 -53 -28 -95c-4 -6 -15 -21 -32 -39c-35 -34 -63 -47 -75 -53c2 -1 10 -4 18 -4c6 0 13 1 25 4
c67 17 129 82 145 98zM177 267c-22 -21 -45 -43 -66 -64c-6 -7 -11 -13 -17 -19c-7 -6 -14 -14 -20 -20s-10 -11 -17 -18c8 0 24 1 45 -17c6 -6 11 -10 15 -15c3 -5 4 -6 10 -16c4 1 8 2 12 4c21 8 36 30 39 36c6 10 15 34 15 62c0 25 -6 43 -16 67z" />
    <glyph glyph-name="t" unicode="t" horiz-adv-x="292" 
d="M333 423l61 -9c-20 -25 -40 -50 -62 -75c-14 -15 -22 -24 -29 -29c-14 -10 -33 -8 -35 -8c-13 0 -25 1 -37 3c-13 -17 -26 -33 -37 -50l-18 -30c-7 -14 -15 -28 -21 -42c-6 -13 -11 -26 -14 -39c-2 -11 -4 -20 -4 -30c0 -17 5 -26 14 -31c1 -1 7 -3 13 -3c10 0 21 5 31 9
c21 9 28 12 63 37c8 6 16 12 23 19c8 7 16 14 25 22l-3 -52c-10 -9 -20 -19 -30 -28c-15 -13 -111 -105 -186 -105c-31 0 -46 13 -54 27c-8 15 -8 28 -8 33c0 34 25 87 27 91c3 10 7 20 10 29l-62 -56l3 50c4 3 7 6 10 9c2 2 5 3 7 6c3 3 6 6 8 9c8 8 15 14 21 21
c5 4 10 10 14 14c2 2 5 4 8 8c13 13 25 26 37 39c15 17 31 34 45 51c-16 1 -33 2 -50 2s-35 -2 -52 -4c22 58 58 90 84 103c28 15 61 16 68 16c11 0 22 -1 33 -2c4 6 9 11 13 17c23 31 41 48 60 59c22 12 25 12 39 12c6 0 20 -1 27 -5s11 -11 11 -17c0 -3 0 -5 -2 -10
c-5 -8 -12 -15 -24 -28c-9 -10 -19 -22 -27 -33z" />
    <glyph glyph-name="u" unicode="u" horiz-adv-x="417" 
d="M433 168l-6 -54c-41 -52 -119 -132 -174 -133c-32 1 -52 31 -52 61c0 13 2 33 14 63c6 15 14 30 19 44c-14 -17 -26 -32 -40 -49s-30 -34 -45 -50c-16 -17 -14 -17 -33 -31c-14 -10 -25 -17 -40 -17c-24 1 -40 18 -46 26c-13 16 -22 37 -26 71c-2 10 -3 19 -3 30
c0 7 1 21 6 39c15 48 54 99 64 113c4 4 7 8 11 12c3 4 6 7 10 11c3 4 9 8 12 11c1 2 2 3 4 4c7 7 13 13 22 19c13 10 18 12 40 12c26 0 54 -5 54 -23c0 -11 -12 -24 -21 -35s-18 -23 -27 -34c-13 -16 -28 -32 -43 -48c-12 -12 -24 -22 -36 -32c-8 -13 -20 -28 -20 -57
c0 -5 1 -16 8 -16c6 0 17 7 29 15c68 43 122 110 137 128c7 8 16 18 24 28c6 7 11 12 16 18c5 5 10 11 15 16c3 4 9 8 13 13s7 8 11 12c8 9 19 18 29 27c4 3 25 22 40 22c10 -1 15 -11 17 -14c2 -5 5 -21 5 -37c0 -20 -5 -20 -31 -51c-11 -13 -71 -84 -87 -142
c0 -2 -3 -14 -3 -23c0 -2 1 -24 17 -24c19 0 37 14 54 26c21 16 42 33 62 49z" />
    <glyph glyph-name="v" unicode="v" horiz-adv-x="354" 
d="M368 167l-3 -53c-28 -23 -50 -41 -79 -41c-31 0 -50 21 -58 31c-16 -17 -30 -30 -47 -46c-8 -8 -18 -16 -26 -24c-38 -32 -48 -39 -69 -39c-9 0 -24 0 -43 16c-29 23 -44 63 -44 122c0 8 1 57 19 95c27 58 93 111 107 123c21 1 33 1 53 -5c2 -1 21 -4 21 -20
c0 -13 -9 -31 -10 -33c-10 -19 -28 -50 -68 -91c-10 -11 -22 -23 -33 -32c-5 -11 -16 -26 -16 -51c0 -21 8 -33 22 -33c3 0 7 1 13 4c12 7 54 38 85 80c0 4 1 18 5 30c18 56 77 111 89 123c20 18 29 25 41 25c3 0 4 0 9 -2c9 -4 23 -15 23 -33c0 -15 -9 -37 -10 -38
c-13 -35 -24 -58 -73 -121c5 -11 16 -22 36 -22c22 1 39 19 56 35z" />
    <glyph glyph-name="w" unicode="w" horiz-adv-x="542" 
d="M388 310l-9 -15c-8 -13 -16 -26 -23 -39c-5 -8 -50 -87 -60 -140c0 -4 -2 -9 -2 -13c0 -6 5 -14 12 -14c6 0 11 6 16 9c15 12 27 26 55 58c1 34 1 57 45 117c7 9 14 18 22 27c28 32 54 45 69 45c6 0 11 -4 13 -5c8 -8 11 -16 11 -34c0 -35 -13 -62 -18 -75
c-5 -11 -9 -21 -15 -32c-9 -15 -21 -31 -32 -47c5 -4 13 -11 27 -11c25 0 45 17 54 24l-3 -52c-5 -5 -10 -9 -15 -13c-29 -20 -57 -22 -66 -22c-25 0 -41 13 -52 20c-26 -25 -51 -49 -77 -70c-36 -29 -53 -35 -71 -35c-44 0 -52 49 -52 76c0 17 3 35 6 52
c-27 -29 -55 -59 -85 -83c-27 -22 -42 -30 -54 -30c-11 0 -22 7 -33 14c-22 15 -32 33 -37 44c-8 16 -15 47 -15 87c0 5 0 25 6 43c14 42 73 111 77 115c6 6 12 13 19 19c3 3 53 57 91 56c8 0 17 -1 33 -11c12 -8 19 -13 19 -25c0 -19 -38 -68 -55 -88
c-18 -21 -48 -51 -95 -92c-5 -12 -12 -26 -12 -53c0 -5 0 -9 1 -15c0 0 0 -4 2 -4s8 5 10 6c5 4 9 6 14 10c11 8 22 18 33 28c7 6 14 13 20 18c7 7 16 15 23 22c20 21 42 45 63 68c18 19 33 37 50 57c8 9 15 19 23 27c15 16 22 22 33 22c12 0 41 -10 41 -28
c0 -8 -6 -17 -7 -18z" />
    <glyph glyph-name="x" unicode="x" horiz-adv-x="333" 
d="M280 251l-72 -73c-3 -31 -3 -56 0 -68c4 -12 16 -21 28 -21c4 0 9 1 18 5c21 8 49 27 91 69l-3 -49c-6 -7 -13 -15 -21 -23c-9 -10 -18 -18 -27 -27c-3 -4 -7 -8 -10 -12c-8 -7 -16 -14 -23 -21c-11 -10 -29 -27 -56 -39c-4 -2 -18 -8 -33 -8c-4 0 -17 1 -28 11
c-17 17 -21 45 -26 87c-21 -19 -41 -37 -61 -56c-17 -15 -34 -32 -51 -32c-7 0 -18 4 -18 22c0 25 38 65 40 67c10 10 15 16 39 23l50 59l8 112c-12 -6 -25 -11 -37 -19c-14 -7 -27 -16 -41 -25c-7 -5 -10 -8 -15 -8c-4 0 -10 4 -10 13c0 11 5 22 24 43c4 4 8 8 11 12
c6 5 12 10 18 16c5 5 43 49 84 71c12 7 24 13 36 13c3 0 8 0 14 -4c9 -7 14 -17 14 -34c0 -12 -2 -24 -3 -36c-2 -20 -4 -40 -5 -60c12 11 27 24 41 36c12 9 23 17 35 26c16 13 44 33 61 33c11 0 19 -7 19 -18c0 -7 -10 -28 -32 -52c-24 -26 -36 -35 -48 -35
c-3 0 -6 0 -11 2z" />
    <glyph glyph-name="y" unicode="y" horiz-adv-x="417" 
d="M77 105l30 12c22 11 64 35 113 78c13 10 25 21 38 34c5 5 10 9 16 15c5 5 10 11 15 16c22 22 36 37 57 57l17 17c7 6 12 11 20 17c9 -3 10 -4 15 -8c9 -6 18 -17 18 -36c0 -28 -14 -47 -31 -75c-8 -13 -16 -27 -25 -40c-25 -40 -53 -77 -81 -116c-13 -18 -26 -37 -38 -55
c-4 -6 -7 -11 -11 -17c-7 -10 -10 -12 -10 -16c0 -2 1 -2 -3 -4c6 4 12 9 18 15c8 6 15 11 22 17c13 10 25 21 37 31c17 15 33 28 49 42c27 24 57 50 87 79l-4 -52l-20 -20c-5 -5 -10 -9 -15 -14c-9 -9 -18 -18 -27 -28c-12 -12 -23 -24 -36 -37c-8 -8 -17 -16 -24 -23
c-12 -13 -25 -27 -39 -42c-9 -10 -19 -20 -28 -30c-15 -15 -28 -31 -41 -47c-23 -26 -44 -53 -65 -80c-16 -21 -21 -29 -33 -29c-3 0 -7 0 -12 4c-11 7 -23 25 -23 50s8 35 21 59c8 15 16 31 24 46c17 29 35 59 54 88c14 23 31 46 43 70c-7 -4 -13 -7 -19 -11
c-9 -6 -18 -14 -27 -20c-13 -10 -26 -18 -39 -27c-25 -17 -39 -25 -51 -25c-9 0 -14 3 -26 17c-23 28 -41 56 -41 113c0 54 19 80 40 107c22 30 68 80 97 104c7 7 15 12 24 18c16 11 23 16 31 16c4 0 8 -2 9 -3c12 -6 4 -6 17 -19c11 -11 20 -16 20 -28s-6 -23 -23 -45
c-25 -33 -43 -51 -76 -80c-9 -8 -18 -17 -27 -24c-6 -5 -12 -9 -17 -13c-16 -34 -16 -37 -20 -58z" />
    <glyph glyph-name="z" unicode="z" horiz-adv-x="333" 
d="M375 190l4 -40c-16 -16 -31 -32 -48 -48c-12 -12 -25 -22 -37 -34c-13 -11 -25 -23 -38 -34c-8 -7 -16 -14 -24 -20c-14 -45 -24 -71 -57 -115c-16 -22 -21 -27 -41 -47c-12 -12 -25 -24 -37 -35c-10 -8 -35 -28 -63 -43c-18 -10 -35 -15 -55 -21c-13 11 -34 28 -34 61
c0 28 13 71 70 120c6 5 12 10 18 14c26 20 53 40 79 58c14 9 33 20 41 27c0 2 6 16 -4 30c-15 21 -42 27 -60 35c-3 1 -20 7 -20 23c0 7 5 12 7 14c8 9 27 21 50 37c25 17 49 35 74 53c19 13 38 25 55 39l-130 -16c-12 -16 -25 -31 -38 -47c-11 -14 -22 -28 -34 -42
c-7 -7 -14 -15 -21 -22c-10 -10 -19 -20 -30 -30l4 53c17 17 29 34 43 52c9 13 18 25 27 38c-6 3 -19 11 -19 28c0 22 16 45 35 65c20 20 61 43 84 43c18 0 22 -11 21 -20c0 -5 -2 -10 -5 -16c33 4 66 8 100 17c0 1 12 4 19 4s11 -2 13 -4c13 -8 13 -20 15 -30
c2 -7 7 -25 7 -47c-1 -20 -12 -27 -45 -51c-15 -11 -31 -22 -46 -33c-23 -17 -47 -32 -70 -48c27 -17 39 -27 53 -74c17 11 35 23 52 36c11 8 21 16 32 25c8 6 17 13 24 20c10 8 19 16 29 25zM127 -57c-11 -7 -64 -38 -101 -85c-6 -7 -14 -20 -14 -23c0 0 0 -1 2 -1
c3 0 18 9 27 14c42 27 62 56 86 95z" />
    <glyph glyph-name="braceleft" unicode="{" horiz-adv-x="354" 
d="M187 414v168c2 48 5 95 47 131c23 20 45 26 54 28c20 4 64 6 85 7l-1 -6c-28 -7 -51 -14 -72 -38c-26 -28 -27 -63 -27 -129v-98c-1 -37 0 -73 -3 -110c0 -11 -1 -60 -36 -93c-11 -11 -21 -16 -48 -25c26 -10 44 -17 62 -41c22 -31 24 -56 25 -120v-166
c1 -65 3 -98 27 -126c21 -25 45 -33 73 -40l-1 -6c-77 2 -117 9 -148 42c-39 42 -37 107 -37 153v129c0 70 0 104 -20 136c-15 22 -29 28 -51 37v6c23 7 37 12 51 34c18 29 19 64 20 127z" />
    <glyph glyph-name="braceright" unicode="}" horiz-adv-x="354" 
d="M262 83v-125c0 -28 -1 -56 -4 -84c-3 -20 -10 -77 -69 -107c-30 -14 -53 -14 -113 -17v6c26 6 49 12 70 35c27 28 29 64 30 132v98c0 34 0 68 1 103c1 9 1 67 39 101c13 12 29 18 47 24c-2 0 -19 6 -30 12c-38 21 -48 57 -51 67c-7 28 -7 72 -7 137v110
c0 57 -3 88 -18 114c-22 40 -71 50 -81 53v6c85 -3 126 -13 156 -52c24 -33 29 -69 29 -144v-129c0 -74 1 -111 26 -142c14 -18 26 -23 45 -30v-6c-13 -4 -15 -5 -22 -8c-8 -4 -20 -11 -31 -30c-16 -28 -17 -63 -17 -124z" />
    <glyph glyph-name="exclamdown" unicode="&#xa1;" horiz-adv-x="354" 
d="M270 666c23 -8 33 -13 45 -23c5 -5 20 -19 20 -37c0 -5 -1 -11 -2 -16c-2 -15 -5 -38 -24 -73c-9 -17 -17 -31 -27 -31c-5 0 -12 6 -16 8c-12 7 -10 4 -24 17c-3 2 -6 4 -8 7c-6 6 -14 18 -14 35c0 30 33 86 34 87c5 8 10 17 16 26zM172 223l-36 -57
c-16 -25 -31 -50 -49 -74c-10 -15 -20 -30 -31 -45c-13 -17 -26 -35 -42 -53c-14 7 -27 12 -40 19c-8 3 -15 7 -23 11c-12 6 -16 8 -16 15s5 10 12 20c5 9 10 17 16 25c6 10 13 20 19 29c22 32 43 64 65 96c6 9 11 16 17 26c21 30 40 59 60 89c14 21 29 43 42 63
c13 19 21 32 21 40c0 5 -2 8 -5 13l33 43c12 -11 22 -20 33 -31c11 -10 22 -22 22 -33s-14 -38 -18 -48c-7 -13 -13 -27 -20 -41c-9 -17 -19 -33 -28 -50c-11 -19 -21 -38 -32 -57z" />
    <glyph glyph-name="sterling" unicode="&#xa3;" horiz-adv-x="729" 
d="M653 382v-7c-15 -29 -46 -62 -76 -69c-11 -3 -22 -2 -34 -3h-44c-51 0 -102 -1 -153 -2c-2 -22 -3 -37 -6 -46c-8 -26 -33 -68 -69 -130c22 -2 44 -4 67 -7c30 -4 60 -11 91 -18c44 -10 89 -23 133 -37c23 -7 46 -15 68 -20c13 -4 26 -6 39 -8c-7 -9 -13 -15 -21 -24
l-22 -22c-14 -14 -33 -33 -49 -43c-23 -14 -43 -18 -52 -18c-18 1 -28 6 -61 18c-18 6 -35 12 -52 17c-12 3 -139 38 -224 38c-16 0 -31 -2 -47 -4c-13 -11 -29 -25 -59 -33c0 0 -10 -2 -17 -2c-2 0 -7 0 -12 2c-9 3 -17 13 -17 22c0 5 0 5 2 8c1 3 19 36 34 57
c5 6 10 13 16 20c6 6 11 12 16 17c37 34 78 34 115 35c18 27 47 70 47 134c0 14 -2 29 -3 44l-60 4c-16 8 -19 9 -41 28c-8 7 -11 9 -15 15c-7 9 -12 20 -12 23c0 5 4 8 10 7c4 0 9 -2 13 -4c5 -2 8 -2 10 -3c14 -2 28 0 42 0s28 -1 42 0c-6 33 -11 66 -18 100
c-5 29 -12 58 -12 87c0 8 1 17 2 25c1 7 5 36 20 62c23 40 72 73 112 91c12 6 24 10 35 14c8 3 15 6 22 8l24 6c19 6 37 10 56 14c24 4 49 8 73 10c21 1 42 3 63 3c12 0 66 0 112 -18c16 -6 30 -12 35 -30c1 -6 3 -47 3 -52c0 -18 -8 -29 -14 -36c-18 -17 -41 -22 -79 -40
c-23 -10 -45 -22 -68 -35c-16 -10 -28 -18 -35 -18c-8 1 -11 8 -11 10c1 5 4 10 10 16c17 17 33 31 76 60c-25 0 -49 1 -74 0c-24 -2 -48 -5 -73 -9c-20 -3 -40 -6 -61 -11c-42 -9 -75 -21 -91 -37s-28 -43 -28 -83c0 -23 3 -45 5 -68c2 -22 2 -44 3 -66c24 -1 47 0 70 0
c19 -1 38 0 56 0s35 -1 52 -1c11 0 22 1 33 1c14 1 29 0 43 1c20 2 40 4 60 7z" />
    <glyph glyph-name="fraction" unicode="&#x2044;" horiz-adv-x="125" 
d="M354 694l-18 -24c-17 -21 -33 -41 -48 -62c-46 -62 -88 -123 -131 -185c-36 -52 -73 -105 -110 -156c-12 -16 -23 -32 -34 -47c-16 -22 -31 -44 -47 -65c-19 -28 -39 -55 -57 -81c-22 -33 -43 -66 -63 -100c-6 -10 -12 -19 -17 -30c-4 -8 -10 -10 -13 -10c-2 0 -4 0 -6 3
c-8 12 -10 55 -10 65c0 8 0 12 2 20c4 13 8 15 23 35c16 23 35 48 52 72c39 53 78 107 116 159c24 33 51 69 76 105c10 14 20 28 30 41c10 15 19 29 30 44c9 12 17 24 25 35c11 16 24 35 36 53c17 23 33 45 48 68c9 12 18 24 26 35c12 18 20 31 40 39c5 2 15 5 27 6
c14 0 32 -3 31 -10c0 -3 -5 -7 -8 -10z" />
    <glyph glyph-name="section" unicode="&#xa7;" horiz-adv-x="542" 
d="M94 -26h15c66 0 149 19 164 24c18 6 36 14 54 24c16 8 39 23 39 39c0 3 -1 9 -4 15c-6 10 -19 21 -38 28s-38 8 -78 13c-23 2 -46 5 -69 8c-30 4 -67 7 -92 39c-12 14 -15 26 -15 42s3 32 4 48c0 11 -1 41 13 72c3 7 8 15 13 23c6 10 24 26 26 28c33 29 68 42 87 51
c-14 5 -59 19 -59 69c0 10 1 21 2 31c1 12 2 23 5 34c3 15 11 44 52 74c17 13 36 25 73 41l21 9c10 4 22 7 32 10c24 7 65 19 125 19c19 0 37 -2 55 -6c15 -3 21 -3 28 -8c12 -7 12 -16 12 -20c0 -8 -1 -16 -2 -24c0 -4 2 -18 -7 -33c-12 -19 -35 -29 -55 -39
c-20 -11 -40 -23 -59 -38c-12 -8 -19 -13 -24 -12c-3 0 -9 1 -9 7s4 12 13 22c17 19 26 25 46 40c-87 -4 -114 -10 -160 -33c-8 -4 -22 -10 -42 -26c-17 -13 -32 -30 -32 -48c0 -9 3 -16 11 -24c22 -22 43 -18 88 -22c20 -2 40 -5 61 -8c8 -1 35 -4 62 -16
c7 -3 44 -19 62 -51c7 -11 15 -31 15 -59c0 -13 0 -24 -12 -49c-3 -7 -7 -17 -12 -24c-15 -22 -39 -45 -61 -59c-14 -9 -52 -30 -96 -41c4 -2 7 -4 12 -6c4 -2 38 -17 59 -40c2 -2 8 -9 11 -16c7 -12 11 -23 11 -36c0 -11 -4 -44 -31 -77c-24 -29 -58 -51 -115 -70
c-48 -16 -153 -34 -202 -34c-24 0 -49 2 -56 4c-5 1 -13 3 -26 9c-3 2 -11 5 -18 12c-2 2 -12 11 -12 21c0 7 7 17 14 34c11 25 15 35 31 42c11 6 41 16 53 16c2 0 7 0 7 -7c0 -3 -1 -6 -6 -8c-7 -4 -14 -7 -20 -9c10 -6 16 -5 36 -5zM378 365c-24 -1 -48 -3 -97 -18
c-8 -2 -16 -5 -24 -8c-13 -4 -26 -11 -38 -17c-22 -10 -47 -31 -52 -36c-13 -14 -23 -37 -23 -51c0 -19 21 -23 46 -23c19 0 38 2 57 6c40 7 112 31 152 52c43 23 54 45 54 67c0 12 -7 19 -12 22c-10 5 -35 8 -63 6z" />
    <glyph glyph-name="quotedblleft" unicode="&#x201c;" horiz-adv-x="437" 
d="M256 632c16 2 28 -1 34 -4c3 -2 6 -4 10 -9c9 -11 10 -22 10 -27c0 -40 -57 -82 -63 -87c-9 -6 -54 -35 -90 -35c-4 0 -25 -1 -35 18c-3 7 -4 17 -4 17c0 22 19 63 69 114c65 68 129 97 154 97c7 0 15 -4 15 -13c0 -8 -10 -12 -16 -14c-5 -2 -11 -5 -16 -8
c-39 -24 -45 -29 -68 -49zM444 631c1 0 12 2 20 1c11 -2 34 -13 34 -41c0 -16 -7 -37 -44 -70c-49 -43 -91 -51 -108 -51c-3 0 -24 -2 -35 16c-2 4 -5 11 -5 19c0 29 26 63 32 70c71 97 163 141 192 141c1 0 15 -2 15 -13c0 -9 -10 -11 -22 -17c-5 -2 -9 -5 -14 -8
c-31 -18 -34 -20 -65 -47z" />
    <glyph glyph-name="guilsinglleft" unicode="&#x2039;" horiz-adv-x="354" 
d="M120 193l-3 -16c21 -12 46 -26 85 -61l24 -24c18 -21 27 -34 27 -49c0 -9 -4 -15 -6 -23c-2 -6 -6 -15 -12 -15c-10 1 -19 17 -31 32c-14 16 -27 31 -41 46c-13 13 -27 27 -41 40c-12 12 -26 22 -39 34c-22 19 -49 39 -49 71c0 8 1 10 7 21c36 10 57 20 119 49
c41 19 82 39 122 61c18 9 26 16 36 16c5 0 14 -2 14 -15c0 -10 -6 -24 -11 -47c-4 -13 -8 -27 -12 -40c-2 -8 -3 -12 -9 -18c-9 -8 -25 -12 -51 -21c-19 -7 -38 -13 -58 -19c-23 -8 -47 -15 -71 -22z" />
    <glyph glyph-name="guilsinglright" unicode="&#x203a;" horiz-adv-x="354" 
d="M228 187l3 16c-29 17 -46 27 -71 49c-11 9 -20 17 -30 27c-11 11 -36 39 -36 56c1 8 4 17 7 25c2 6 5 14 12 14c10 0 16 -13 23 -21c5 -7 12 -14 18 -20l21 -24c27 -31 38 -41 92 -87c20 -17 47 -38 47 -68c0 -4 -2 -12 -5 -22c-80 -28 -93 -35 -168 -73
c-25 -12 -49 -24 -72 -37c-17 -9 -31 -17 -40 -17c-5 0 -12 3 -12 15c0 9 8 36 15 63c7 24 9 36 20 44c5 4 9 6 20 10c24 9 49 17 73 25c28 8 55 17 83 25z" />
    <glyph glyph-name="fi" unicode="&#xfb01;" horiz-adv-x="521" 
d="M306 170l-1 -51c-8 -10 -15 -19 -23 -28c-22 -24 -31 -29 -69 -55c0 -16 -1 -31 -3 -47c-10 -65 -49 -125 -65 -148c-14 -18 -31 -37 -44 -50c-5 -5 -60 -57 -98 -56c-7 0 -16 0 -29 15c-18 19 -32 51 -32 96c0 100 65 209 79 235c-3 6 -7 12 -10 18c-8 20 -9 39 -9 45
c0 30 19 50 31 57c4 3 7 4 15 7c47 43 89 95 96 103c8 20 19 42 30 63c14 26 27 53 43 79c12 21 24 41 37 61c13 21 27 41 42 61c5 7 9 11 15 17c4 6 8 11 12 15c9 9 14 15 20 15c2 0 6 -2 10 -5c11 -8 16 -19 16 -43c0 -12 -1 -23 -7 -46c-13 -47 -39 -96 -108 -193
c-8 -11 -16 -23 -25 -35c-33 -46 -61 -93 -89 -140c30 -27 39 -42 55 -74c10 3 18 7 28 12c16 8 30 19 57 44c9 9 17 18 26 28zM74 38c-13 -27 -45 -80 -45 -149c0 -3 -1 -33 8 -54c2 -6 3 -8 10 -17c10 8 22 19 37 38c30 39 50 102 50 143c0 6 0 13 -2 20
c-31 5 -40 8 -58 19zM549 509c11 1 34 -7 34 -35c0 -10 -4 -39 -37 -69c-5 -5 -23 -21 -41 -21c-20 0 -34 21 -34 38c0 5 1 18 8 31c6 13 33 55 70 56zM554 192l-3 -63c-37 -43 -59 -71 -105 -105c-21 -16 -43 -29 -65 -29c-41 0 -67 45 -71 54c-8 15 -17 43 -17 83
c0 12 1 24 2 36c13 39 22 64 74 130c11 14 45 62 93 62c18 0 26 -2 33 -10c5 -7 5 -12 5 -16c0 -8 -4 -26 -17 -48c-17 -30 -63 -80 -94 -105c-3 -7 -13 -25 -13 -45c0 -2 0 -12 3 -20c5 -11 19 -24 40 -24c34 0 72 33 78 39c19 16 40 42 57 61z" />
    <glyph glyph-name="fl" unicode="&#xfb02;" horiz-adv-x="542" 
d="M306 170l-1 -51c-8 -10 -15 -19 -23 -28c-22 -24 -31 -29 -69 -55c0 -16 -1 -31 -3 -47c-10 -65 -49 -125 -65 -148c-14 -18 -31 -37 -44 -50c-5 -5 -60 -57 -98 -56c-7 0 -16 0 -29 15c-18 19 -32 51 -32 96c0 100 65 209 79 235c-3 6 -7 12 -10 18c-8 20 -9 39 -9 45
c0 30 19 50 31 57c4 3 7 4 15 7c47 43 89 95 96 103c8 20 19 42 30 63c14 26 27 53 43 79c12 21 24 41 37 61c13 21 27 41 42 61c5 7 9 11 15 17c4 6 8 11 12 15c9 9 14 15 20 15c2 0 6 -2 10 -5c11 -8 16 -19 16 -43c0 -12 -1 -23 -7 -46c-13 -47 -39 -96 -108 -193
c-8 -11 -16 -23 -25 -35c-33 -46 -61 -93 -89 -140c30 -27 39 -42 55 -74c10 3 18 7 28 12c16 8 30 19 57 44c9 9 17 18 26 28zM74 38c-13 -27 -45 -80 -45 -149c0 -3 -1 -33 8 -54c2 -6 3 -8 10 -17c10 8 22 19 37 38c30 39 50 102 50 143c0 6 0 13 -2 20
c-31 5 -40 8 -58 19zM554 166l-4 -53c-47 -45 -123 -121 -173 -121c-46 0 -64 40 -69 56c-7 21 -11 76 -11 97c0 14 1 27 2 41c2 24 5 28 14 52c37 100 109 204 130 234c9 13 19 25 27 35c11 15 36 47 81 81c24 18 50 30 58 30c9 -1 18 -11 18 -28c0 -39 -23 -100 -25 -105
c-5 -13 -12 -27 -18 -40c-4 -9 -8 -18 -13 -27c-4 -7 -8 -13 -12 -20c-10 -16 -20 -32 -31 -48c-11 -15 -24 -30 -36 -45c-9 -11 -18 -22 -27 -32c-6 -7 -12 -13 -18 -20c-5 -6 -10 -12 -14 -17c-7 -6 -13 -12 -20 -19c-7 -8 -15 -16 -23 -23c-4 -17 -7 -34 -7 -52
c0 -21 4 -32 11 -42c6 -9 15 -20 35 -20c4 0 13 1 24 6c17 7 59 36 101 80zM406 266c4 5 8 9 12 14c15 18 33 38 46 55c8 10 75 97 87 160c0 3 2 7 2 10c0 0 -1 1 -2 1c-2 0 -8 -6 -11 -9c-17 -16 -33 -35 -58 -73c-6 -10 -13 -20 -18 -30c-12 -21 -21 -41 -31 -62
c-10 -22 -21 -44 -27 -66z" />
    <glyph glyph-name="endash" unicode="&#x2013;" horiz-adv-x="521" 
d="M500 235l2 -2c-7 -14 -33 -70 -87 -91c-35 -13 -74 -11 -110 -11c-50 0 -99 -2 -150 -1c-24 0 -49 1 -73 0c-18 0 -37 -2 -56 -3v2c4 14 32 71 87 91c38 15 73 11 150 11c35 1 69 2 105 2c28 0 57 -2 85 -1c16 1 32 2 47 3z" />
    <glyph glyph-name="dagger" unicode="&#x2020;" horiz-adv-x="625" 
d="M432 450c90 2 122 -3 170 -16c35 -10 55 -24 55 -45c0 -15 -8 -25 -24 -40c-20 -18 -39 -29 -60 -37c-12 -4 -17 -6 -23 -6c-16 0 -19 12 -33 23c-8 6 -17 7 -25 9c-47 12 -74 13 -121 14c-30 -48 -59 -95 -88 -143c-22 -35 -43 -71 -61 -106c-36 -68 -55 -125 -55 -151
c0 -2 1 -11 4 -20c1 -2 4 -9 4 -15c0 -8 -5 -14 -20 -27c-30 -27 -63 -36 -73 -36c-4 0 -21 3 -27 20c-2 6 -2 9 -2 14c0 13 1 30 9 58c8 30 31 88 74 163c20 34 42 68 63 102c28 47 57 93 87 140c-23 -1 -46 -2 -70 -4c-23 -2 -46 -4 -69 -4c-21 0 -42 2 -49 4
c-11 3 -18 13 -18 23c0 9 2 14 20 26c53 36 125 40 245 48c7 11 15 22 22 33c12 19 24 38 37 57c9 14 19 27 28 41s19 28 29 42c8 10 15 19 23 29c5 7 10 14 16 21c7 9 14 17 20 24c10 13 18 22 27 22c3 0 6 -1 8 -2c10 -7 10 -14 10 -22s-1 -16 -5 -32
c-12 -47 -47 -87 -80 -135c-17 -24 -33 -48 -48 -72z" />
    <glyph glyph-name="periodcentered" unicode="&#xb7;" horiz-adv-x="187" 
d="M208 286c0 -5 0 -13 -5 -23c-6 -14 -24 -41 -61 -41c-10 0 -39 2 -58 31c-9 16 -10 31 -10 36c0 37 30 70 68 70c40 0 68 -35 66 -73z" />
    <glyph glyph-name="bullet" unicode="&#x2022;" horiz-adv-x="333" 
d="M344 353c0 -75 -54 -130 -129 -130c-10 0 -30 1 -54 11c-51 22 -77 71 -77 119c0 7 1 28 9 48c12 29 49 82 123 82c8 0 25 -1 45 -8c76 -28 83 -100 83 -122z" />
    <glyph glyph-name="quotesinglbase" unicode="&#x201a;" horiz-adv-x="250" 
d="M68 1c-5 -1 -20 -5 -36 5c-7 5 -18 18 -18 36c0 10 7 33 32 58c9 8 15 15 25 22c7 6 14 9 20 13s11 8 17 11c8 4 34 16 58 16c22 0 40 -10 40 -35c0 -9 -2 -23 -14 -43c-15 -28 -75 -108 -160 -151c0 0 -33 -17 -50 -17c-2 0 -14 1 -14 13c0 8 7 10 13 13
c50 27 57 33 87 59z" />
    <glyph glyph-name="quotedblbase" unicode="&#x201e;" horiz-adv-x="437" 
d="M-15 -57l33 18c17 11 34 24 51 39c-16 -2 -31 -3 -45 15c-9 12 -9 20 -9 25c0 19 14 45 52 77c27 23 73 45 100 45c32 0 41 -20 41 -34c-1 -38 -46 -94 -84 -130c-59 -56 -119 -82 -139 -82c-12 0 -16 6 -16 12c1 8 5 9 16 15zM257 0c-6 -1 -11 -2 -17 -1
c-21 2 -37 21 -37 41c0 5 0 8 3 17c4 9 14 25 30 42c30 32 81 63 120 63c7 0 40 -3 40 -36c0 -18 -11 -46 -48 -90c-18 -22 -67 -76 -133 -108c-16 -7 -28 -12 -44 -12c-6 0 -14 3 -14 11c0 11 14 14 22 18s15 9 23 14c18 11 26 15 55 41z" />
    <glyph glyph-name="quotedblright" unicode="&#x201d;" horiz-adv-x="437" 
d="M230 554c-4 0 -29 -7 -45 15c-5 6 -9 13 -9 26c0 14 7 34 38 64c13 12 66 56 113 57c3 0 24 1 35 -15c3 -4 6 -11 6 -21c0 -20 -12 -49 -52 -95c-22 -25 -59 -65 -117 -96c-27 -14 -40 -19 -54 -19c-3 0 -15 0 -15 13c0 7 4 9 15 14c5 2 10 5 15 7c13 8 37 20 70 50z
M418 553c-5 0 -30 -7 -46 16c-4 5 -8 14 -8 25c0 24 20 44 26 52c5 5 9 10 16 15c9 9 65 54 110 54c9 0 40 -2 40 -36c0 -22 -14 -53 -60 -104c-13 -14 -24 -26 -39 -39s-25 -20 -40 -30c-39 -26 -68 -37 -84 -37c-3 0 -15 0 -15 13c0 9 9 11 23 17c7 4 13 8 20 13
c20 11 25 13 57 41z" />
    <glyph glyph-name="ellipsis" unicode="&#x2026;" horiz-adv-x="1000" 
d="M937 51c0 -31 -24 -57 -56 -57c-33 0 -57 26 -57 57c0 33 28 56 58 56c31 0 55 -24 55 -56zM604 51c0 -4 -1 -14 -5 -25c-9 -20 -30 -32 -51 -32c-32 0 -57 24 -57 57c0 32 26 56 58 56c30 0 54 -24 55 -56zM270 51c0 -9 -3 -37 -29 -50c-8 -4 -18 -7 -27 -7
c-32 0 -57 26 -57 57c0 33 26 56 59 56c30 0 55 -25 54 -56z" />
    <glyph glyph-name="questiondown" unicode="&#xbf;" horiz-adv-x="375" 
d="M326 686c6 -3 11 -6 17 -10c18 -13 40 -37 40 -59c0 -7 0 -7 -2 -12c-2 -9 -13 -45 -44 -75c0 -1 -12 -14 -20 -13c-4 0 -6 2 -12 7c-20 13 -34 32 -34 54c0 33 30 78 35 84c6 8 13 16 20 24zM249 516c15 0 28 -17 31 -21c4 -6 15 -28 15 -49c-1 -58 -51 -105 -72 -125
c-43 -40 -90 -68 -134 -108c-28 -24 -44 -42 -44 -69c0 -31 23 -43 37 -46c6 -2 15 -3 30 -3c17 0 60 2 109 15c3 1 16 5 29 10c8 4 9 7 9 10c-1 8 -4 6 -12 10c-6 2 -11 4 -16 6c-1 1 -13 5 -13 14c0 8 4 7 7 7c13 0 23 -6 35 -8c12 -3 24 -3 36 -3c4 0 8 0 12 -1
c6 -1 16 -6 20 -12c3 -5 2 -10 2 -13c0 -12 0 -42 -34 -76c-7 -7 -16 -16 -32 -26c-23 -13 -83 -34 -150 -34c-11 0 -46 -3 -81 22c-13 9 -21 19 -25 25c-12 19 -11 50 -11 52c0 16 3 46 19 86c27 65 63 109 164 220c24 26 38 42 44 56c7 15 2 21 2 36c0 13 9 25 23 25z" />
    <glyph glyph-name="grave" unicode="`" horiz-adv-x="271" 
d="M150 453l-12 6c-34 15 -67 30 -100 46c-7 3 -14 7 -21 11c-10 4 -12 5 -16 9c-13 9 -15 25 -15 29c1 9 9 9 12 10c9 1 17 1 26 2c21 1 48 -1 53 -1c30 -5 47 -32 53 -39c5 -7 11 -15 16 -22c4 -7 8 -13 13 -20c10 -14 21 -27 21 -35c0 -3 -3 -4 -8 -4c-7 0 -11 3 -22 8z
" />
    <glyph glyph-name="acute" unicode="&#xb4;" horiz-adv-x="271" 
d="M255 563c17 1 33 1 51 -1c12 -1 22 1 22 -13c0 -12 -6 -21 -10 -24c-5 -5 -11 -7 -12 -8c-26 -14 -51 -23 -76 -33c-17 -6 -33 -12 -50 -18c-15 -6 -31 -11 -45 -16c-12 -4 -18 -7 -25 -7c-2 0 -6 0 -6 4c1 1 1 4 3 7c4 6 39 39 40 39c14 13 55 55 73 64c14 6 31 6 35 6z
" />
    <glyph glyph-name="circumflex" unicode="&#x2c6;" horiz-adv-x="271" 
d="M42 452l16 16c4 4 8 8 12 11c3 4 6 7 10 10c20 19 38 33 60 52c18 16 37 35 58 35c4 0 10 0 19 -8c7 -7 13 -19 23 -37c22 -40 27 -48 46 -67c-17 -7 -34 -14 -50 -22c-14 -8 -21 -13 -28 -13c-3 0 -5 2 -7 3c-7 9 -17 35 -33 60c-7 12 -8 14 -15 14c-8 0 -18 -7 -35 -21
c-38 -33 -62 -57 -80 -57c-4 0 -10 3 -10 7c0 3 9 12 14 17z" />
    <glyph glyph-name="tilde" unicode="&#x2dc;" horiz-adv-x="271" 
d="M306 549c-3 -13 -7 -18 -15 -31c-37 -59 -90 -58 -101 -58c-6 0 -11 1 -16 1c-9 1 -18 3 -27 4c-17 3 -34 6 -52 8c-12 2 -24 3 -36 3c-23 0 -33 -4 -44 -9c8 27 20 43 31 53c2 2 7 7 14 11c31 20 51 20 65 20c20 0 40 -4 60 -7c21 -3 42 -7 63 -7c13 0 30 0 58 12z" />
    <glyph glyph-name="dieresis" unicode="&#xa8;" horiz-adv-x="271" 
d="M290 568c11 0 34 -7 34 -37c0 -6 -5 -43 -33 -72c-4 -5 -20 -21 -38 -21c-3 0 -10 0 -18 6c-11 7 -15 17 -15 38c0 12 3 23 5 27c2 5 26 61 65 59zM107 565c3 1 8 1 14 -1c7 -2 24 -13 24 -32c0 -6 -5 -51 -41 -80c-5 -4 -20 -15 -34 -15c-5 0 -10 2 -11 3
c-10 5 -21 14 -21 35c0 7 0 19 8 35c2 6 25 53 61 55z" />
    <glyph glyph-name="cedilla" unicode="&#xb8;" horiz-adv-x="271" 
d="M-43 -185c-23 10 -29 22 -29 34c0 11 8 33 36 57c7 6 42 34 72 34c8 0 24 -5 24 -24c0 -7 -3 -18 -10 -34c-7 -14 -39 -70 -95 -106c-1 0 -19 -11 -29 -11c-4 0 -10 4 -9 9c0 4 7 7 12 11c14 12 24 25 28 30z" />
    <glyph glyph-name="caron" unicode="&#x2c7;" horiz-adv-x="271" 
d="M59 540c15 6 30 13 45 21c14 7 23 14 30 14c5 -1 7 -3 8 -5c6 -7 15 -27 26 -48c2 -4 4 -8 7 -12c1 -2 8 -12 17 -12c1 0 3 0 6 1c9 5 34 27 41 33c8 7 17 14 25 20c19 16 32 23 41 23c3 0 10 -2 10 -7c0 -3 -3 -5 -10 -12c-8 -9 -17 -17 -25 -25c-8 -7 -15 -15 -24 -22
c-8 -8 -18 -16 -26 -23c-11 -9 -20 -18 -31 -27c-17 -14 -36 -31 -53 -31c-23 0 -28 18 -39 37c-29 50 -17 38 -48 75z" />
    <glyph glyph-name="emdash" unicode="&#x2014;" horiz-adv-x="500" 
d="M547 252h-500v81h500v-81z" />
    <glyph glyph-name="AE" unicode="&#xc6;" horiz-adv-x="1167" 
d="M391 230l-120 -2c-29 -36 -61 -74 -92 -111c-18 -22 -35 -44 -54 -65c-15 -18 -30 -35 -47 -51c-12 -13 -47 -48 -85 -48c-16 1 -32 13 -32 30c0 10 4 17 8 26c20 37 80 112 120 131c11 5 23 5 26 6c15 16 25 27 37 40c12 12 25 27 37 40c-26 0 -52 -1 -79 0
c-10 1 -21 2 -32 2c-21 2 -36 6 -36 20c0 4 2 11 7 21c22 39 73 80 81 85c22 14 54 14 77 16c7 1 17 3 26 3h3c3 -1 5 -2 5 -5c0 -4 -4 -5 -6 -6c-4 -2 -19 -7 -23 -8c-10 -3 -21 -6 -30 -8c-7 -2 -21 -6 -21 -8h3c23 0 46 2 68 5c17 1 34 3 51 5c12 13 20 21 32 33
c6 6 10 12 16 17l11 11c10 10 19 20 27 28c4 5 7 7 11 11c5 4 10 11 16 16l13 13c10 9 18 18 28 28c5 5 10 9 15 13c10 9 20 19 30 28c17 16 37 34 56 50c16 13 32 27 47 39c8 6 17 13 26 20c3 3 42 39 68 39c13 0 24 -11 26 -15c2 -3 7 -13 7 -24c0 -9 -3 -18 -4 -20
c-7 -27 -16 -43 -31 -69c-8 -16 -17 -32 -26 -48c-28 -50 -58 -101 -88 -151l89 -4c-12 -20 -25 -39 -38 -59c-6 -8 -11 -15 -17 -23c-3 -4 -22 -32 -28 -36s-20 -3 -37 -4c-9 -1 -18 -1 -27 -2c-10 -21 -21 -42 -31 -63c-7 -14 -13 -29 -19 -42c-4 -9 -6 -14 -6 -19
c0 -2 0 -9 6 -9c12 0 58 25 99 52c23 16 30 21 42 33c23 28 17 23 35 40c35 33 67 60 140 90c91 37 165 45 199 50c-60 4 -119 8 -178 21c-45 10 -75 22 -92 37c-14 13 -26 34 -26 68c0 17 2 38 24 74c4 7 12 20 25 34c19 21 51 53 106 81c93 48 198 50 221 50
c24 0 48 -1 71 -5c21 -3 35 -9 43 -17c6 -7 7 -15 7 -22c0 -9 -1 -19 0 -28c1 -7 5 -15 5 -22c0 -29 -27 -44 -36 -50c-29 -18 -57 -28 -85 -41c-11 -5 -22 -12 -33 -19c-4 -2 -9 -5 -13 -7c-11 -8 -17 -16 -23 -15c-7 0 -9 7 -9 8c1 3 3 7 7 13c13 20 23 29 33 38
c12 11 15 15 37 29c-6 0 -153 5 -239 -67c-27 -22 -35 -41 -35 -52c0 -15 22 -24 47 -30c30 -8 69 -13 135 -13c17 -1 33 -1 50 -2c21 -2 31 -3 66 -15c9 -3 14 -4 14 -13c0 -6 -1 -7 -6 -15c-11 -24 -23 -42 -35 -51c-19 -14 -98 -30 -116 -34c-22 -5 -92 -19 -162 -58
c-6 -3 -51 -27 -77 -64c-8 -13 -20 -36 -19 -48c0 -11 5 -18 25 -25c12 -4 44 -11 79 -11c30 0 76 2 145 27c19 8 38 16 57 26s38 22 57 35c17 11 34 23 50 36c4 4 10 9 14 9c1 0 6 -1 8 -7c1 -2 3 -27 3 -29c0 -10 1 -58 -34 -97c-9 -9 -21 -20 -41 -35
c-32 -24 -58 -37 -71 -43c-63 -30 -152 -53 -216 -53c-10 0 -20 1 -30 2c-5 0 -51 6 -80 16c-21 8 -35 11 -43 19c-9 10 -18 32 -21 40c-11 27 -14 39 -17 66c-14 -13 -88 -82 -148 -108c-12 -5 -25 -8 -38 -8c-12 0 -58 6 -58 56c0 8 1 14 5 29c4 17 22 65 50 117
c6 11 12 22 18 32zM367 358l100 8c21 39 44 79 68 118c11 18 21 36 33 53c13 21 29 42 44 63c-19 -17 -37 -35 -57 -53c-22 -21 -44 -41 -65 -62c-41 -40 -81 -82 -123 -127z" />
    <glyph glyph-name="Oslash" unicode="&#xd8;" 
d="M522 771c12 3 24 7 35 7c5 0 15 -1 26 -7c20 -10 47 -40 57 -53c6 -9 21 -30 21 -39c0 -2 0 -5 -4 -8c-4 -2 -40 -12 -64 -20c-19 -7 -38 -14 -76 -36c21 4 43 9 65 12c7 0 14 1 22 1c43 0 59 -25 69 -47c7 -17 14 -38 14 -76c0 -18 -1 -54 -12 -99
c-20 -80 -70 -184 -138 -265c-8 -10 -15 -17 -25 -27c-61 -61 -110 -83 -133 -94c-12 -6 -25 -12 -38 -17c-12 -5 -24 -8 -36 -12c-12 -47 -23 -93 -33 -139c0 -2 -3 -15 -3 -16c-4 -8 -9 -9 -11 -9c-7 0 -13 11 -20 23c-2 4 -24 45 -24 72c0 11 8 31 16 59
c-42 3 -66 13 -103 51c-16 17 -41 44 -58 90c-4 13 -18 60 -18 105c0 17 2 34 4 51c5 35 16 90 66 171c30 50 51 74 69 95c7 7 13 14 20 21c9 10 18 17 25 25c25 24 67 62 134 105c12 8 24 16 36 23c14 8 28 16 42 23c9 29 18 56 29 85c3 8 10 27 34 43c14 9 34 11 36 11
c7 0 10 -5 10 -8c0 -1 -3 -10 -4 -11c-9 -31 -20 -60 -30 -90zM464 548l-126 -441c39 26 53 37 90 76c19 20 34 39 50 60c24 31 119 160 119 276c0 25 -7 42 -18 51c-4 4 -14 6 -25 6c-30 0 -61 -14 -90 -28zM257 68l123 421c-67 -67 -73 -81 -95 -121c-1 -1 -4 -9 -8 -10
c-3 1 -5 3 -6 3c-3 5 -3 10 -3 24c0 6 0 14 2 25c-27 -39 -83 -119 -101 -223c-4 -19 -6 -38 -6 -57c0 0 -3 -40 22 -58c3 -2 7 -5 14 -7c3 -1 14 -4 24 -4c14 0 30 6 34 7z" />
    <glyph glyph-name="OE" unicode="&#x152;" horiz-adv-x="1188" 
d="M1118 632c-19 0 -37 0 -56 -2c-14 -1 -106 -8 -176 -33c-11 -4 -48 -18 -83 -41c-9 -5 -50 -29 -50 -63c0 -13 18 -16 26 -19s16 -6 25 -7c15 -4 31 -6 47 -8c53 -5 106 0 159 0c48 0 64 0 88 -7c7 -2 14 -3 20 -6c5 -2 10 -8 10 -14c0 -5 -4 -12 -7 -16
c-11 -23 -20 -34 -43 -55c-4 -2 -10 -4 -16 -5c-7 -1 -13 -2 -20 -3c-9 -1 -17 -2 -26 -4c-35 -6 -69 -14 -104 -24c-29 -8 -57 -17 -86 -29c-24 -9 -48 -22 -73 -36c-53 -32 -80 -68 -90 -91c-2 -6 -5 -12 -5 -18c0 -4 2 -9 6 -12c7 -7 13 -8 27 -12c18 -6 45 -12 87 -12
c47 0 152 8 279 86c19 12 40 26 57 39c5 4 10 8 15 13c4 3 12 10 16 10c3 -1 8 -5 9 -9c0 -1 1 -21 1 -33c0 -67 -38 -106 -72 -133c-14 -11 -35 -27 -67 -43c-39 -20 -148 -65 -266 -65c-19 0 -57 1 -107 15c-30 8 -44 12 -56 25c-28 28 -37 79 -43 108
c-18 -18 -36 -36 -55 -50c-83 -66 -180 -90 -201 -94c-18 -3 -37 -5 -55 -5c-13 0 -26 1 -39 4c-19 5 -43 14 -73 49c-67 77 -69 155 -69 180c0 46 12 155 115 282c15 18 59 67 114 111c6 4 12 8 17 12c20 15 40 30 61 43c26 17 51 31 77 44c76 39 125 48 159 48
c24 0 33 -7 66 -46c19 -22 31 -42 31 -54c0 -3 -1 -6 -2 -8c-6 -10 -16 -8 -24 -9c-7 -1 -14 -2 -20 -3c-43 -9 -73 -21 -91 -32c-7 -4 -14 -9 -21 -15c45 15 61 17 86 17c27 0 41 -7 55 -12c16 24 35 45 53 63c20 20 34 31 73 54c25 14 49 26 74 34c88 31 211 32 227 32
c54 0 78 -5 105 -13c3 0 12 -2 20 -10c7 -8 8 -20 8 -29c0 -8 -1 -16 0 -24c1 -9 2 -18 2 -27c0 -18 -7 -25 -17 -33c-30 -23 -54 -27 -110 -57c-11 -6 -23 -11 -35 -20c-14 -9 -20 -18 -27 -17c-5 0 -9 5 -9 10s3 10 11 21c22 26 40 39 68 58zM288 402
c-15 -17 -28 -34 -40 -50c-15 -21 -87 -127 -87 -217c0 -19 3 -55 27 -68c10 -6 28 -6 29 -6c40 0 102 16 192 92c19 16 36 31 55 50c14 14 45 48 76 94c11 18 79 125 79 207c0 8 0 16 -2 24c-3 8 -11 18 -18 21c-5 2 -16 4 -29 4c-29 0 -95 -12 -175 -76
c-31 -25 -52 -51 -60 -61c-9 -10 -17 -20 -24 -29c-9 -13 -20 -34 -25 -33s-8 10 -8 15c0 7 3 17 10 33zM703 426c-7 -25 -13 -50 -22 -75c-9 -23 -20 -46 -31 -70c11 8 23 16 34 23c94 58 185 76 278 93c-66 -2 -132 -1 -197 13c-21 4 -42 10 -62 16z" />
    <glyph glyph-name="ae" unicode="&#xe6;" horiz-adv-x="688" 
d="M686 154l14 14l-3 -49c-77 -85 -108 -107 -154 -125c-12 -5 -33 -13 -61 -13c-9 0 -20 0 -38 5c-2 1 -20 5 -36 21c-13 14 -21 32 -22 34c-18 -16 -63 -60 -114 -60c-3 0 -14 0 -23 4c-18 8 -26 33 -26 49c0 40 24 84 29 94c-28 -24 -56 -49 -84 -73
c-16 -14 -32 -28 -48 -39c-17 -13 -27 -16 -35 -16c-24 1 -51 32 -52 34c-17 21 -32 49 -32 95c0 34 13 78 91 140c19 16 153 115 254 115c8 0 37 2 51 -33c3 -8 6 -15 6 -18s-1 -3 -3 -5c-6 -5 -28 -15 -34 -18c5 -11 11 -21 15 -32c4 -8 7 -17 10 -27
c-44 -63 -76 -110 -76 -136c0 -21 16 -28 25 -28c6 0 27 8 33 11c-1 12 -2 23 -2 35c0 8 0 20 6 39c11 33 55 93 82 122c12 13 17 17 30 27c12 9 23 18 33 24c31 19 68 32 99 32c10 0 37 -3 47 -7c7 -3 13 -7 18 -12c9 -9 10 -26 10 -30c0 -38 -40 -85 -79 -115
c-36 -28 -72 -46 -146 -77c-1 -16 1 -22 4 -31c10 -34 39 -39 50 -39c35 0 83 30 89 34c17 11 34 24 50 37c7 6 16 12 22 17zM474 178c43 24 63 40 84 57c25 21 41 35 53 61c3 7 6 12 6 16c0 2 -2 3 -4 3c0 0 -12 -2 -17 -4c-21 -5 -40 -16 -59 -33
c-33 -31 -50 -68 -63 -100zM230 179l18 18c14 15 26 29 37 43c5 6 9 11 14 17c7 9 15 19 21 29c-32 -12 -64 -25 -96 -40c-14 -6 -29 -12 -43 -19c-13 -6 -25 -13 -38 -21c-3 -1 -22 -12 -35 -24c-39 -40 -29 -95 -29 -102c14 3 27 7 40 14c33 15 77 48 111 85z" />
    <glyph glyph-name="dotlessi" unicode="&#x131;" horiz-adv-x="229" 
d="M232 157l6 6c3 5 6 8 11 13c5 6 9 11 13 17l-4 -64c-15 -19 -31 -38 -48 -55c-8 -9 -72 -79 -121 -79c-28 0 -55 21 -71 53c-23 49 -16 106 -15 119c4 15 9 29 16 44c20 40 57 86 65 95c7 8 12 16 20 23c31 30 55 31 68 31c11 0 21 -1 30 -9c5 -5 6 -10 6 -16
c0 -7 -2 -18 -9 -33c-10 -20 -23 -45 -64 -86l-22 -22l-15 -12c-7 -15 -15 -32 -15 -48c0 -5 0 -24 20 -36c12 -7 20 -7 24 -7c13 0 32 6 60 26c7 4 13 9 18 13c7 6 13 13 20 20c2 2 5 4 7 7z" />
    <glyph glyph-name="oslash" unicode="&#xf8;" horiz-adv-x="333" 
d="M348 167l-6 -53c-8 -8 -16 -15 -24 -20c-7 -6 -38 -24 -67 -27c-8 -2 -16 -1 -24 -2c-5 -6 -10 -12 -15 -17c-10 -10 -34 -33 -63 -45c-10 -4 -20 -7 -30 -9c-4 -13 -9 -25 -12 -37c-3 -9 -5 -18 -7 -27c-3 -9 -6 -19 -8 -28c0 -3 -2 -20 -9 -20c-2 0 -2 1 -4 1
c-3 3 -16 18 -17 20c-18 24 -23 45 -23 54c0 13 9 22 20 45c-47 33 -55 64 -58 105c-1 12 -2 24 -2 35c0 42 14 71 46 109c12 15 51 60 104 90c21 12 37 17 54 22c7 18 14 36 22 54c6 16 11 29 15 35c9 14 21 20 34 23c4 1 10 2 18 2c10 0 12 -8 12 -12c0 -1 -1 -5 -1 -6
c-3 -8 -7 -15 -10 -23c-10 -25 -20 -51 -30 -77c17 -12 28 -21 28 -30c0 -6 -6 -10 -16 -17c4 -2 10 -4 16 -8c13 -8 19 -22 19 -48c0 -11 -2 -22 -4 -33c-6 -27 -11 -43 -37 -93c1 -1 8 -3 14 -3s10 1 22 8c18 9 17 10 43 32zM233 285l-82 -207c7 3 11 5 14 8
c9 6 33 30 50 63c22 43 25 89 25 102c0 10 1 16 -7 34zM90 71l64 164c-22 -15 -49 -35 -64 -57c-5 -8 -9 -18 -13 -31c-3 -8 -6 -15 -6 -33c0 -6 1 -12 1 -17s-1 -22 18 -26z" />
    <glyph glyph-name="oe" unicode="&#x153;" horiz-adv-x="625" 
d="M641 169l-3 -51c-40 -44 -54 -57 -77 -76c-43 -34 -61 -41 -83 -49c-28 -10 -46 -12 -58 -12c-6 0 -37 1 -62 18c-4 4 -12 10 -20 22c-12 17 -17 31 -23 66c-28 -16 -39 -25 -88 -24c-6 -6 -11 -12 -18 -18c-13 -12 -62 -51 -107 -51c-10 0 -36 3 -60 25
c-3 1 -12 10 -19 20c-19 27 -22 50 -22 102c0 22 -1 62 47 114l15 15c3 3 7 6 11 10c6 5 13 12 20 18c21 17 70 48 91 57s45 11 51 11c8 0 26 -2 48 -18c0 -1 15 -12 15 -21c0 -6 -7 -12 -19 -18c35 -8 36 -41 36 -50c0 -10 -1 -19 -3 -29c-7 -40 -22 -67 -43 -105
c13 -3 18 -5 41 7c0 9 0 18 2 27c3 17 16 49 50 93c37 48 63 68 91 87c11 7 23 14 35 20c14 6 27 12 56 17c8 1 15 2 23 2c7 0 14 -1 21 -2c14 -2 44 -8 44 -46c0 -19 -11 -57 -61 -100c-41 -37 -79 -57 -162 -94c0 -8 0 -16 2 -23c1 -8 13 -46 50 -46c27 0 77 17 141 69
c13 11 25 21 38 33zM551 316c-2 0 -7 -2 -16 -5c-18 -5 -47 -16 -80 -56c-5 -6 -15 -18 -24 -35c-6 -9 -8 -17 -13 -29c-1 -2 -2 -5 -1 -6c2 0 7 4 10 5c10 6 58 32 92 69c5 4 21 25 26 34c6 11 11 21 6 23zM216 269c-13 -7 -47 -25 -84 -56c-6 -5 -12 -11 -17 -17
c-4 -4 -15 -15 -23 -28c-5 -9 -11 -34 -13 -43c-1 -6 -1 -12 -2 -18c0 -5 -1 -10 -1 -15c0 -13 14 -18 36 -18c33 0 55 20 68 32c-2 11 -3 22 -3 33c0 12 3 51 19 89c5 14 14 29 20 41z" />
    <glyph glyph-name="germandbls" unicode="&#xdf;" horiz-adv-x="396" 
d="M396 156l21 15l-1 -47c-130 -94 -189 -135 -254 -135c-19 0 -42 5 -60 22c-3 2 -12 12 -15 22c-3 8 -3 15 -3 18c0 17 4 46 35 87c6 7 22 27 31 29c2 0 11 -1 11 -9c0 -5 -7 -11 -12 -16c-5 -6 -11 -17 -11 -24c0 -12 22 -21 43 -21c6 0 17 0 32 7c22 9 47 32 47 54
c0 14 -9 29 -25 58c-4 9 -30 52 -30 88c0 28 13 45 26 57c5 5 15 14 31 25c7 4 13 8 21 13c11 9 35 33 36 34c40 42 71 102 77 118c3 7 8 22 8 40c0 7 -2 35 -30 35c-16 0 -30 -12 -46 -27c-54 -51 -101 -138 -131 -194c-35 -64 -65 -129 -94 -193
c-23 -54 -45 -108 -68 -162c-16 -39 -32 -77 -49 -116c-26 -63 -38 -86 -61 -119c-16 -22 -32 -43 -55 -43c-8 0 -12 2 -16 5c-13 8 -16 21 -16 34c0 23 15 62 16 64c5 13 11 27 17 40c5 12 11 23 17 35c7 12 14 29 28 41c6 5 9 6 19 10c14 35 28 70 44 106
c17 40 36 80 55 121c24 52 48 104 76 156c11 22 24 43 37 65c7 11 14 23 22 35c19 29 40 57 63 83c11 14 21 25 35 38c12 11 65 63 114 63c11 0 21 -3 25 -5c8 -4 23 -17 34 -33c10 -16 24 -51 24 -93c0 -55 -21 -94 -34 -116c-15 -26 -21 -36 -48 -43
c-17 -5 -35 -4 -52 -10c-25 -9 -47 -31 -47 -56c0 -22 16 -44 42 -79c18 -23 36 -47 36 -75c0 -9 -2 -17 -3 -26c13 7 25 15 38 24z" />
    <glyph glyph-name="Grave" unicode="&#xf6ce;" horiz-adv-x="271" 
d="M222 917c14 0 29 -1 43 0c11 0 18 1 29 -3c19 -6 35 -29 55 -56c8 -11 16 -21 24 -32s16 -23 24 -34c6 -9 11 -13 12 -19c-1 -2 -3 -4 -7 -4c0 0 -3 1 -4 1c-6 3 -13 7 -19 10c-17 7 -33 14 -50 21c-11 6 -23 12 -35 17c-14 7 -29 13 -44 20c-8 4 -17 9 -25 13
s-26 12 -32 17c-5 4 -16 16 -16 30c1 19 14 18 27 18c6 0 12 1 18 1z" />
    <glyph glyph-name="Acute" unicode="&#xf6c9;" horiz-adv-x="271" 
d="M527 919c20 1 38 0 57 0c7 0 21 0 21 -19c0 -26 -27 -37 -47 -45c-6 -3 -12 -5 -17 -7c-22 -9 -43 -18 -64 -26c-31 -11 -61 -23 -92 -34c-7 -3 -14 -5 -21 -8c-7 -2 -12 -4 -14 -4s-6 0 -6 4c0 2 2 5 4 8s50 52 79 79c4 4 10 9 14 13c10 9 31 31 43 36c9 4 22 3 43 3z
" />
    <glyph glyph-name="Circumflex" horiz-adv-x="271" 
d="M441 801c-34 -18 -63 -34 -75 -34c-4 0 -8 0 -13 7c-7 8 -19 36 -35 63c-5 9 -10 18 -14 22c-1 0 -3 2 -7 2c-8 0 -15 -9 -32 -22c-19 -16 -39 -33 -58 -48c-19 -16 -29 -25 -39 -25c-7 0 -10 5 -10 7c0 1 0 3 1 4c4 5 31 27 36 31c22 19 47 42 73 64c10 9 18 17 27 25
c15 13 36 31 53 31c4 0 9 0 16 -5c11 -8 13 -14 23 -31c7 -12 14 -23 21 -35c6 -11 12 -23 18 -34c5 -8 10 -15 15 -22z" />
    <glyph glyph-name="Tilde" horiz-adv-x="271" 
d="M553 900c-3 -10 -4 -19 -16 -40c-33 -59 -98 -79 -140 -79c-13 0 -31 2 -60 9c-8 2 -15 5 -23 7c-7 2 -13 3 -20 4c-22 6 -28 8 -50 8c-38 0 -53 -9 -73 -21c3 10 7 21 13 31c44 80 119 80 135 80c33 0 52 -7 85 -15c32 -8 48 -9 64 -9c33 0 51 9 85 25z" />
    <glyph glyph-name="Dieresis" unicode="&#xf6cb;" horiz-adv-x="271" 
d="M445 873c9 1 14 -1 18 -3c10 -5 21 -16 21 -37c-1 -32 -32 -102 -80 -102c-21 0 -36 18 -36 38c0 10 4 44 33 77c17 20 33 26 44 27zM149 872c4 1 13 2 23 -5c18 -11 17 -35 17 -37c0 -1 -1 -10 -2 -16c-2 -6 -11 -37 -32 -61c-10 -10 -23 -22 -45 -22c-9 0 -37 4 -37 37
c0 19 6 37 18 56c4 8 27 44 58 48z" />
    <glyph glyph-name="Caron" unicode="&#xf6ca;" horiz-adv-x="271" 
d="M266 892c4 3 9 6 14 9c11 6 23 11 34 17c7 4 18 9 26 9c14 0 20 -19 27 -32c4 -7 8 -13 12 -20c5 -10 9 -20 15 -28c7 -10 9 -14 15 -14c8 0 12 7 26 19c10 7 18 14 27 21c7 6 14 13 22 19c4 4 9 8 14 12c18 15 31 25 39 25s10 -6 10 -7c0 -2 0 -4 -3 -7
c-6 -6 -12 -10 -18 -15c-11 -9 -22 -19 -33 -29c-26 -23 -52 -46 -77 -70c-29 -26 -42 -35 -58 -35c-3 0 -12 1 -20 8c-13 12 -49 81 -58 95c-4 8 -9 15 -14 23z" />
    <glyph glyph-name="Adieresis" unicode="&#xc4;" horiz-adv-x="708" 
d="M591 870c3 0 8 1 14 -1c13 -4 25 -16 25 -40c0 -8 -1 -20 -9 -38c-13 -29 -39 -63 -71 -63c-6 1 -10 2 -13 3c-8 3 -23 13 -23 33c0 7 1 20 7 37c2 4 28 64 70 69zM885 865c23 3 40 -16 40 -39c0 -10 -5 -41 -29 -71c-2 -3 -12 -16 -22 -22c-14 -9 -25 -9 -30 -9
c-6 0 -8 1 -11 2c-10 3 -24 14 -24 35c0 5 1 18 6 32c10 27 36 69 70 72zM616 369l104 -1c-26 -36 -51 -72 -76 -108c-1 0 -6 -10 -11 -14c-4 -2 -5 -3 -13 -3c-10 0 -19 -1 -29 -2c-11 -1 -23 -1 -35 -2c-7 -14 -15 -27 -21 -42c-6 -11 -11 -23 -17 -34
c-11 -24 -18 -36 -18 -48c0 -8 4 -8 8 -8c6 0 18 5 34 14c54 29 80 49 108 74l21 -25c-15 -14 -29 -28 -44 -42c-13 -13 -26 -26 -40 -38c-17 -16 -34 -30 -52 -43c-51 -40 -77 -51 -103 -51c-7 0 -27 -1 -44 18c-19 21 -17 39 -17 46c0 40 20 87 69 170l-197 -2
c-19 -20 -38 -39 -56 -60c-12 -14 -23 -27 -35 -40c-29 -33 -57 -65 -88 -97c-35 -37 -77 -79 -116 -78c-1 0 -8 0 -13 2c-7 2 -22 12 -22 29c0 12 3 22 18 43c6 8 50 71 99 103c4 2 14 9 25 12c4 2 11 3 21 4c3 4 5 7 8 9l7 7c9 8 20 20 29 30c5 4 6 7 10 11
c9 9 17 17 28 29c-18 -1 -36 -1 -54 1c-18 1 -29 3 -36 10c-4 6 -5 10 -5 14s0 3 2 8c3 8 19 31 26 39c19 23 30 35 56 51c25 15 36 17 79 19c8 0 20 2 31 2c2 0 10 -1 10 -5c0 -9 -17 -11 -35 -16c-14 -4 -29 -8 -43 -12l88 3c20 20 35 34 55 53c13 12 25 24 38 36
c12 11 22 19 34 29c7 7 14 14 21 20s13 11 20 17c12 10 25 22 34 29c4 3 8 6 13 10c12 10 26 22 38 31c36 29 68 53 104 76c21 14 42 28 62 39c1 0 21 11 32 11c12 0 38 -14 38 -44c-1 -20 -8 -34 -28 -71c-11 -18 -22 -37 -32 -55c-30 -53 -60 -105 -90 -158zM505 480
l-45 -39c-10 -9 -21 -19 -32 -30c-18 -16 -36 -34 -54 -51l143 9c21 37 43 74 65 112c16 28 33 57 51 85l27 42c-13 -9 -25 -18 -38 -27c-14 -11 -27 -22 -40 -34c-12 -9 -24 -19 -36 -30c-13 -12 -27 -24 -41 -37z" />
    <glyph glyph-name="Aring" unicode="&#xc5;" horiz-adv-x="708" 
d="M792 908c18 1 42 1 82 -12c4 -1 25 -6 40 -21c8 -9 11 -16 16 -35c1 -5 3 -10 2 -14c0 -6 -5 -11 -10 -11c-2 0 -3 0 -4 1c-12 4 -24 8 -36 13c-9 4 -22 10 -28 9c0 -2 15 -9 21 -16c3 -3 7 -11 7 -20c0 -4 -1 -14 -15 -26c-17 -14 -54 -29 -103 -29c-5 0 -27 1 -46 6
c-25 7 -69 31 -69 67c0 7 2 22 16 39c24 29 65 47 127 49zM769 859c-37 -5 -54 -12 -73 -25c-14 -10 -15 -17 -15 -23c0 -28 41 -29 80 -29c40 0 98 11 98 30c0 7 -9 14 -10 14c-17 13 -34 18 -70 22c-2 0 -22 2 -22 4c0 1 7 4 8 4c4 2 4 2 4 3zM617 370l103 -2
c-12 -17 -24 -33 -35 -49c-6 -8 -11 -16 -17 -24c-8 -11 -16 -23 -23 -33c-3 -5 -6 -10 -10 -14c-7 -6 -13 -4 -29 -5s-33 -2 -49 -3c-17 -33 -35 -68 -50 -102c-3 -7 -6 -14 -6 -22c0 -3 0 -9 6 -9c9 0 17 5 33 13c32 17 54 27 110 75l21 -25c-6 -6 -11 -11 -17 -16
c-6 -6 -11 -11 -17 -18c-10 -9 -19 -17 -27 -25l-11 -11c-15 -15 -32 -28 -48 -41c-8 -6 -72 -63 -118 -63c-3 0 -16 0 -27 5c-33 15 -36 53 -36 60c0 8 3 25 10 47c11 33 24 59 61 123l-198 -3c-26 -27 -50 -54 -73 -80c-36 -41 -73 -82 -112 -123
c-34 -36 -73 -73 -109 -73c-16 0 -36 13 -36 33c0 8 2 16 10 30c14 24 41 54 45 59c29 33 59 55 74 63c18 8 26 9 34 10l82 85c-19 0 -39 0 -58 1c-11 1 -26 2 -33 12c-1 2 -4 5 -3 11c0 14 28 55 61 83c41 34 70 35 113 36c6 0 13 1 20 1c5 0 9 -2 9 -5c0 -1 0 -2 -2 -4
c-5 -7 -16 -8 -32 -11c-15 -4 -30 -8 -44 -13l88 3c28 27 51 48 80 76c15 13 28 26 41 38c22 19 47 42 71 62c9 7 19 15 28 23c8 6 14 11 21 17c6 5 13 10 19 15c11 9 22 17 33 25c18 14 34 25 52 38c15 10 29 19 44 28c30 19 48 29 61 29c5 0 11 0 21 -9
c8 -6 18 -16 18 -36c0 -19 -8 -33 -28 -69c-11 -18 -21 -36 -31 -54c-31 -53 -60 -106 -90 -159zM374 361l143 8c27 48 55 96 83 143c20 32 40 65 60 97c-27 -20 -55 -41 -83 -65c-24 -21 -48 -43 -73 -64c-21 -20 -43 -38 -65 -58c-21 -20 -43 -41 -65 -61z" />
    <glyph glyph-name="Ccedilla" unicode="&#xc7;" 
d="M295 563l30 24c24 20 50 38 77 56c19 12 39 25 59 36c7 4 83 48 144 48c32 0 93 -14 93 -97c0 -80 -52 -151 -64 -167c-14 -20 -28 -40 -44 -58c-4 -5 -74 -82 -124 -124c-17 -15 -35 -29 -54 -42c-30 -22 -43 -28 -63 -28c-26 0 -37 15 -44 22c-5 6 -11 11 -14 18
c-4 7 -3 13 -3 16c0 4 0 11 4 20c4 7 23 32 28 38c8 9 16 18 25 26c49 51 81 69 110 88l3 -19c10 8 19 15 28 24c5 4 10 10 14 15c8 8 16 16 23 25c23 29 62 86 77 119c7 15 10 27 10 34s-3 17 -19 17c-13 0 -29 -6 -31 -7c-17 -6 -49 -23 -63 -33c-14 -9 -58 -43 -98 -79
c-13 -13 -104 -98 -158 -174c-16 -21 -49 -67 -76 -132c-5 -14 -26 -62 -26 -113v-10c4 -86 56 -111 94 -111c36 0 99 21 130 35c37 17 94 49 171 109c16 13 33 26 49 39c14 12 28 25 42 37c-1 -38 -2 -52 -17 -66c-10 -10 -19 -20 -29 -29c-7 -7 -13 -14 -20 -21
c-8 -8 -17 -16 -25 -23c-19 -18 -37 -35 -57 -52c-24 -20 -110 -89 -211 -121c8 -5 12 -13 12 -23c0 -8 -3 -17 -9 -31c-10 -19 -38 -66 -88 -102c-15 -11 -30 -18 -37 -18c-4 0 -10 5 -9 9c0 5 5 7 12 12c11 9 20 19 28 30c-5 2 -29 10 -29 33c0 10 4 24 19 40
c18 21 37 33 45 38c-63 -7 -116 13 -136 24c-18 10 -34 26 -38 31c-18 21 -42 66 -42 135c0 46 9 77 23 119c6 17 13 35 21 52c28 61 75 122 86 136c22 29 58 70 118 127c17 17 35 32 53 48z" />
    <glyph glyph-name="Odieresis" unicode="&#xd6;" 
d="M415 880c15 1 38 -8 38 -41c0 -19 -9 -39 -20 -57c-7 -10 -27 -43 -60 -43c-30 0 -37 25 -37 36c0 7 0 17 6 32c2 5 27 69 73 73zM675 732h-5c-3 1 -16 1 -25 14c-5 7 -7 15 -7 21c0 16 5 32 13 48c13 26 35 55 64 58c27 2 40 -20 40 -41c0 -12 -3 -26 -17 -51
c-22 -41 -46 -49 -63 -49zM531 619c25 5 50 10 75 10c5 0 25 2 45 -12c14 -10 20 -22 25 -35c6 -17 13 -39 13 -76c0 -48 -8 -130 -71 -247c-6 -12 -28 -53 -57 -90c-37 -50 -80 -86 -97 -99c-66 -51 -161 -90 -227 -90c-22 0 -54 1 -96 40c-10 9 -28 29 -36 39
c-19 25 -34 60 -35 65c-7 19 -17 57 -17 107c0 38 5 109 60 203c10 17 20 34 32 51c44 61 91 105 113 126c8 7 14 12 21 17c4 4 8 8 13 12c4 4 8 7 11 9c9 7 17 14 26 21c8 6 18 13 27 19c11 8 118 89 196 89c6 0 12 -1 18 -2c13 -2 23 -5 44 -27c5 -6 12 -12 18 -19
c7 -8 31 -39 31 -51c0 -2 -1 -4 -2 -6c-6 -9 -14 -8 -22 -10c-8 -1 -16 -4 -24 -7c-6 -1 -12 -3 -19 -5c-34 -10 -49 -21 -65 -32zM429 183l18 18c13 16 24 31 37 49c13 17 26 35 38 53c17 27 76 125 76 218c0 3 0 12 -2 22c-1 5 -9 32 -33 32c-79 0 -152 -62 -178 -85
c-22 -19 -60 -53 -91 -108c-6 -12 -9 -24 -16 -24c-4 0 -8 5 -9 11s-1 18 0 32c-18 -27 -35 -54 -49 -80c-9 -17 -51 -109 -51 -182c0 -51 17 -77 51 -77c14 0 40 3 76 20c21 10 64 34 107 75c10 9 18 16 26 26z" />
    <glyph glyph-name="Udieresis" unicode="&#xdc;" horiz-adv-x="854" 
d="M679 896c15 1 38 -8 38 -42c0 -12 -3 -27 -18 -53c-16 -28 -28 -37 -44 -43c-4 -2 -9 -4 -19 -4c-3 0 -4 0 -11 2c-10 4 -24 14 -24 35c0 35 21 64 31 76s21 20 26 23c7 4 15 6 21 6zM913 898c4 0 16 2 27 -9c7 -5 13 -16 13 -32c0 -24 -19 -69 -47 -91
c-14 -9 -29 -10 -33 -10c-7 0 -14 1 -21 7c-6 5 -14 14 -14 30c0 33 31 99 75 105zM831 184l-2 -50c-12 -11 -25 -23 -37 -34c-22 -20 -84 -76 -150 -98c-6 -1 -24 -7 -42 -7c-45 0 -70 40 -70 81c0 48 22 92 47 140c7 16 15 31 24 46c25 46 56 91 86 137
c-13 -12 -26 -23 -39 -35c-38 -36 -72 -73 -106 -112c-9 -10 -18 -21 -28 -32c-13 -14 -29 -31 -40 -42c-6 -5 -15 -13 -22 -21c-10 -9 -19 -18 -28 -27c-9 -8 -16 -14 -24 -21c-25 -23 -52 -47 -79 -67c-30 -24 -46 -32 -60 -32c-5 0 -17 1 -30 8c-27 14 -42 40 -46 50
c-6 16 -6 39 -6 43c0 72 47 131 67 157c9 10 20 24 29 35c19 22 41 49 60 72c5 5 9 10 14 16s11 12 16 19c5 6 9 11 13 16c6 8 13 15 19 23c10 11 20 24 30 36c6 7 12 13 18 21c5 7 11 16 16 23c5 9 11 16 11 19c0 1 -1 1 -3 1s-14 -2 -20 -4c-24 -7 -53 -19 -102 -47
c-21 -11 -41 -23 -61 -35c-31 -17 -62 -33 -93 -45c-24 -9 -47 -19 -72 -19c-11 0 -24 5 -24 28c0 33 37 101 67 134c8 9 17 17 24 24c9 8 29 25 55 39c29 15 121 55 212 72c17 3 33 5 49 6c9 0 17 1 25 1c5 0 10 0 15 -1c3 0 19 3 34 -11c20 -18 20 -59 20 -59
c0 -14 -2 -33 -14 -62c-24 -59 -56 -91 -102 -148c-23 -29 -44 -59 -66 -88c-17 -22 -33 -43 -47 -65c-10 -14 -18 -27 -26 -41c-10 -17 -21 -33 -27 -49c-1 -5 -5 -11 -5 -16c0 -7 5 -9 8 -9c6 0 14 3 25 9c28 15 59 38 107 84c5 5 10 10 16 15c3 4 8 7 12 11
c15 14 29 28 46 45c10 9 20 18 29 28c17 17 33 34 50 51c14 15 28 29 42 43c38 41 74 78 114 120c9 9 18 19 27 28l13 13c20 21 30 35 39 41c7 5 11 4 14 4c6 0 17 -4 24 -19c4 -9 12 -35 12 -44c0 -19 -10 -35 -21 -52c-8 -13 -15 -24 -23 -36c-6 -10 -13 -19 -19 -29
c-9 -13 -17 -25 -25 -38c-13 -18 -25 -36 -37 -54c-18 -26 -35 -53 -50 -79c-13 -21 -25 -41 -36 -62c-4 -7 -38 -66 -38 -108c0 -3 1 -17 2 -20c2 -9 10 -19 29 -19c10 0 34 6 63 23c11 6 19 12 29 19s20 14 29 22c12 10 25 22 39 34z" />
    <glyph glyph-name="adieresis" unicode="&#xe4;" horiz-adv-x="437" 
d="M271 570c19 2 40 -11 40 -34c-1 -23 -15 -58 -41 -78c-3 -3 -19 -16 -34 -16c-6 0 -12 2 -18 6c-11 7 -15 15 -15 36c0 8 3 23 15 44c5 8 24 38 53 42zM450 571c19 3 39 -11 39 -33c0 -8 -2 -51 -40 -83c-5 -4 -17 -13 -31 -13c-16 0 -33 11 -33 41c0 11 2 27 17 52
c7 10 21 32 48 36zM389 337l-37 -22c5 -8 10 -17 14 -26c5 -10 9 -20 14 -31c-21 -31 -41 -62 -56 -94c-10 -20 -16 -33 -16 -42c1 -15 10 -28 26 -28c15 0 44 15 81 43c12 9 21 18 34 29v-43c-5 -8 -12 -16 -19 -23c-7 -8 -12 -14 -19 -22c-5 -6 -29 -31 -53 -52
c-31 -26 -58 -45 -88 -45c-11 0 -21 3 -25 5c-13 5 -25 22 -25 46c0 27 13 68 21 95c-13 -14 -26 -27 -40 -41c-8 -8 -13 -14 -21 -21c-7 -7 -16 -16 -24 -23c-21 -21 -49 -47 -72 -47c-16 0 -41 19 -54 34c-12 16 -33 52 -33 94c0 45 22 73 37 92c31 40 60 61 79 75
c5 4 12 9 17 13c9 6 17 11 26 17c7 5 15 10 22 15c13 8 93 56 157 56c26 0 41 -12 54 -54zM304 290c-34 -15 -67 -29 -101 -46c-9 -5 -18 -11 -28 -16c-32 -20 -40 -26 -57 -41c-20 -18 -41 -39 -41 -79c0 -11 2 -22 4 -33c12 4 25 9 38 16c27 14 65 44 110 99
c3 5 7 9 10 14c5 6 12 13 16 19c6 7 11 14 16 21c12 15 23 31 33 46z" />
    <glyph glyph-name="aring" unicode="&#xe5;" horiz-adv-x="437" 
d="M462 528h-6c-7 1 -12 2 -19 2c-8 1 -17 0 -26 0c7 -6 20 -15 20 -34c0 -11 -6 -27 -17 -37c-26 -23 -71 -36 -97 -36c-4 0 -32 0 -52 13c-15 11 -26 28 -26 43c0 29 39 59 42 62c51 40 114 42 127 42c16 0 23 0 37 -14c4 -5 25 -30 25 -37c0 -4 -6 -4 -8 -4zM323 506
c0 1 -1 5 5 10c3 2 8 5 8 5s-5 -2 -9 -3c-15 -5 -31 -12 -44 -22c-14 -10 -18 -18 -18 -24c0 -10 9 -15 29 -15c21 0 66 13 89 24c15 8 23 17 23 25c0 6 -10 15 -25 15c-13 0 -29 -5 -58 -15zM388 337l-36 -21c5 -10 10 -19 15 -28c5 -10 9 -20 13 -30
c-20 -31 -40 -61 -55 -91c-10 -22 -16 -36 -16 -45c0 -6 3 -28 26 -28c13 0 45 16 79 42c6 4 11 10 16 14c6 5 12 10 19 16v-43c-9 -12 -20 -24 -31 -36c-6 -7 -11 -14 -18 -20c-11 -12 -23 -23 -35 -34c-47 -43 -74 -53 -96 -53c-29 0 -49 22 -49 51c0 23 7 49 22 96
c-24 -24 -44 -45 -66 -66c-10 -10 -21 -21 -31 -30c-18 -17 -40 -37 -60 -37c-11 0 -23 8 -27 11c-44 28 -60 81 -60 120c0 16 1 41 28 79c2 4 13 20 31 38c48 49 124 95 131 99c65 37 120 50 145 50c37 0 47 -25 55 -54zM304 290c-80 -34 -114 -52 -153 -78
c-11 -8 -23 -16 -34 -26c-39 -34 -40 -66 -40 -79c0 -11 2 -22 4 -33c32 12 47 18 78 44c11 10 22 19 33 30c29 30 65 76 112 142z" />
    <glyph glyph-name="ccedilla" unicode="&#xe7;" horiz-adv-x="313" 
d="M329 170l-6 -52c-15 -16 -30 -31 -45 -46c-3 -4 -7 -8 -11 -12c-8 -7 -17 -14 -25 -21c-3 -3 -7 -6 -10 -9c-53 -42 -79 -53 -115 -53c-17 0 -61 2 -87 45c-7 11 -31 63 -31 114c0 9 0 30 10 53c21 50 72 93 80 101c4 4 8 8 13 12c12 10 24 20 37 29c9 6 20 14 40 24
c26 13 43 18 56 21c17 3 21 4 31 4c12 0 45 -4 45 -43c0 -42 -34 -81 -61 -108c-17 -18 -30 -25 -42 -25c-15 0 -24 10 -19 35c-43 -32 -72 -53 -88 -69c-21 -20 -28 -36 -28 -51c0 -17 16 -50 61 -50c31 0 70 18 76 21c58 27 103 66 119 80zM67 -185c-5 2 -29 11 -29 34
c0 5 2 14 9 26c17 28 63 65 99 65c21 0 24 -17 24 -25c0 -14 -13 -43 -35 -73c-32 -41 -68 -67 -85 -74c-6 -2 -12 -3 -14 -3c-4 0 -9 4 -9 9c0 4 6 6 12 12c11 9 20 19 28 29z" />
    <glyph glyph-name="odieresis" unicode="&#xf6;" horiz-adv-x="333" 
d="M400 569c14 2 23 -3 29 -9c5 -5 11 -12 11 -25c0 -8 -3 -48 -39 -80c-5 -4 -19 -15 -33 -15c-22 0 -34 20 -34 39c0 6 1 15 5 29c2 3 22 56 61 61zM224 569c20 0 37 -15 37 -35c0 -7 -6 -51 -44 -80c-5 -4 -17 -13 -31 -13c-9 0 -12 3 -16 5c-10 7 -17 16 -17 34
c0 13 4 39 32 68c19 19 30 20 39 21zM347 167l-4 -53c-8 -7 -16 -14 -24 -20c-9 -7 -39 -25 -67 -29c-10 -2 -20 -1 -30 -1c-35 -35 -51 -50 -87 -63c-5 -1 -20 -7 -36 -7c-11 0 -44 6 -72 40c-18 22 -26 52 -26 102c0 11 0 23 2 35c5 28 15 55 66 105c8 8 93 91 158 91
c27 0 47 -15 56 -23c1 -1 11 -9 11 -17c0 -6 -6 -11 -17 -17c26 -10 33 -29 33 -53c0 -47 -21 -85 -46 -132c11 -2 18 -3 38 7c18 10 26 16 45 35zM174 245l-18 -12c-6 -5 -11 -10 -17 -15c-7 -6 -16 -13 -29 -28c-10 -12 -13 -14 -17 -23c-13 -23 -15 -58 -15 -61
c-1 -5 -2 -9 -2 -14c0 -13 13 -18 35 -18c11 0 18 2 28 7c5 2 11 5 16 8c7 5 19 16 20 18c-2 10 -4 21 -4 33c0 9 3 48 17 84c6 15 14 31 22 46c-12 -8 -24 -16 -36 -25z" />
    <glyph glyph-name="udieresis" unicode="&#xfc;" horiz-adv-x="417" 
d="M262 568c3 0 13 1 24 -6c7 -6 13 -13 13 -29c0 -4 0 -8 -2 -15s-10 -38 -38 -61c-5 -4 -20 -17 -35 -17c-7 0 -14 4 -17 6c-15 11 -15 23 -15 36c0 7 0 9 1 15c5 19 23 49 42 62c12 8 23 9 27 9zM442 569c3 0 6 0 13 -2c8 -2 23 -13 23 -32c0 -24 -13 -58 -37 -79
c-16 -15 -27 -16 -35 -16c-19 0 -28 14 -31 22c-1 3 -2 10 -2 18c0 36 29 71 43 81c6 3 13 7 26 8zM433 169l-5 -55c-13 -14 -24 -28 -36 -41c-14 -15 -45 -47 -83 -71c-30 -19 -41 -21 -57 -21c-10 0 -14 2 -20 5c-13 7 -31 27 -31 56s9 52 34 108c-27 -33 -54 -67 -85 -99
c-36 -38 -54 -49 -73 -49s-32 11 -38 17c-23 20 -37 55 -37 107c0 8 0 19 4 36c5 18 18 56 52 101c15 19 22 31 45 52c34 32 43 35 66 35c9 0 19 -1 28 -2c1 -1 27 -3 27 -21c0 -15 -12 -24 -32 -49c-34 -42 -55 -67 -95 -100c-8 -12 -20 -28 -20 -57c0 -6 1 -16 8 -16
c4 0 15 7 18 8c49 28 93 74 102 84c6 5 13 12 19 19c11 12 20 25 32 39c10 11 18 20 28 31c13 13 23 25 34 36c7 8 14 16 22 23c13 13 44 39 58 39c3 0 13 -3 18 -13c2 -6 5 -32 5 -37c0 -19 -7 -24 -22 -42l-15 -18c-7 -9 -16 -19 -23 -28c-20 -27 -44 -67 -53 -93
c-6 -17 -8 -31 -8 -37c0 -2 1 -22 17 -22c8 0 15 3 18 4c8 3 31 16 54 34c14 11 30 25 44 37z" />
    <glyph glyph-name="registered" unicode="&#xae;" horiz-adv-x="833" 
d="M441 346h-25v-115c0 -15 -1 -25 0 -31c4 -21 18 -25 51 -28v-42c-20 0 -40 1 -60 2c-41 0 -82 -1 -123 -2v41c14 2 36 3 42 18c4 7 4 16 4 24v278c0 18 0 30 -6 36s-21 9 -40 10v43c36 -1 72 -2 108 -2c33 1 67 2 101 2c47 0 98 -3 132 -42c16 -18 25 -44 25 -68
c0 -10 -2 -36 -20 -60c-27 -36 -76 -45 -87 -46c9 -3 17 -10 19 -11c22 -19 29 -42 36 -68l10 -39c6 -25 9 -47 25 -47s24 26 29 54l38 -6c-9 -37 -15 -69 -41 -98c-10 -11 -18 -16 -23 -18s-14 -5 -26 -5c-8 0 -39 3 -57 26c-6 8 -17 31 -25 57c-8 24 -13 50 -20 74
c-5 20 -8 28 -14 37c-17 26 -42 26 -53 26zM416 400h28c34 0 73 -2 100 26c6 7 16 20 16 43c0 7 0 22 -11 37c-17 24 -45 28 -72 28c-57 0 -62 -5 -61 -60v-74zM820 351c0 -43 -9 -140 -84 -229c-95 -112 -221 -125 -272 -125c-78 0 -156 26 -218 73
c-46 36 -138 126 -138 284c0 118 52 193 82 228c36 43 124 127 275 127c113 0 217 -50 286 -143c47 -63 70 -137 69 -215zM788 352c0 35 -5 116 -63 195c-32 43 -114 130 -260 130c-34 0 -115 -5 -192 -62c-43 -31 -133 -115 -133 -262c0 -43 8 -84 24 -123
c49 -122 169 -201 301 -201c20 0 60 2 109 19c130 46 213 168 214 304z" />
    <glyph glyph-name="copyright" unicode="&#xa9;" horiz-adv-x="833" 
d="M645 270v-133l-73 -8l-24 -2c-29 -3 -58 -5 -88 -5c-13 0 -50 -1 -87 11c-34 10 -92 35 -119 122c-5 18 -14 57 -14 107c0 33 3 54 6 68c5 26 17 89 89 125c24 13 62 25 121 25c27 0 54 -2 81 -5l24 -1l73 -3l9 -143l-30 1c-11 50 -18 72 -37 94c-24 27 -53 36 -86 36
c-40 0 -61 -12 -77 -24c-11 -9 -20 -19 -27 -31c-28 -48 -27 -128 -27 -133c0 -99 19 -161 51 -195c26 -27 58 -33 89 -33c9 0 30 0 55 12c48 23 55 71 61 115h30zM820 351c0 -35 -6 -139 -87 -233c-40 -47 -130 -121 -270 -121c-37 0 -135 5 -228 82
c-87 72 -127 174 -127 275c0 122 59 204 93 241c41 45 128 114 264 114c39 0 138 -5 232 -84c83 -70 123 -176 123 -274zM787 352c0 59 -17 125 -50 178s-73 81 -93 94c-78 51 -148 53 -179 53c-30 0 -101 -3 -177 -52c-21 -13 -42 -30 -58 -47c-33 -34 -90 -110 -90 -225
c0 -112 53 -186 87 -222c39 -40 118 -102 237 -102c33 0 117 5 200 68c115 88 123 220 123 255z" />
    <glyph glyph-name="trademark" unicode="&#x2122;" horiz-adv-x="771" 
d="M468 597v-141c0 -11 -1 -33 8 -40c5 -5 18 -6 23 -7h8v-35c-41 1 -81 1 -122 0v35l11 1c24 4 24 12 26 46v205l-3 3c-9 4 -12 7 -29 7l1 35c20 -1 41 -1 61 -1c12 0 24 1 35 1l97 -239l101 239h97v-35l-8 -1c-16 0 -30 -2 -30 -33v-207c0 -7 1 -11 6 -15c4 -3 9 -4 19 -5
l7 -1v-35c-26 1 -53 2 -79 2c-17 -1 -34 -1 -51 -2v35h7c26 2 25 13 25 27v159l-92 -221h-26zM363 617h-35c-8 24 -16 41 -25 46c-7 5 -12 5 -27 6h-25v-215c1 -19 -1 -31 6 -37c6 -5 19 -6 19 -6l20 -2v-35c-53 2 -105 2 -158 0v35l17 2c6 0 13 1 19 4c9 6 8 19 9 39v215
h-26c-1 0 -16 0 -24 -4c-11 -6 -20 -23 -27 -48h-35c2 30 4 59 5 89c34 0 69 -1 104 -1c60 -1 119 0 178 1c1 -30 2 -59 5 -89z" />
    <glyph glyph-name="minus" unicode="&#x2212;" horiz-adv-x="500" 
d="M547 252h-500v81h500v-81z" />
    <glyph glyph-name="onefitted" unicode="&#xf6dc;" horiz-adv-x="313" 
d="M361 506l-27 -45c-39 -63 -78 -124 -113 -187c-14 -26 -28 -51 -41 -77c-38 -76 -53 -118 -53 -153c0 -18 3 -36 2 -41c-2 -9 -8 -10 -11 -10c-14 0 -47 22 -58 30c-10 8 -39 30 -39 64c0 17 12 74 37 130c56 125 192 288 208 310c-35 -11 -69 -25 -104 -38
c-4 -2 -9 -5 -14 -5c-6 0 -10 11 -10 18s4 20 9 27c15 21 73 53 93 63c13 6 98 46 112 46c4 0 13 -3 19 -12c9 -12 18 -43 18 -57c0 -21 -15 -42 -28 -63z" />
    <glyph glyph-name="Eacute" unicode="&#xc9;" 
d="M595 189v-23c0 -10 0 -41 -16 -73c-18 -34 -61 -74 -129 -107c-38 -18 -146 -62 -259 -62c-18 0 -59 1 -108 16c-22 7 -43 16 -51 23c-8 8 -16 25 -24 46c-12 31 -16 47 -16 63c0 19 5 35 29 71c20 30 57 78 134 119c89 47 163 61 251 77c-20 1 -51 0 -78 1
c-40 2 -81 6 -121 15c-24 5 -65 15 -87 35c-12 12 -24 35 -24 67c0 63 54 120 71 137c20 19 55 46 109 70c112 50 247 54 274 54c51 0 104 -9 118 -25c13 -14 8 -33 9 -50c0 -9 2 -19 2 -28c0 -4 0 -13 -5 -22c-11 -19 -49 -34 -61 -40c-23 -10 -46 -21 -70 -33
c-10 -6 -20 -11 -30 -18c-13 -10 -17 -16 -24 -16c-3 0 -10 3 -10 11c0 7 6 12 11 18c4 5 7 9 12 14c10 11 26 25 58 46c-24 0 -49 -2 -73 -5c-24 -2 -107 -8 -188 -43c-16 -7 -31 -15 -47 -25c-25 -17 -36 -30 -43 -42c-4 -6 -7 -14 -7 -20c0 -15 16 -19 28 -23
c27 -9 67 -16 130 -16c43 0 86 4 129 1c32 -2 57 -7 68 -12c4 -2 11 -5 11 -14c0 -5 -1 -9 -2 -11c-5 -13 -22 -39 -36 -52c-16 -15 -32 -15 -64 -21c-17 -3 -34 -7 -50 -10c-71 -16 -206 -51 -276 -128c-9 -10 -13 -15 -23 -32c-9 -14 -11 -19 -11 -26c0 -14 9 -18 22 -23
c18 -7 45 -14 88 -14c68 0 118 13 185 39c30 11 59 24 88 40c35 20 65 43 76 53c9 8 11 14 18 14c9 0 12 -10 12 -16zM715 919c19 1 37 0 57 0c6 0 20 0 20 -19c0 -26 -27 -37 -47 -45c-5 -3 -11 -5 -17 -7c-21 -9 -43 -18 -64 -26c-31 -11 -61 -23 -92 -34
c-7 -3 -14 -5 -21 -8c-6 -2 -11 -4 -14 -4c-2 0 -6 0 -5 4c0 2 1 5 3 8s51 52 80 79c4 4 9 9 14 13c10 9 31 31 43 36c9 4 22 3 43 3z" />
    <glyph glyph-name="Ntilde" unicode="&#xd1;" horiz-adv-x="812" 
d="M535 427l21 21c20 21 43 43 63 61c5 5 10 9 15 13c7 7 15 15 23 21c6 5 13 10 19 15c21 15 41 29 63 42c27 15 41 23 54 23c5 0 7 -1 11 -6c6 -6 36 -50 36 -84c0 -47 -55 -115 -90 -161c-20 -27 -40 -54 -59 -81c-13 -17 -26 -33 -38 -51c-9 -13 -18 -28 -26 -42
c-12 -19 -22 -38 -31 -57c-14 -30 -19 -46 -19 -60c0 -2 -1 -22 13 -32c8 -7 14 -7 17 -7s10 1 17 4c4 2 37 20 59 36c11 8 23 18 33 27c8 6 14 11 22 18c10 9 20 19 29 28c0 -44 6 -35 -23 -66c-7 -8 -13 -15 -20 -22c-9 -10 -20 -21 -31 -31c-22 -22 -43 -42 -65 -60
c-10 -8 -20 -15 -31 -21c-10 -7 -20 -13 -30 -19c-5 -2 -42 -22 -69 -22c-30 0 -55 30 -55 83c0 22 4 48 25 96c29 65 72 131 114 192c11 15 22 32 33 48c25 34 63 79 76 116c2 5 3 9 4 14c-43 -21 -84 -44 -169 -130c-34 -35 -64 -70 -95 -106c-39 -45 -78 -91 -117 -137
c-10 -13 -20 -25 -31 -37c-7 -8 -16 -16 -23 -24c-6 -7 -12 -13 -18 -19c-8 -7 -12 -9 -17 -9c-11 0 -23 10 -43 31c-4 4 -17 16 -17 28c1 8 6 15 15 31c9 14 19 27 28 41c14 22 28 45 42 67s29 43 43 65c24 38 48 77 71 116c16 27 31 54 45 81c2 4 22 37 22 61
c-1 10 -13 12 -16 12c-27 0 -65 -13 -70 -14c-10 -3 -20 -6 -29 -10c-18 -6 -35 -13 -53 -21c-22 -9 -44 -19 -66 -30c-21 -11 -42 -23 -63 -35c-9 -4 -17 -9 -26 -14c-8 -6 -10 -8 -15 -8c-10 0 -11 20 -11 23c0 7 3 32 14 55c16 33 48 64 60 76s20 19 30 28
c21 18 65 50 87 56c5 1 6 2 9 2c6 0 7 -4 7 -5c0 -10 -16 -16 -26 -23c-6 -5 -9 -7 -20 -18c12 3 22 8 33 13c19 9 38 20 57 29c13 7 83 41 138 41c35 0 82 -15 82 -62c0 -7 0 -19 -6 -35c-9 -27 -33 -69 -71 -133c-11 -17 -22 -35 -33 -53c-10 -16 -21 -32 -30 -49
c-8 -12 -14 -24 -20 -36c-5 -10 -11 -20 -16 -30c-2 -4 -4 -9 -5 -14c16 13 29 26 47 44c41 40 78 78 116 116zM907 900c-2 -10 -4 -19 -16 -40c-32 -59 -98 -79 -140 -79c-13 0 -31 2 -60 9c-7 2 -15 5 -23 7c-6 2 -13 3 -20 4c-22 6 -28 8 -50 8c-38 0 -53 -9 -73 -21
c4 10 7 21 13 31c44 80 119 80 135 80c33 0 52 -7 85 -15c32 -8 48 -9 64 -9c34 0 51 9 85 25z" />
    <glyph glyph-name="aacute" unicode="&#xe1;" horiz-adv-x="437" 
d="M389 336l-37 -20l27 -58c-9 -16 -19 -31 -29 -47c-9 -15 -18 -30 -25 -45c-11 -23 -17 -36 -17 -46c0 -13 12 -26 25 -26c11 0 25 5 48 19c19 12 32 21 68 53v-44c-35 -41 -55 -66 -100 -103c-5 -4 -26 -21 -45 -30c-4 -3 -19 -9 -34 -9c-16 0 -50 7 -50 52
c0 27 13 69 21 95c-25 -27 -50 -51 -75 -75c-5 -6 -10 -11 -15 -16c-18 -17 -39 -32 -44 -34c-4 -3 -12 -7 -23 -7c-20 0 -45 24 -46 25c-17 18 -41 55 -41 104c0 44 21 71 36 91c8 9 23 27 43 45c9 8 20 17 29 24c7 6 15 11 23 17c9 7 19 14 28 20c20 13 88 56 154 67
c8 1 16 3 25 3c13 0 20 -4 26 -7c16 -11 18 -22 28 -48zM304 289c-95 -40 -144 -65 -189 -104c-20 -18 -38 -37 -38 -78c0 -11 1 -22 3 -33c43 14 66 33 85 50c46 39 73 78 89 98c18 23 34 44 50 67zM421 563c18 1 34 1 51 -1c13 -1 23 1 23 -13c0 -12 -7 -21 -10 -24
c-5 -5 -11 -7 -13 -8c-25 -14 -50 -23 -75 -33c-17 -6 -33 -12 -50 -18c-15 -6 -31 -11 -45 -16c-12 -4 -18 -7 -25 -7c-2 0 -6 0 -6 4c0 1 1 4 3 7c4 6 39 39 40 39c14 13 55 55 73 64c14 6 30 6 34 6z" />
    <glyph glyph-name="agrave" unicode="&#xe0;" horiz-adv-x="437" 
d="M389 336l-37 -20l27 -58c-9 -16 -19 -31 -29 -47c-9 -15 -18 -30 -25 -45c-11 -23 -17 -36 -17 -46c0 -13 12 -26 25 -26c11 0 25 5 48 19c19 12 32 21 68 53v-44c-35 -41 -55 -66 -100 -103c-5 -4 -26 -21 -45 -30c-4 -3 -19 -9 -34 -9c-16 0 -50 7 -50 52
c0 27 13 69 21 95c-25 -27 -50 -51 -75 -75c-5 -6 -10 -11 -15 -16c-18 -17 -39 -32 -44 -34c-4 -3 -12 -7 -23 -7c-20 0 -45 24 -46 25c-17 18 -41 55 -41 104c0 44 21 71 36 91c8 9 23 27 43 45c9 8 20 17 29 24c7 6 15 11 23 17c9 7 19 14 28 20c20 13 88 56 154 67
c8 1 16 3 25 3c13 0 20 -4 26 -7c16 -11 18 -22 28 -48zM304 289c-95 -40 -144 -65 -189 -104c-20 -18 -38 -37 -38 -78c0 -11 1 -22 3 -33c43 14 66 33 85 50c46 39 73 78 89 98c18 23 34 44 50 67zM191 566c21 1 47 -1 52 -1c31 -5 48 -32 53 -39c6 -7 11 -15 16 -22
s9 -13 14 -20c10 -14 20 -27 20 -35c0 -3 -3 -4 -7 -4c-8 0 -11 3 -22 8c-4 2 -8 4 -13 6c-33 15 -66 30 -99 46c-7 3 -14 7 -22 11c-9 4 -12 5 -16 9c-13 9 -14 25 -14 29c0 9 9 9 12 10c8 1 17 1 26 2z" />
    <glyph glyph-name="acircumflex" unicode="&#xe2;" horiz-adv-x="437" 
d="M389 336l-37 -20l27 -58c-9 -16 -19 -31 -29 -47c-9 -15 -18 -30 -25 -45c-11 -23 -17 -36 -17 -46c0 -13 12 -26 25 -26c11 0 25 5 48 19c19 12 32 21 68 53v-44c-35 -41 -55 -66 -100 -103c-5 -4 -26 -21 -45 -30c-4 -3 -19 -9 -34 -9c-16 0 -50 7 -50 52
c0 27 13 69 21 95c-25 -27 -50 -51 -75 -75c-5 -6 -10 -11 -15 -16c-18 -17 -39 -32 -44 -34c-4 -3 -12 -7 -23 -7c-20 0 -45 24 -46 25c-17 18 -41 55 -41 104c0 44 21 71 36 91c8 9 23 27 43 45c9 8 20 17 29 24c7 6 15 11 23 17c9 7 19 14 28 20c20 13 88 56 154 67
c8 1 16 3 25 3c13 0 20 -4 26 -7c16 -11 18 -22 28 -48zM304 289c-95 -40 -144 -65 -189 -104c-20 -18 -38 -37 -38 -78c0 -11 1 -22 3 -33c43 14 66 33 85 50c46 39 73 78 89 98c18 23 34 44 50 67zM452 464c-17 -7 -33 -14 -50 -22c-13 -8 -20 -13 -27 -13c-3 0 -6 2 -7 3
c-8 9 -17 35 -33 60c-7 12 -8 14 -16 14s-17 -7 -34 -21c-38 -33 -63 -57 -80 -57c-4 0 -11 3 -11 7c1 3 10 12 15 17s9 10 16 16c3 4 8 8 11 11c4 4 7 7 11 10c20 19 37 33 59 52c18 16 38 35 58 35c4 0 11 0 20 -8c7 -7 13 -19 23 -37c21 -40 27 -48 45 -67z" />
    <glyph glyph-name="atilde" unicode="&#xe3;" horiz-adv-x="437" 
d="M389 336l-37 -20l27 -58c-9 -16 -19 -31 -29 -47c-9 -15 -18 -30 -25 -45c-11 -23 -17 -36 -17 -46c0 -13 12 -26 25 -26c11 0 25 5 48 19c19 12 32 21 68 53v-44c-35 -41 -55 -66 -100 -103c-5 -4 -26 -21 -45 -30c-4 -3 -19 -9 -34 -9c-16 0 -50 7 -50 52
c0 27 13 69 21 95c-25 -27 -50 -51 -75 -75c-5 -6 -10 -11 -15 -16c-18 -17 -39 -32 -44 -34c-4 -3 -12 -7 -23 -7c-20 0 -45 24 -46 25c-17 18 -41 55 -41 104c0 44 21 71 36 91c8 9 23 27 43 45c9 8 20 17 29 24c7 6 15 11 23 17c9 7 19 14 28 20c20 13 88 56 154 67
c8 1 16 3 25 3c13 0 20 -4 26 -7c16 -11 18 -22 28 -48zM304 289c-95 -40 -144 -65 -189 -104c-20 -18 -38 -37 -38 -78c0 -11 1 -22 3 -33c43 14 66 33 85 50c46 39 73 78 89 98c18 23 34 44 50 67zM473 549c-4 -13 -7 -18 -15 -31c-38 -59 -91 -58 -102 -58
c-5 0 -10 1 -15 1c-9 1 -18 3 -27 4c-17 3 -35 6 -52 8c-12 2 -25 3 -37 3c-23 0 -32 -4 -44 -9c9 27 20 43 32 53c1 2 7 7 13 11c31 20 51 20 65 20c21 0 41 -4 61 -7c21 -3 42 -7 63 -7c13 0 30 0 58 12z" />
    <glyph glyph-name="eacute" unicode="&#xe9;" horiz-adv-x="313" 
d="M328 168l-3 -50c-8 -8 -16 -18 -24 -25c-2 -3 -7 -7 -9 -10c-5 -4 -7 -8 -12 -13c-20 -20 -57 -49 -76 -60c-13 -8 -52 -29 -92 -29c-30 0 -53 11 -63 18s-17 17 -20 20c-19 28 -22 63 -23 69c-3 15 -5 30 -5 46c0 33 13 71 66 135c8 9 16 19 25 28s15 14 24 21
c63 52 116 61 141 61c8 0 16 -1 24 -3c14 -3 40 -10 40 -46c0 -18 -8 -52 -54 -95c-41 -39 -81 -61 -166 -99c0 -2 0 -16 2 -26c10 -38 37 -43 52 -43c17 0 51 11 93 38c8 6 18 12 26 18c5 5 10 9 16 14c6 4 12 9 18 14s13 11 20 17zM107 184c48 28 66 43 89 64
c6 6 30 27 41 52c2 5 3 11 4 16c-28 -6 -50 -17 -75 -39c-18 -17 -24 -26 -35 -42c-15 -23 -17 -28 -24 -51zM359 563c17 1 34 1 51 -1c12 -1 23 1 23 -13c0 -12 -7 -21 -11 -24c-5 -5 -10 -7 -12 -8c-26 -14 -51 -23 -76 -33c-16 -6 -33 -12 -50 -18
c-15 -6 -30 -11 -45 -16c-12 -4 -17 -7 -25 -7c-1 0 -5 0 -5 4c0 1 0 4 2 7c4 6 40 39 40 39c14 13 55 55 73 64c14 6 31 6 35 6z" />
    <glyph glyph-name="egrave" unicode="&#xe8;" horiz-adv-x="313" 
d="M328 168l-3 -50c-8 -8 -16 -18 -24 -25c-2 -3 -7 -7 -9 -10c-5 -4 -7 -8 -12 -13c-20 -20 -57 -49 -76 -60c-13 -8 -52 -29 -92 -29c-30 0 -53 11 -63 18s-17 17 -20 20c-19 28 -22 63 -23 69c-3 15 -5 30 -5 46c0 33 13 71 66 135c8 9 16 19 25 28s15 14 24 21
c63 52 116 61 141 61c8 0 16 -1 24 -3c14 -3 40 -10 40 -46c0 -18 -8 -52 -54 -95c-41 -39 -81 -61 -166 -99c0 -2 0 -16 2 -26c10 -38 37 -43 52 -43c17 0 51 11 93 38c8 6 18 12 26 18c5 5 10 9 16 14c6 4 12 9 18 14s13 11 20 17zM107 184c48 28 66 43 89 64
c6 6 30 27 41 52c2 5 3 11 4 16c-28 -6 -50 -17 -75 -39c-18 -17 -24 -26 -35 -42c-15 -23 -17 -28 -24 -51zM128 566c21 1 48 -1 53 -1c31 -5 47 -32 53 -39c5 -7 11 -15 16 -22c4 -7 8 -13 13 -20c10 -14 21 -27 21 -35c0 -3 -3 -4 -7 -4c-8 0 -11 3 -22 8
c-4 2 -9 4 -13 6c-33 15 -67 30 -100 46c-7 3 -14 7 -21 11c-9 4 -12 5 -16 9c-13 9 -14 25 -14 29c0 9 8 9 11 10c9 1 17 1 26 2z" />
    <glyph glyph-name="ecircumflex" unicode="&#xea;" horiz-adv-x="313" 
d="M328 168l-3 -50c-8 -8 -16 -18 -24 -25c-2 -3 -7 -7 -9 -10c-5 -4 -7 -8 -12 -13c-20 -20 -57 -49 -76 -60c-13 -8 -52 -29 -92 -29c-30 0 -53 11 -63 18s-17 17 -20 20c-19 28 -22 63 -23 69c-3 15 -5 30 -5 46c0 33 13 71 66 135c8 9 16 19 25 28s15 14 24 21
c63 52 116 61 141 61c8 0 16 -1 24 -3c14 -3 40 -10 40 -46c0 -18 -8 -52 -54 -95c-41 -39 -81 -61 -166 -99c0 -2 0 -16 2 -26c10 -38 37 -43 52 -43c17 0 51 11 93 38c8 6 18 12 26 18c5 5 10 9 16 14c6 4 12 9 18 14s13 11 20 17zM107 184c48 28 66 43 89 64
c6 6 30 27 41 52c2 5 3 11 4 16c-28 -6 -50 -17 -75 -39c-18 -17 -24 -26 -35 -42c-15 -23 -17 -28 -24 -51zM146 452l16 16c4 4 9 8 12 11c3 4 7 7 10 10c20 19 38 33 60 52c18 16 38 35 58 35c4 0 10 0 19 -8c8 -7 13 -19 23 -37c22 -40 28 -48 46 -67
c-17 -7 -34 -14 -50 -22c-14 -8 -21 -13 -27 -13c-4 0 -6 2 -7 3c-8 9 -18 35 -33 60c-8 12 -9 14 -16 14c-8 0 -18 -7 -34 -21c-39 -33 -63 -57 -81 -57c-4 0 -10 3 -10 7c0 3 10 12 14 17z" />
    <glyph glyph-name="edieresis" unicode="&#xeb;" horiz-adv-x="313" 
d="M328 168l-3 -50c-8 -8 -16 -18 -24 -25c-2 -3 -7 -7 -9 -10c-5 -4 -7 -8 -12 -13c-20 -20 -57 -49 -76 -60c-13 -8 -52 -29 -92 -29c-30 0 -53 11 -63 18s-17 17 -20 20c-19 28 -22 63 -23 69c-3 15 -5 30 -5 46c0 33 13 71 66 135c8 9 16 19 25 28s15 14 24 21
c63 52 116 61 141 61c8 0 16 -1 24 -3c14 -3 40 -10 40 -46c0 -18 -8 -52 -54 -95c-41 -39 -81 -61 -166 -99c0 -2 0 -16 2 -26c10 -38 37 -43 52 -43c17 0 51 11 93 38c8 6 18 12 26 18c5 5 10 9 16 14c6 4 12 9 18 14s13 11 20 17zM107 184c48 28 66 43 89 64
c6 6 30 27 41 52c2 5 3 11 4 16c-28 -6 -50 -17 -75 -39c-18 -17 -24 -26 -35 -42c-15 -23 -17 -28 -24 -51zM394 568c11 0 34 -7 34 -37c0 -6 -5 -43 -32 -72c-5 -5 -21 -21 -39 -21c-3 0 -10 0 -18 6c-11 7 -15 17 -15 38c0 12 4 23 5 27c2 5 26 61 65 59zM212 565
c2 1 7 1 13 -1c8 -2 25 -13 25 -32c0 -6 -5 -51 -42 -80c-4 -4 -20 -15 -33 -15c-5 0 -11 2 -12 3c-9 5 -21 14 -21 35c0 7 1 19 8 35c3 6 25 53 62 55z" />
    <glyph glyph-name="iacute" unicode="&#xed;" horiz-adv-x="229" 
d="M232 157l6 6c3 5 6 8 11 13c5 6 9 11 13 17l-4 -64c-15 -19 -31 -38 -48 -55c-8 -9 -72 -79 -121 -79c-28 0 -55 21 -71 53c-23 49 -16 106 -15 119c4 15 9 29 16 44c20 40 57 86 65 95c7 8 12 16 20 23c31 30 55 31 68 31c11 0 21 -1 30 -9c5 -5 6 -10 6 -16
c0 -7 -2 -18 -9 -33c-10 -20 -23 -45 -64 -86l-22 -22l-15 -12c-7 -15 -15 -32 -15 -48c0 -5 0 -24 20 -36c12 -7 20 -7 24 -7c13 0 32 6 60 26c7 4 13 9 18 13c7 6 13 13 20 20c2 2 5 4 7 7zM317 563c18 1 34 1 51 -1c13 -1 23 1 23 -13c0 -12 -7 -21 -11 -24
c-4 -5 -10 -7 -12 -8c-26 -14 -50 -23 -76 -33c-16 -6 -32 -12 -49 -18c-15 -6 -31 -11 -45 -16c-12 -4 -18 -7 -25 -7c-2 0 -6 0 -6 4c0 1 1 4 3 7c4 6 39 39 39 39c14 13 55 55 74 64c14 6 30 6 34 6z" />
    <glyph glyph-name="igrave" unicode="&#xec;" horiz-adv-x="229" 
d="M232 157l6 6c3 5 6 8 11 13c5 6 9 11 13 17l-4 -64c-15 -19 -31 -38 -48 -55c-8 -9 -72 -79 -121 -79c-28 0 -55 21 -71 53c-23 49 -16 106 -15 119c4 15 9 29 16 44c20 40 57 86 65 95c7 8 12 16 20 23c31 30 55 31 68 31c11 0 21 -1 30 -9c5 -5 6 -10 6 -16
c0 -7 -2 -18 -9 -33c-10 -20 -23 -45 -64 -86l-22 -22l-15 -12c-7 -15 -15 -32 -15 -48c0 -5 0 -24 20 -36c12 -7 20 -7 24 -7c13 0 32 6 60 26c7 4 13 9 18 13c7 6 13 13 20 20c2 2 5 4 7 7zM87 566c21 1 47 -1 52 -1c31 -5 48 -32 53 -39s11 -15 16 -22s9 -13 13 -20
c11 -14 21 -27 21 -35c0 -3 -3 -4 -7 -4c-8 0 -11 3 -22 8c-4 2 -8 4 -13 6c-33 15 -66 30 -100 46c-7 3 -14 7 -21 11c-9 4 -12 5 -16 9c-13 9 -14 25 -14 29c0 9 8 9 11 10c9 1 18 1 27 2z" />
    <glyph glyph-name="icircumflex" unicode="&#xee;" horiz-adv-x="229" 
d="M232 157l6 6c3 5 6 8 11 13c5 6 9 11 13 17l-4 -64c-15 -19 -31 -38 -48 -55c-8 -9 -72 -79 -121 -79c-28 0 -55 21 -71 53c-23 49 -16 106 -15 119c4 15 9 29 16 44c20 40 57 86 65 95c7 8 12 16 20 23c31 30 55 31 68 31c11 0 21 -1 30 -9c5 -5 6 -10 6 -16
c0 -7 -2 -18 -9 -33c-10 -20 -23 -45 -64 -86l-22 -22l-15 -12c-7 -15 -15 -32 -15 -48c0 -5 0 -24 20 -36c12 -7 20 -7 24 -7c13 0 32 6 60 26c7 4 13 9 18 13c7 6 13 13 20 20c2 2 5 4 7 7zM348 464c-17 -7 -33 -14 -50 -22c-13 -8 -20 -13 -27 -13c-3 0 -6 2 -7 3
c-8 9 -17 35 -33 60c-7 12 -9 14 -16 14c-8 0 -17 -7 -34 -21c-39 -33 -63 -57 -80 -57c-5 0 -11 3 -11 7c0 3 10 12 15 17c4 5 9 10 16 16c3 4 8 8 11 11c4 4 7 7 11 10c20 19 37 33 59 52c18 16 38 35 58 35c4 0 11 0 19 -8c8 -7 14 -19 24 -37c21 -40 27 -48 45 -67z" />
    <glyph glyph-name="idieresis" unicode="&#xef;" horiz-adv-x="229" 
d="M232 157l6 6c3 5 6 8 11 13c5 6 9 11 13 17l-4 -64c-15 -19 -31 -38 -48 -55c-8 -9 -72 -79 -121 -79c-28 0 -55 21 -71 53c-23 49 -16 106 -15 119c4 15 9 29 16 44c20 40 57 86 65 95c7 8 12 16 20 23c31 30 55 31 68 31c11 0 21 -1 30 -9c5 -5 6 -10 6 -16
c0 -7 -2 -18 -9 -33c-10 -20 -23 -45 -64 -86l-22 -22l-15 -12c-7 -15 -15 -32 -15 -48c0 -5 0 -24 20 -36c12 -7 20 -7 24 -7c13 0 32 6 60 26c7 4 13 9 18 13c7 6 13 13 20 20c2 2 5 4 7 7zM352 568c12 0 35 -7 35 -37c0 -6 -5 -43 -33 -72c-5 -5 -21 -21 -38 -21
c-4 0 -10 0 -18 6c-11 7 -16 17 -16 38c0 12 4 23 6 27c2 5 25 61 64 59zM170 565c3 1 8 1 14 -1c7 -2 24 -13 24 -32c0 -6 -5 -51 -42 -80c-4 -4 -19 -15 -33 -15c-5 0 -11 2 -12 3c-9 5 -21 14 -21 35c0 7 1 19 8 35c3 6 26 53 62 55z" />
    <glyph glyph-name="ntilde" unicode="&#xf1;" horiz-adv-x="396" 
d="M409 167l-4 -51c-14 -17 -27 -32 -41 -46c-5 -6 -62 -63 -103 -81c-5 -2 -17 -7 -31 -7c-1 0 -27 0 -40 18c-6 9 -12 22 -12 41c0 55 52 129 90 183c-19 -14 -40 -31 -57 -47c-36 -36 -66 -83 -73 -92l-27 -36c-7 -11 -15 -21 -24 -31c-12 -14 -21 -23 -35 -23
c-18 0 -26 14 -30 21c-17 29 -22 58 -23 119c2 9 5 19 9 29c6 17 20 49 54 91c10 12 22 25 30 33c17 17 29 30 49 30c7 0 12 -2 25 -5c7 -1 13 -2 17 -8c3 -4 4 -7 4 -11c0 -7 -4 -12 -12 -24c-9 -16 -20 -35 -49 -65c-22 -23 -34 -37 -42 -62c-1 -1 -6 -19 -5 -21
c0 -3 0 -4 4 -9c12 15 66 84 116 131c36 34 51 48 87 73c11 8 21 15 32 21c12 6 21 11 43 17c4 -4 7 -9 10 -13c4 -6 15 -28 15 -49c0 -26 -18 -40 -28 -52c-45 -53 -64 -84 -73 -108c-5 -13 -6 -18 -6 -25c0 -13 10 -18 16 -18c4 0 6 1 13 4c11 5 28 13 56 33
c17 12 43 38 45 40zM452 549c-3 -13 -7 -18 -15 -31c-37 -59 -91 -58 -102 -58c-5 0 -10 1 -15 1c-9 1 -18 3 -27 4c-17 3 -35 6 -52 8c-12 2 -24 3 -37 3c-23 0 -32 -4 -43 -9c8 27 19 43 31 53c2 2 7 7 14 11c30 20 50 20 64 20c21 0 41 -4 61 -7c21 -3 42 -7 63 -7
c13 0 30 0 58 12z" />
    <glyph glyph-name="oacute" unicode="&#xf3;" horiz-adv-x="333" 
d="M347 167l-4 -54c-17 -14 -55 -48 -102 -50c-6 0 -13 1 -20 1c-11 -11 -21 -23 -32 -32c-39 -33 -77 -38 -90 -38c-25 0 -56 18 -73 42c-19 26 -25 53 -25 109c0 18 -1 45 29 86c4 7 8 12 13 18c4 4 8 8 11 12c15 16 31 31 48 44c6 5 43 35 72 48c24 12 45 14 55 14
c23 0 42 -13 51 -20c1 -1 14 -10 14 -19c0 -8 -12 -15 -19 -20c1 0 7 0 11 -3c11 -5 24 -20 24 -44c0 -5 0 -24 -4 -41c-5 -18 -16 -50 -42 -95c1 0 9 -1 15 0c20 2 48 23 50 25c6 6 12 11 18 17zM210 270c-9 -6 -19 -12 -28 -19c-8 -5 -16 -12 -25 -18
c-22 -17 -33 -26 -49 -45c-1 -1 -8 -10 -13 -17c-4 -7 -12 -26 -15 -46c-1 -6 -1 -12 -2 -19c0 -4 -2 -9 -2 -14c0 -2 1 -9 8 -14c4 -2 16 -5 28 -5c17 0 39 14 43 17c6 4 9 6 20 17c-2 11 -4 22 -4 33c0 13 3 51 20 89c5 14 13 27 19 41zM369 563c18 1 34 1 51 -1
c13 -1 23 1 23 -13c0 -12 -7 -21 -11 -24c-4 -5 -10 -7 -12 -8c-26 -14 -50 -23 -76 -33c-16 -6 -32 -12 -49 -18c-15 -6 -31 -11 -45 -16c-12 -4 -18 -7 -25 -7c-2 0 -6 0 -6 4c0 1 1 4 3 7c4 6 39 39 39 39c14 13 55 55 74 64c14 6 30 6 34 6z" />
    <glyph glyph-name="ograve" unicode="&#xf2;" horiz-adv-x="333" 
d="M347 167l-4 -54c-17 -14 -55 -48 -102 -50c-6 0 -13 1 -20 1c-11 -11 -21 -23 -32 -32c-39 -33 -77 -38 -90 -38c-25 0 -56 18 -73 42c-19 26 -25 53 -25 109c0 18 -1 45 29 86c4 7 8 12 13 18c4 4 8 8 11 12c15 16 31 31 48 44c6 5 43 35 72 48c24 12 45 14 55 14
c23 0 42 -13 51 -20c1 -1 14 -10 14 -19c0 -8 -12 -15 -19 -20c1 0 7 0 11 -3c11 -5 24 -20 24 -44c0 -5 0 -24 -4 -41c-5 -18 -16 -50 -42 -95c1 0 9 -1 15 0c20 2 48 23 50 25c6 6 12 11 18 17zM210 270c-9 -6 -19 -12 -28 -19c-8 -5 -16 -12 -25 -18
c-22 -17 -33 -26 -49 -45c-1 -1 -8 -10 -13 -17c-4 -7 -12 -26 -15 -46c-1 -6 -1 -12 -2 -19c0 -4 -2 -9 -2 -14c0 -2 1 -9 8 -14c4 -2 16 -5 28 -5c17 0 39 14 43 17c6 4 9 6 20 17c-2 11 -4 22 -4 33c0 13 3 51 20 89c5 14 13 27 19 41zM139 566c21 1 47 -1 52 -1
c31 -5 48 -32 53 -39c6 -7 11 -15 16 -22s9 -13 14 -20c10 -14 20 -27 20 -35c0 -3 -3 -4 -7 -4c-8 0 -11 3 -22 8c-4 2 -8 4 -13 6c-33 15 -66 30 -99 46c-7 3 -14 7 -22 11c-9 4 -12 5 -16 9c-13 9 -14 25 -14 29c0 9 8 9 12 10c8 1 17 1 26 2z" />
    <glyph glyph-name="ocircumflex" unicode="&#xf4;" horiz-adv-x="333" 
d="M347 167l-4 -54c-17 -14 -55 -48 -102 -50c-6 0 -13 1 -20 1c-11 -11 -21 -23 -32 -32c-39 -33 -77 -38 -90 -38c-25 0 -56 18 -73 42c-19 26 -25 53 -25 109c0 18 -1 45 29 86c4 7 8 12 13 18c4 4 8 8 11 12c15 16 31 31 48 44c6 5 43 35 72 48c24 12 45 14 55 14
c23 0 42 -13 51 -20c1 -1 14 -10 14 -19c0 -8 -12 -15 -19 -20c1 0 7 0 11 -3c11 -5 24 -20 24 -44c0 -5 0 -24 -4 -41c-5 -18 -16 -50 -42 -95c1 0 9 -1 15 0c20 2 48 23 50 25c6 6 12 11 18 17zM210 270c-9 -6 -19 -12 -28 -19c-8 -5 -16 -12 -25 -18
c-22 -17 -33 -26 -49 -45c-1 -1 -8 -10 -13 -17c-4 -7 -12 -26 -15 -46c-1 -6 -1 -12 -2 -19c0 -4 -2 -9 -2 -14c0 -2 1 -9 8 -14c4 -2 16 -5 28 -5c17 0 39 14 43 17c6 4 9 6 20 17c-2 11 -4 22 -4 33c0 13 3 51 20 89c5 14 13 27 19 41zM400 464c-17 -7 -33 -14 -50 -22
c-13 -8 -20 -13 -27 -13c-3 0 -6 2 -7 3c-8 9 -17 35 -33 60c-7 12 -9 14 -16 14c-8 0 -17 -7 -34 -21c-38 -33 -63 -57 -80 -57c-4 0 -11 3 -11 7c1 3 10 12 15 17s9 10 16 16c3 4 8 8 11 11c4 4 7 7 11 10c20 19 37 33 59 52c18 16 38 35 58 35c4 0 11 0 20 -8
c7 -7 13 -19 23 -37c21 -40 27 -48 45 -67z" />
    <glyph glyph-name="otilde" unicode="&#xf5;" horiz-adv-x="333" 
d="M347 167l-4 -54c-17 -14 -55 -48 -102 -50c-6 0 -13 1 -20 1c-11 -11 -21 -23 -32 -32c-39 -33 -77 -38 -90 -38c-25 0 -56 18 -73 42c-19 26 -25 53 -25 109c0 18 -1 45 29 86c4 7 8 12 13 18c4 4 8 8 11 12c15 16 31 31 48 44c6 5 43 35 72 48c24 12 45 14 55 14
c23 0 42 -13 51 -20c1 -1 14 -10 14 -19c0 -8 -12 -15 -19 -20c1 0 7 0 11 -3c11 -5 24 -20 24 -44c0 -5 0 -24 -4 -41c-5 -18 -16 -50 -42 -95c1 0 9 -1 15 0c20 2 48 23 50 25c6 6 12 11 18 17zM210 270c-9 -6 -19 -12 -28 -19c-8 -5 -16 -12 -25 -18
c-22 -17 -33 -26 -49 -45c-1 -1 -8 -10 -13 -17c-4 -7 -12 -26 -15 -46c-1 -6 -1 -12 -2 -19c0 -4 -2 -9 -2 -14c0 -2 1 -9 8 -14c4 -2 16 -5 28 -5c17 0 39 14 43 17c6 4 9 6 20 17c-2 11 -4 22 -4 33c0 13 3 51 20 89c5 14 13 27 19 41zM421 549c-4 -13 -7 -18 -15 -31
c-38 -59 -91 -58 -102 -58c-5 0 -10 1 -15 1c-9 1 -18 3 -27 4c-17 3 -35 6 -52 8c-12 2 -25 3 -37 3c-23 0 -32 -4 -44 -9c9 27 20 43 32 53c1 2 7 7 13 11c31 20 51 20 65 20c20 0 41 -4 61 -7c21 -3 42 -7 63 -7c13 0 30 0 58 12z" />
    <glyph glyph-name="uacute" unicode="&#xfa;" horiz-adv-x="417" 
d="M433 168l-6 -54c-41 -52 -119 -132 -174 -133c-32 1 -52 31 -52 61c0 13 2 33 14 63c6 15 14 30 19 44c-14 -17 -26 -32 -40 -49s-30 -34 -45 -50c-16 -17 -14 -17 -33 -31c-14 -10 -25 -17 -40 -17c-24 1 -40 18 -46 26c-13 16 -22 37 -26 71c-2 10 -3 19 -3 30
c0 7 1 21 6 39c15 48 54 99 64 113c4 4 7 8 11 12c3 4 6 7 10 11c3 4 9 8 12 11c1 2 2 3 4 4c7 7 13 13 22 19c13 10 18 12 40 12c26 0 54 -5 54 -23c0 -11 -12 -24 -21 -35s-18 -23 -27 -34c-13 -16 -28 -32 -43 -48c-12 -12 -24 -22 -36 -32c-8 -13 -20 -28 -20 -57
c0 -5 1 -16 8 -16c6 0 17 7 29 15c68 43 122 110 137 128c7 8 16 18 24 28c6 7 11 12 16 18c5 5 10 11 15 16c3 4 9 8 13 13s7 8 11 12c8 9 19 18 29 27c4 3 25 22 40 22c10 -1 15 -11 17 -14c2 -5 5 -21 5 -37c0 -20 -5 -20 -31 -51c-11 -13 -71 -84 -87 -142
c0 -2 -3 -14 -3 -23c0 -2 1 -24 17 -24c19 0 37 14 54 26c21 16 42 33 62 49zM411 563c17 1 34 1 51 -1c12 -1 23 1 23 -13c0 -12 -7 -21 -11 -24c-5 -5 -10 -7 -12 -8c-26 -14 -51 -23 -76 -33c-16 -6 -33 -12 -50 -18c-15 -6 -30 -11 -45 -16c-12 -4 -17 -7 -25 -7
c-1 0 -5 0 -5 4c0 1 0 4 2 7c4 6 40 39 40 39c14 13 55 55 73 64c15 6 31 6 35 6z" />
    <glyph glyph-name="ugrave" unicode="&#xf9;" horiz-adv-x="417" 
d="M433 168l-6 -54c-41 -52 -119 -132 -174 -133c-32 1 -52 31 -52 61c0 13 2 33 14 63c6 15 14 30 19 44c-14 -17 -26 -32 -40 -49s-30 -34 -45 -50c-16 -17 -14 -17 -33 -31c-14 -10 -25 -17 -40 -17c-24 1 -40 18 -46 26c-13 16 -22 37 -26 71c-2 10 -3 19 -3 30
c0 7 1 21 6 39c15 48 54 99 64 113c4 4 7 8 11 12c3 4 6 7 10 11c3 4 9 8 12 11c1 2 2 3 4 4c7 7 13 13 22 19c13 10 18 12 40 12c26 0 54 -5 54 -23c0 -11 -12 -24 -21 -35s-18 -23 -27 -34c-13 -16 -28 -32 -43 -48c-12 -12 -24 -22 -36 -32c-8 -13 -20 -28 -20 -57
c0 -5 1 -16 8 -16c6 0 17 7 29 15c68 43 122 110 137 128c7 8 16 18 24 28c6 7 11 12 16 18c5 5 10 11 15 16c3 4 9 8 13 13s7 8 11 12c8 9 19 18 29 27c4 3 25 22 40 22c10 -1 15 -11 17 -14c2 -5 5 -21 5 -37c0 -20 -5 -20 -31 -51c-11 -13 -71 -84 -87 -142
c0 -2 -3 -14 -3 -23c0 -2 1 -24 17 -24c19 0 37 14 54 26c21 16 42 33 62 49zM180 566c22 1 48 -1 53 -1c31 -5 48 -32 53 -39s11 -15 16 -22c4 -7 8 -13 13 -20c10 -14 21 -27 21 -35c0 -3 -3 -4 -7 -4c-8 0 -11 3 -22 8c-4 2 -9 4 -13 6c-33 15 -67 30 -100 46
c-7 3 -14 7 -21 11c-9 4 -12 5 -16 9c-13 9 -14 25 -14 29c0 9 8 9 11 10c9 1 17 1 26 2z" />
    <glyph glyph-name="ucircumflex" unicode="&#xfb;" horiz-adv-x="417" 
d="M433 168l-6 -54c-41 -52 -119 -132 -174 -133c-32 1 -52 31 -52 61c0 13 2 33 14 63c6 15 14 30 19 44c-14 -17 -26 -32 -40 -49s-30 -34 -45 -50c-16 -17 -14 -17 -33 -31c-14 -10 -25 -17 -40 -17c-24 1 -40 18 -46 26c-13 16 -22 37 -26 71c-2 10 -3 19 -3 30
c0 7 1 21 6 39c15 48 54 99 64 113c4 4 7 8 11 12c3 4 6 7 10 11c3 4 9 8 12 11c1 2 2 3 4 4c7 7 13 13 22 19c13 10 18 12 40 12c26 0 54 -5 54 -23c0 -11 -12 -24 -21 -35s-18 -23 -27 -34c-13 -16 -28 -32 -43 -48c-12 -12 -24 -22 -36 -32c-8 -13 -20 -28 -20 -57
c0 -5 1 -16 8 -16c6 0 17 7 29 15c68 43 122 110 137 128c7 8 16 18 24 28c6 7 11 12 16 18c5 5 10 11 15 16c3 4 9 8 13 13s7 8 11 12c8 9 19 18 29 27c4 3 25 22 40 22c10 -1 15 -11 17 -14c2 -5 5 -21 5 -37c0 -20 -5 -20 -31 -51c-11 -13 -71 -84 -87 -142
c0 -2 -3 -14 -3 -23c0 -2 1 -24 17 -24c19 0 37 14 54 26c21 16 42 33 62 49zM198 452l16 16c4 4 9 8 12 11c3 4 7 7 10 10c20 19 38 33 60 52c18 16 38 35 58 35c4 0 10 0 19 -8c8 -7 14 -19 23 -37c22 -40 28 -48 46 -67c-17 -7 -34 -14 -50 -22c-14 -8 -20 -13 -27 -13
c-4 0 -6 2 -7 3c-8 9 -18 35 -33 60c-7 12 -9 14 -16 14c-8 0 -18 -7 -34 -21c-39 -33 -63 -57 -81 -57c-4 0 -10 3 -10 7c0 3 10 12 14 17z" />
    <glyph glyph-name="Agrave" unicode="&#xc0;" horiz-adv-x="708" 
d="M617 370l103 -2c-13 -19 -27 -37 -40 -55c-5 -8 -10 -16 -16 -24c-3 -5 -7 -11 -11 -16c-16 -22 -16 -29 -33 -29c-10 0 -19 -2 -29 -2c-11 -1 -23 -2 -34 -2c-9 -18 -57 -106 -57 -125c0 -7 4 -8 7 -8c9 0 27 10 34 14c32 17 52 26 109 74l21 -25
c-10 -9 -20 -19 -29 -28c-5 -5 -105 -106 -168 -135c-6 -3 -23 -11 -42 -11c-12 0 -19 2 -24 4c-14 5 -37 25 -37 59c0 15 3 29 4 33c3 13 18 54 41 95c7 15 16 29 25 44l-198 -3c-26 -27 -49 -52 -73 -79c-7 -9 -14 -16 -22 -25c-27 -31 -52 -59 -82 -91
c-12 -12 -40 -46 -77 -67c-19 -11 -31 -13 -40 -13c-16 0 -36 12 -36 31c0 27 36 69 56 90c6 7 11 14 19 22c10 10 21 18 33 27c10 8 20 14 31 18c7 3 10 4 24 6c11 11 16 17 27 28c3 2 6 5 9 8s5 6 8 9c4 4 9 8 12 12c10 10 18 19 26 28c-22 0 -44 0 -66 2
c-10 2 -28 4 -28 21c0 11 10 25 17 36c28 42 65 65 81 72c15 7 33 10 74 12c7 0 15 1 22 1c2 0 9 0 9 -5c0 -3 -3 -8 -12 -10c-23 -6 -43 -11 -65 -17l87 2c16 15 31 30 47 45c4 4 8 7 12 11l20 20c4 4 7 6 11 9c6 6 14 13 20 18c7 7 14 14 22 21c10 9 22 19 33 28l30 27
c19 15 39 32 60 48c6 4 12 9 18 14c11 8 21 16 31 24c36 26 76 52 114 74c4 2 19 12 33 12c6 0 14 -1 26 -14c9 -10 12 -18 12 -29c0 -19 -8 -36 -29 -73c-10 -18 -22 -37 -32 -56c-30 -52 -59 -103 -88 -155zM374 360l143 9c22 39 45 78 68 118c12 20 24 41 37 62
c12 20 25 40 38 60c-21 -16 -43 -32 -64 -49c-18 -15 -37 -32 -54 -47c-32 -27 -63 -55 -94 -84c-9 -8 -19 -16 -27 -24c-14 -13 -31 -30 -47 -45zM597 917c15 0 29 -1 43 0c11 0 19 1 29 -3c19 -6 35 -29 55 -56c8 -11 16 -21 24 -32s16 -23 24 -34c7 -9 12 -13 12 -19
c0 -2 -3 -4 -7 -4c0 0 -2 1 -4 1c-6 3 -13 7 -19 10c-17 7 -33 14 -50 21c-11 6 -23 12 -35 17c-14 7 -29 13 -43 20c-9 4 -18 9 -26 13s-25 12 -32 17c-5 4 -16 16 -15 30c0 19 13 18 26 18c6 0 12 1 18 1z" />
    <glyph glyph-name="Atilde" unicode="&#xc3;" horiz-adv-x="708" 
d="M617 370l103 -2c-13 -19 -27 -37 -40 -55c-5 -8 -10 -16 -16 -24c-3 -5 -7 -11 -11 -16c-16 -22 -16 -29 -33 -29c-10 0 -19 -2 -29 -2c-11 -1 -23 -2 -34 -2c-9 -18 -57 -106 -57 -125c0 -7 4 -8 7 -8c9 0 27 10 34 14c32 17 52 26 109 74l21 -25
c-10 -9 -20 -19 -29 -28c-5 -5 -105 -106 -168 -135c-6 -3 -23 -11 -42 -11c-12 0 -19 2 -24 4c-14 5 -37 25 -37 59c0 15 3 29 4 33c3 13 18 54 41 95c7 15 16 29 25 44l-198 -3c-26 -27 -49 -52 -73 -79c-7 -9 -14 -16 -22 -25c-27 -31 -52 -59 -82 -91
c-12 -12 -40 -46 -77 -67c-19 -11 -31 -13 -40 -13c-16 0 -36 12 -36 31c0 27 36 69 56 90c6 7 11 14 19 22c10 10 21 18 33 27c10 8 20 14 31 18c7 3 10 4 24 6c11 11 16 17 27 28c3 2 6 5 9 8s5 6 8 9c4 4 9 8 12 12c10 10 18 19 26 28c-22 0 -44 0 -66 2
c-10 2 -28 4 -28 21c0 11 10 25 17 36c28 42 65 65 81 72c15 7 33 10 74 12c7 0 15 1 22 1c2 0 9 0 9 -5c0 -3 -3 -8 -12 -10c-23 -6 -43 -11 -65 -17l87 2c16 15 31 30 47 45c4 4 8 7 12 11l20 20c4 4 7 6 11 9c6 6 14 13 20 18c7 7 14 14 22 21c10 9 22 19 33 28l30 27
c19 15 39 32 60 48c6 4 12 9 18 14c11 8 21 16 31 24c36 26 76 52 114 74c4 2 19 12 33 12c6 0 14 -1 26 -14c9 -10 12 -18 12 -29c0 -19 -8 -36 -29 -73c-10 -18 -22 -37 -32 -56c-30 -52 -59 -103 -88 -155zM374 360l143 9c22 39 45 78 68 118c12 20 24 41 37 62
c12 20 25 40 38 60c-21 -16 -43 -32 -64 -49c-18 -15 -37 -32 -54 -47c-32 -27 -63 -55 -94 -84c-9 -8 -19 -16 -27 -24c-14 -13 -31 -30 -47 -45zM959 900c-2 -10 -4 -19 -15 -40c-33 -59 -98 -79 -141 -79c-13 0 -31 2 -60 9c-7 2 -15 5 -23 7c-6 2 -13 3 -19 4
c-22 6 -28 8 -51 8c-38 0 -52 -9 -73 -21c4 10 8 21 13 31c44 80 119 80 135 80c33 0 52 -7 85 -15s48 -9 64 -9c34 0 52 9 85 25z" />
    <glyph glyph-name="Otilde" unicode="&#xd5;" 
d="M530 618c40 9 50 11 73 11c3 0 22 0 36 -6c23 -9 30 -26 37 -43c7 -15 13 -39 13 -76c0 -105 -47 -198 -65 -234c-9 -17 -18 -33 -28 -50c-8 -14 -18 -27 -28 -41c-8 -11 -15 -22 -25 -34c-11 -13 -24 -26 -37 -38c-32 -31 -70 -64 -140 -94c-25 -11 -51 -21 -76 -27
c-9 -2 -29 -5 -54 -5c-12 0 -40 -1 -71 20c-26 18 -37 31 -47 43c-6 7 -11 13 -16 19c-25 33 -49 87 -49 167c0 30 4 92 42 171c9 20 35 63 51 84c10 15 23 32 34 45c4 5 8 9 12 15c5 4 10 10 15 15c6 6 10 12 16 17c4 5 10 9 14 13s7 8 12 13c7 6 11 9 18 15c2 3 4 5 7 7
c17 15 34 29 51 41c8 7 16 13 25 19c8 6 16 11 24 16c16 11 105 76 179 76c3 0 23 0 39 -9c22 -14 71 -69 71 -89c0 -1 -1 -4 -2 -5c-4 -8 -11 -7 -16 -9c-9 -3 -19 -5 -30 -8c-44 -12 -62 -23 -85 -39zM564 575h-11c-22 -2 -45 -4 -90 -29c-59 -33 -107 -81 -127 -105
c-11 -13 -21 -26 -30 -40c-4 -7 -10 -15 -14 -22c-4 -8 -7 -21 -14 -21c-4 1 -8 5 -9 13c-2 10 0 20 0 30c-25 -39 -69 -101 -91 -193c-2 -10 -9 -39 -9 -69s7 -54 17 -64c14 -14 31 -13 36 -13c23 0 56 7 107 39c11 6 22 13 32 21c14 10 27 21 40 33c6 5 38 36 65 70
c9 12 19 24 28 37c8 13 18 25 25 36c14 24 79 129 79 222c0 4 1 19 -5 33c-6 13 -17 22 -29 22zM824 900c-3 -10 -5 -19 -16 -40c-33 -59 -98 -79 -140 -79c-13 0 -31 2 -60 9c-8 2 -16 5 -23 7s-13 3 -20 4c-22 6 -28 8 -50 8c-39 0 -53 -9 -73 -21c3 10 7 21 13 31
c44 80 119 80 135 80c33 0 52 -7 85 -15c32 -8 47 -9 64 -9c33 0 51 9 85 25z" />
    <glyph glyph-name="ydieresis" unicode="&#xff;" horiz-adv-x="417" 
d="M77 105l30 12c22 11 64 35 113 78c13 10 25 21 38 34c5 5 10 9 16 15c5 5 10 11 15 16c22 22 36 37 57 57l17 17c7 6 12 11 20 17c9 -3 10 -4 15 -8c9 -6 18 -17 18 -36c0 -28 -14 -47 -31 -75c-8 -13 -16 -27 -25 -40c-25 -40 -53 -77 -81 -116c-13 -18 -26 -37 -38 -55
c-4 -6 -7 -11 -11 -17c-7 -10 -10 -12 -10 -16c0 -2 1 -2 -3 -4c6 4 12 9 18 15c8 6 15 11 22 17c13 10 25 21 37 31c17 15 33 28 49 42c27 24 57 50 87 79l-4 -52l-20 -20c-5 -5 -10 -9 -15 -14c-9 -9 -18 -18 -27 -28c-12 -12 -23 -24 -36 -37c-8 -8 -17 -16 -24 -23
c-12 -13 -25 -27 -39 -42c-9 -10 -19 -20 -28 -30c-15 -15 -28 -31 -41 -47c-23 -26 -44 -53 -65 -80c-16 -21 -21 -29 -33 -29c-3 0 -7 0 -12 4c-11 7 -23 25 -23 50s8 35 21 59c8 15 16 31 24 46c17 29 35 59 54 88c14 23 31 46 43 70c-7 -4 -13 -7 -19 -11
c-9 -6 -18 -14 -27 -20c-13 -10 -26 -18 -39 -27c-25 -17 -39 -25 -51 -25c-9 0 -14 3 -26 17c-23 28 -41 56 -41 113c0 54 19 80 40 107c22 30 68 80 97 104c7 7 15 12 24 18c16 11 23 16 31 16c4 0 8 -2 9 -3c12 -6 4 -6 17 -19c11 -11 20 -16 20 -28s-6 -23 -23 -45
c-25 -33 -43 -51 -76 -80c-9 -8 -18 -17 -27 -24c-6 -5 -12 -9 -17 -13c-16 -34 -16 -37 -20 -58zM446 568c11 0 34 -7 34 -37c0 -6 -4 -43 -32 -72c-5 -5 -21 -21 -39 -21c-3 0 -10 0 -18 6c-10 7 -15 17 -15 38c0 12 4 23 5 27c2 5 26 61 65 59zM264 565c2 1 7 1 13 -1
c8 -2 25 -13 25 -32c0 -6 -5 -51 -42 -80c-4 -4 -20 -15 -33 -15c-5 0 -11 2 -12 3c-9 5 -21 14 -21 35c0 7 1 19 8 35c3 6 25 53 62 55z" />
    <glyph glyph-name="Ydieresis" unicode="&#x178;" horiz-adv-x="750" 
d="M560 -21l-27 -21c-17 -14 -62 -51 -102 -98c-27 -30 -64 -75 -98 -75c-19 0 -31 19 -33 25c-4 8 -4 14 -4 22c0 27 15 60 28 86c26 55 59 111 93 166c25 42 51 83 80 124c31 47 66 93 101 139c8 10 15 20 20 30c-4 -4 -8 -8 -12 -11c-8 -9 -17 -16 -26 -25
c-5 -5 -11 -11 -15 -16c-10 -9 -20 -18 -30 -28c-14 -12 -27 -25 -40 -37c-8 -7 -15 -14 -23 -21c-7 -6 -14 -14 -21 -21c-9 -8 -17 -15 -27 -24c-6 -6 -12 -12 -19 -18c-11 -10 -22 -19 -34 -29c-14 -12 -28 -25 -42 -36c-13 -11 -26 -21 -40 -31c-33 -25 -47 -35 -64 -35
c-9 0 -26 2 -47 17c-9 6 -23 23 -23 44c0 13 8 41 25 74c18 35 59 98 123 181c6 9 12 17 19 26c16 21 30 37 47 57c7 9 15 18 22 27c12 14 24 30 33 44c15 24 25 39 25 50c0 9 -9 11 -11 11c0 0 -7 -1 -12 -2c-10 -3 -22 -8 -44 -19c-10 -6 -20 -10 -29 -16
c-19 -11 -37 -25 -55 -36c-20 -13 -40 -25 -60 -37c-18 -10 -35 -20 -52 -29c-16 -9 -33 -17 -50 -26c-5 -3 -10 -5 -14 -7s-7 -2 -10 -4c-6 -2 -12 -7 -18 -7c-7 0 -10 8 -10 13c0 19 3 39 15 78c3 11 12 39 20 50c5 7 10 11 17 16c14 11 28 20 42 29c17 10 34 21 51 31
c20 12 41 23 61 34c18 9 136 74 226 74c38 0 62 -9 62 -35c0 -7 -1 -14 -2 -20c-7 -56 -40 -102 -80 -156c-19 -25 -37 -51 -56 -76c-17 -22 -33 -43 -50 -64c-24 -31 -85 -109 -85 -139c0 -8 7 -16 15 -15c16 0 34 13 50 23c11 7 22 14 32 22c6 4 10 8 17 13c3 3 7 6 10 9
c5 4 10 9 16 14c8 8 17 15 24 22c3 3 6 6 9 10c6 5 11 10 16 15c5 6 12 12 18 18c9 9 18 19 27 28c5 6 12 11 16 16c3 3 5 5 7 8c4 4 9 8 12 12c5 6 9 11 15 17c9 10 18 19 27 29c24 24 46 47 71 71c17 16 36 31 46 31c3 0 7 -2 10 -4c14 -11 34 -45 34 -60
c0 -3 0 -7 -2 -11c-3 -6 -16 -24 -28 -42c-19 -28 -39 -55 -58 -82c-30 -42 -58 -85 -86 -128c-20 -31 -41 -62 -59 -93c-8 -13 -58 -104 -58 -116c0 -2 1 -8 6 -8s12 5 12 5c28 16 53 36 80 52c9 5 18 9 27 14c10 4 19 9 28 12c9 4 17 6 26 8c7 1 14 4 20 4
c2 0 12 -1 12 -10c0 -1 -1 -6 -4 -10c-11 -17 -49 -52 -68 -68c-12 -11 -24 -20 -36 -30c-10 -9 -19 -17 -29 -25zM768 873c9 1 14 -1 18 -3c10 -5 21 -16 21 -37c-1 -32 -32 -102 -81 -102c-20 0 -35 18 -35 38c0 10 4 44 33 77c17 20 33 26 44 27zM472 872c4 1 13 2 23 -5
c18 -11 17 -35 17 -37c0 -1 -1 -10 -2 -16c-2 -6 -11 -37 -33 -61c-9 -10 -22 -22 -44 -22c-9 0 -37 4 -37 37c0 19 6 37 18 56c4 8 27 44 58 48z" />
    <glyph glyph-name="Acircumflex" unicode="&#xc2;" horiz-adv-x="708" 
d="M617 370l103 -2c-13 -19 -27 -37 -40 -55c-5 -8 -10 -16 -16 -24c-3 -5 -7 -11 -11 -16c-16 -22 -16 -29 -33 -29c-10 0 -19 -2 -29 -2c-11 -1 -23 -2 -34 -2c-9 -18 -57 -106 -57 -125c0 -7 4 -8 7 -8c9 0 27 10 34 14c32 17 52 26 109 74l21 -25
c-10 -9 -20 -19 -29 -28c-5 -5 -105 -106 -168 -135c-6 -3 -23 -11 -42 -11c-12 0 -19 2 -24 4c-14 5 -37 25 -37 59c0 15 3 29 4 33c3 13 18 54 41 95c7 15 16 29 25 44l-198 -3c-26 -27 -49 -52 -73 -79c-7 -9 -14 -16 -22 -25c-27 -31 -52 -59 -82 -91
c-12 -12 -40 -46 -77 -67c-19 -11 -31 -13 -40 -13c-16 0 -36 12 -36 31c0 27 36 69 56 90c6 7 11 14 19 22c10 10 21 18 33 27c10 8 20 14 31 18c7 3 10 4 24 6c11 11 16 17 27 28c3 2 6 5 9 8s5 6 8 9c4 4 9 8 12 12c10 10 18 19 26 28c-22 0 -44 0 -66 2
c-10 2 -28 4 -28 21c0 11 10 25 17 36c28 42 65 65 81 72c15 7 33 10 74 12c7 0 15 1 22 1c2 0 9 0 9 -5c0 -3 -3 -8 -12 -10c-23 -6 -43 -11 -65 -17l87 2c16 15 31 30 47 45c4 4 8 7 12 11l20 20c4 4 7 6 11 9c6 6 14 13 20 18c7 7 14 14 22 21c10 9 22 19 33 28l30 27
c19 15 39 32 60 48c6 4 12 9 18 14c11 8 21 16 31 24c36 26 76 52 114 74c4 2 19 12 33 12c6 0 14 -1 26 -14c9 -10 12 -18 12 -29c0 -19 -8 -36 -29 -73c-10 -18 -22 -37 -32 -56c-30 -52 -59 -103 -88 -155zM374 360l143 9c22 39 45 78 68 118c12 20 24 41 37 62
c12 20 25 40 38 60c-21 -16 -43 -32 -64 -49c-18 -15 -37 -32 -54 -47c-32 -27 -63 -55 -94 -84c-9 -8 -19 -16 -27 -24c-14 -13 -31 -30 -47 -45zM847 801c-34 -18 -62 -34 -75 -34c-4 0 -8 0 -13 7c-6 8 -19 36 -34 63c-5 9 -11 18 -15 22c-1 0 -3 2 -6 2
c-9 0 -16 -9 -32 -22c-20 -16 -39 -33 -58 -48c-19 -16 -30 -25 -39 -25c-8 0 -11 5 -11 7c0 1 1 3 2 4c3 5 30 27 35 31c23 19 48 42 73 64c10 9 18 17 27 25c15 13 36 31 54 31c3 0 8 0 16 -5c11 -8 12 -14 23 -31c6 -12 14 -23 20 -35c7 -11 12 -23 19 -34
c4 -8 9 -15 14 -22z" />
    <glyph glyph-name="Ecircumflex" unicode="&#xca;" 
d="M595 189v-23c0 -10 0 -41 -16 -73c-18 -34 -61 -74 -129 -107c-38 -18 -146 -62 -259 -62c-18 0 -59 1 -108 16c-22 7 -43 16 -51 23c-8 8 -16 25 -24 46c-12 31 -16 47 -16 63c0 19 5 35 29 71c20 30 57 78 134 119c89 47 163 61 251 77c-20 1 -51 0 -78 1
c-40 2 -81 6 -121 15c-24 5 -65 15 -87 35c-12 12 -24 35 -24 67c0 63 54 120 71 137c20 19 55 46 109 70c112 50 247 54 274 54c51 0 104 -9 118 -25c13 -14 8 -33 9 -50c0 -9 2 -19 2 -28c0 -4 0 -13 -5 -22c-11 -19 -49 -34 -61 -40c-23 -10 -46 -21 -70 -33
c-10 -6 -20 -11 -30 -18c-13 -10 -17 -16 -24 -16c-3 0 -10 3 -10 11c0 7 6 12 11 18c4 5 7 9 12 14c10 11 26 25 58 46c-24 0 -49 -2 -73 -5c-24 -2 -107 -8 -188 -43c-16 -7 -31 -15 -47 -25c-25 -17 -36 -30 -43 -42c-4 -6 -7 -14 -7 -20c0 -15 16 -19 28 -23
c27 -9 67 -16 130 -16c43 0 86 4 129 1c32 -2 57 -7 68 -12c4 -2 11 -5 11 -14c0 -5 -1 -9 -2 -11c-5 -13 -22 -39 -36 -52c-16 -15 -32 -15 -64 -21c-17 -3 -34 -7 -50 -10c-71 -16 -206 -51 -276 -128c-9 -10 -13 -15 -23 -32c-9 -14 -11 -19 -11 -26c0 -14 9 -18 22 -23
c18 -7 45 -14 88 -14c68 0 118 13 185 39c30 11 59 24 88 40c35 20 65 43 76 53c9 8 11 14 18 14c9 0 12 -10 12 -16zM628 801c-34 -18 -62 -34 -75 -34c-4 0 -7 0 -13 7c-6 8 -19 36 -34 63c-5 9 -11 18 -15 22c0 0 -3 2 -6 2c-9 0 -16 -9 -32 -22c-20 -16 -39 -33 -58 -48
c-19 -16 -30 -25 -39 -25c-8 0 -11 5 -11 7c0 1 1 3 2 4c3 5 31 27 35 31c23 19 48 42 73 64c10 9 18 17 27 25c15 13 36 31 54 31c3 0 8 0 16 -5c11 -8 12 -14 23 -31c6 -12 14 -23 20 -35c7 -11 12 -23 19 -34c4 -8 9 -15 14 -22z" />
    <glyph glyph-name="Aacute" unicode="&#xc1;" horiz-adv-x="708" 
d="M617 370l103 -2c-13 -19 -27 -37 -40 -55c-5 -8 -10 -16 -16 -24c-3 -5 -7 -11 -11 -16c-16 -22 -16 -29 -33 -29c-10 0 -19 -2 -29 -2c-11 -1 -23 -2 -34 -2c-9 -18 -57 -106 -57 -125c0 -7 4 -8 7 -8c9 0 27 10 34 14c32 17 52 26 109 74l21 -25
c-10 -9 -20 -19 -29 -28c-5 -5 -105 -106 -168 -135c-6 -3 -23 -11 -42 -11c-12 0 -19 2 -24 4c-14 5 -37 25 -37 59c0 15 3 29 4 33c3 13 18 54 41 95c7 15 16 29 25 44l-198 -3c-26 -27 -49 -52 -73 -79c-7 -9 -14 -16 -22 -25c-27 -31 -52 -59 -82 -91
c-12 -12 -40 -46 -77 -67c-19 -11 -31 -13 -40 -13c-16 0 -36 12 -36 31c0 27 36 69 56 90c6 7 11 14 19 22c10 10 21 18 33 27c10 8 20 14 31 18c7 3 10 4 24 6c11 11 16 17 27 28c3 2 6 5 9 8s5 6 8 9c4 4 9 8 12 12c10 10 18 19 26 28c-22 0 -44 0 -66 2
c-10 2 -28 4 -28 21c0 11 10 25 17 36c28 42 65 65 81 72c15 7 33 10 74 12c7 0 15 1 22 1c2 0 9 0 9 -5c0 -3 -3 -8 -12 -10c-23 -6 -43 -11 -65 -17l87 2c16 15 31 30 47 45c4 4 8 7 12 11l20 20c4 4 7 6 11 9c6 6 14 13 20 18c7 7 14 14 22 21c10 9 22 19 33 28l30 27
c19 15 39 32 60 48c6 4 12 9 18 14c11 8 21 16 31 24c36 26 76 52 114 74c4 2 19 12 33 12c6 0 14 -1 26 -14c9 -10 12 -18 12 -29c0 -19 -8 -36 -29 -73c-10 -18 -22 -37 -32 -56c-30 -52 -59 -103 -88 -155zM374 360l143 9c22 39 45 78 68 118c12 20 24 41 37 62
c12 20 25 40 38 60c-21 -16 -43 -32 -64 -49c-18 -15 -37 -32 -54 -47c-32 -27 -63 -55 -94 -84c-9 -8 -19 -16 -27 -24c-14 -13 -31 -30 -47 -45zM903 919c19 1 37 0 56 0c7 0 21 0 21 -19c0 -26 -27 -37 -47 -45c-6 -3 -12 -5 -17 -7c-22 -9 -43 -18 -64 -26
c-31 -11 -61 -23 -92 -34c-7 -3 -14 -5 -21 -8c-7 -2 -12 -4 -14 -4s-6 0 -6 4c0 2 2 5 4 8s50 52 79 79c4 4 10 9 14 13c10 9 31 31 44 36c8 4 21 3 43 3z" />
    <glyph glyph-name="Edieresis" unicode="&#xcb;" 
d="M595 189v-23c0 -10 0 -41 -16 -73c-18 -34 -61 -74 -129 -107c-38 -18 -146 -62 -259 -62c-18 0 -59 1 -108 16c-22 7 -43 16 -51 23c-8 8 -16 25 -24 46c-12 31 -16 47 -16 63c0 19 5 35 29 71c20 30 57 78 134 119c89 47 163 61 251 77c-20 1 -51 0 -78 1
c-40 2 -81 6 -121 15c-24 5 -65 15 -87 35c-12 12 -24 35 -24 67c0 63 54 120 71 137c20 19 55 46 109 70c112 50 247 54 274 54c51 0 104 -9 118 -25c13 -14 8 -33 9 -50c0 -9 2 -19 2 -28c0 -4 0 -13 -5 -22c-11 -19 -49 -34 -61 -40c-23 -10 -46 -21 -70 -33
c-10 -6 -20 -11 -30 -18c-13 -10 -17 -16 -24 -16c-3 0 -10 3 -10 11c0 7 6 12 11 18c4 5 7 9 12 14c10 11 26 25 58 46c-24 0 -49 -2 -73 -5c-24 -2 -107 -8 -188 -43c-16 -7 -31 -15 -47 -25c-25 -17 -36 -30 -43 -42c-4 -6 -7 -14 -7 -20c0 -15 16 -19 28 -23
c27 -9 67 -16 130 -16c43 0 86 4 129 1c32 -2 57 -7 68 -12c4 -2 11 -5 11 -14c0 -5 -1 -9 -2 -11c-5 -13 -22 -39 -36 -52c-16 -15 -32 -15 -64 -21c-17 -3 -34 -7 -50 -10c-71 -16 -206 -51 -276 -128c-9 -10 -13 -15 -23 -32c-9 -14 -11 -19 -11 -26c0 -14 9 -18 22 -23
c18 -7 45 -14 88 -14c68 0 118 13 185 39c30 11 59 24 88 40c35 20 65 43 76 53c9 8 11 14 18 14c9 0 12 -10 12 -16zM654 873c8 1 13 -1 17 -3c10 -5 21 -16 21 -37c0 -32 -31 -102 -80 -102c-21 0 -36 18 -36 38c0 10 4 44 33 77c17 20 34 26 45 27zM358 872
c3 1 12 2 23 -5c17 -11 16 -35 16 -37c0 -1 0 -10 -2 -16c-1 -6 -10 -37 -32 -61c-10 -10 -22 -22 -44 -22c-10 0 -37 4 -37 37c0 19 6 37 17 56c5 8 27 44 59 48z" />
    <glyph glyph-name="Egrave" unicode="&#xc8;" 
d="M595 189v-23c0 -10 0 -41 -16 -73c-18 -34 -61 -74 -129 -107c-38 -18 -146 -62 -259 -62c-18 0 -59 1 -108 16c-22 7 -43 16 -51 23c-8 8 -16 25 -24 46c-12 31 -16 47 -16 63c0 19 5 35 29 71c20 30 57 78 134 119c89 47 163 61 251 77c-20 1 -51 0 -78 1
c-40 2 -81 6 -121 15c-24 5 -65 15 -87 35c-12 12 -24 35 -24 67c0 63 54 120 71 137c20 19 55 46 109 70c112 50 247 54 274 54c51 0 104 -9 118 -25c13 -14 8 -33 9 -50c0 -9 2 -19 2 -28c0 -4 0 -13 -5 -22c-11 -19 -49 -34 -61 -40c-23 -10 -46 -21 -70 -33
c-10 -6 -20 -11 -30 -18c-13 -10 -17 -16 -24 -16c-3 0 -10 3 -10 11c0 7 6 12 11 18c4 5 7 9 12 14c10 11 26 25 58 46c-24 0 -49 -2 -73 -5c-24 -2 -107 -8 -188 -43c-16 -7 -31 -15 -47 -25c-25 -17 -36 -30 -43 -42c-4 -6 -7 -14 -7 -20c0 -15 16 -19 28 -23
c27 -9 67 -16 130 -16c43 0 86 4 129 1c32 -2 57 -7 68 -12c4 -2 11 -5 11 -14c0 -5 -1 -9 -2 -11c-5 -13 -22 -39 -36 -52c-16 -15 -32 -15 -64 -21c-17 -3 -34 -7 -50 -10c-71 -16 -206 -51 -276 -128c-9 -10 -13 -15 -23 -32c-9 -14 -11 -19 -11 -26c0 -14 9 -18 22 -23
c18 -7 45 -14 88 -14c68 0 118 13 185 39c30 11 59 24 88 40c35 20 65 43 76 53c9 8 11 14 18 14c9 0 12 -10 12 -16zM410 917c14 0 28 -1 42 0c11 0 19 1 29 -3c19 -6 35 -29 56 -56c8 -11 16 -21 23 -32c9 -11 16 -23 24 -34c7 -9 12 -13 12 -19c0 -2 -3 -4 -6 -4
c-1 0 -3 1 -5 1c-6 3 -12 7 -19 10c-17 7 -33 14 -49 21c-12 6 -24 12 -36 17c-14 7 -29 13 -43 20c-9 4 -17 9 -26 13c-8 4 -25 12 -31 17c-6 4 -16 16 -16 30c0 19 14 18 27 18c6 0 11 1 18 1z" />
    <glyph glyph-name="Iacute" unicode="&#xcd;" horiz-adv-x="458" 
d="M204 391l49 6c2 -2 10 -8 10 -15c-1 -9 -15 -14 -32 -26c-25 -18 -53 -46 -77 -45c-9 0 -14 2 -17 4c-7 4 -31 24 -40 33c-14 15 -20 23 -20 40c0 26 24 76 41 102c9 14 21 28 32 41c11 14 34 43 80 74c17 12 134 91 225 91c36 0 57 -17 69 -35c8 -11 18 -34 18 -67
c0 -66 -39 -182 -137 -344c-14 -23 -28 -45 -43 -68c-17 -27 -37 -53 -56 -80c1 0 5 -11 5 -17c0 -14 -28 -62 -38 -75c-2 -4 -10 -14 -21 -14c-8 0 -16 8 -24 11c-8 2 -15 0 -23 2c-8 3 -21 13 -21 31c0 21 11 34 35 70c10 14 21 30 31 45c18 26 35 53 53 80
c12 20 24 39 37 58c15 25 86 135 112 229c2 7 9 39 9 46s-3 13 -16 13c-12 0 -35 -7 -36 -7c-24 -8 -75 -31 -138 -91c-24 -23 -24 -22 -42 -45c-18 -25 -22 -36 -25 -47zM705 919c19 1 37 0 56 0c7 0 21 0 21 -19c0 -26 -27 -37 -47 -45c-6 -3 -12 -5 -17 -7
c-22 -9 -43 -18 -64 -26c-31 -11 -61 -23 -92 -34c-7 -3 -14 -5 -21 -8c-7 -2 -12 -4 -14 -4s-6 0 -6 4c0 2 2 5 4 8s50 52 79 79c4 4 10 9 14 13c10 9 31 31 44 36c8 4 21 3 43 3z" />
    <glyph glyph-name="Icircumflex" unicode="&#xce;" horiz-adv-x="458" 
d="M204 391l49 6c2 -2 10 -8 10 -15c-1 -9 -15 -14 -32 -26c-25 -18 -53 -46 -77 -45c-9 0 -14 2 -17 4c-7 4 -31 24 -40 33c-14 15 -20 23 -20 40c0 26 24 76 41 102c9 14 21 28 32 41c11 14 34 43 80 74c17 12 134 91 225 91c36 0 57 -17 69 -35c8 -11 18 -34 18 -67
c0 -66 -39 -182 -137 -344c-14 -23 -28 -45 -43 -68c-17 -27 -37 -53 -56 -80c1 0 5 -11 5 -17c0 -14 -28 -62 -38 -75c-2 -4 -10 -14 -21 -14c-8 0 -16 8 -24 11c-8 2 -15 0 -23 2c-8 3 -21 13 -21 31c0 21 11 34 35 70c10 14 21 30 31 45c18 26 35 53 53 80
c12 20 24 39 37 58c15 25 86 135 112 229c2 7 9 39 9 46s-3 13 -16 13c-12 0 -35 -7 -36 -7c-24 -8 -75 -31 -138 -91c-24 -23 -24 -22 -42 -45c-18 -25 -22 -36 -25 -47zM618 801c-34 -18 -63 -34 -75 -34c-4 0 -8 0 -13 7c-7 8 -19 36 -34 63c-6 9 -11 18 -15 22
c-1 0 -3 2 -7 2c-8 0 -15 -9 -32 -22c-19 -16 -39 -33 -58 -48c-18 -16 -29 -25 -39 -25c-7 0 -10 5 -10 7c0 1 0 3 1 4c4 5 31 27 36 31c23 19 47 42 73 64c10 9 18 17 27 25c15 13 36 31 54 31c3 0 8 0 15 -5c11 -8 13 -14 23 -31c7 -12 14 -23 21 -35
c6 -11 12 -23 18 -34c5 -8 10 -15 15 -22z" />
    <glyph glyph-name="Idieresis" unicode="&#xcf;" horiz-adv-x="458" 
d="M204 391l49 6c2 -2 10 -8 10 -15c-1 -9 -15 -14 -32 -26c-25 -18 -53 -46 -77 -45c-9 0 -14 2 -17 4c-7 4 -31 24 -40 33c-14 15 -20 23 -20 40c0 26 24 76 41 102c9 14 21 28 32 41c11 14 34 43 80 74c17 12 134 91 225 91c36 0 57 -17 69 -35c8 -11 18 -34 18 -67
c0 -66 -39 -182 -137 -344c-14 -23 -28 -45 -43 -68c-17 -27 -37 -53 -56 -80c1 0 5 -11 5 -17c0 -14 -28 -62 -38 -75c-2 -4 -10 -14 -21 -14c-8 0 -16 8 -24 11c-8 2 -15 0 -23 2c-8 3 -21 13 -21 31c0 21 11 34 35 70c10 14 21 30 31 45c18 26 35 53 53 80
c12 20 24 39 37 58c15 25 86 135 112 229c2 7 9 39 9 46s-3 13 -16 13c-12 0 -35 -7 -36 -7c-24 -8 -75 -31 -138 -91c-24 -23 -24 -22 -42 -45c-18 -25 -22 -36 -25 -47zM622 873c9 1 14 -1 18 -3c10 -5 21 -16 21 -37c0 -32 -32 -102 -80 -102c-21 0 -36 18 -36 38
c0 10 4 44 33 77c17 20 33 26 44 27zM326 872c4 1 13 2 24 -5c17 -11 16 -35 16 -37c0 -1 -1 -10 -2 -16c-2 -6 -11 -37 -32 -61c-10 -10 -22 -22 -45 -22c-9 0 -37 4 -37 37c0 19 6 37 18 56c4 8 27 44 58 48z" />
    <glyph glyph-name="Igrave" unicode="&#xcc;" horiz-adv-x="458" 
d="M204 391l49 6c2 -2 10 -8 10 -15c-1 -9 -15 -14 -32 -26c-25 -18 -53 -46 -77 -45c-9 0 -14 2 -17 4c-7 4 -31 24 -40 33c-14 15 -20 23 -20 40c0 26 24 76 41 102c9 14 21 28 32 41c11 14 34 43 80 74c17 12 134 91 225 91c36 0 57 -17 69 -35c8 -11 18 -34 18 -67
c0 -66 -39 -182 -137 -344c-14 -23 -28 -45 -43 -68c-17 -27 -37 -53 -56 -80c1 0 5 -11 5 -17c0 -14 -28 -62 -38 -75c-2 -4 -10 -14 -21 -14c-8 0 -16 8 -24 11c-8 2 -15 0 -23 2c-8 3 -21 13 -21 31c0 21 11 34 35 70c10 14 21 30 31 45c18 26 35 53 53 80
c12 20 24 39 37 58c15 25 86 135 112 229c2 7 9 39 9 46s-3 13 -16 13c-12 0 -35 -7 -36 -7c-24 -8 -75 -31 -138 -91c-24 -23 -24 -22 -42 -45c-18 -25 -22 -36 -25 -47zM399 917c15 0 29 -1 43 0c11 0 19 1 29 -3c19 -6 35 -29 55 -56c8 -11 16 -21 24 -32s16 -23 24 -34
c6 -9 12 -13 12 -19c0 -2 -3 -4 -7 -4c0 0 -3 1 -4 1c-6 3 -13 7 -19 10c-17 7 -33 14 -50 21c-11 6 -23 12 -35 17c-14 7 -29 13 -43 20c-9 4 -18 9 -26 13s-25 12 -32 17c-5 4 -16 16 -15 30c0 19 13 18 26 18c6 0 12 1 18 1z" />
    <glyph glyph-name="Oacute" unicode="&#xd3;" 
d="M530 618c40 9 50 11 73 11c3 0 22 0 36 -6c23 -9 30 -26 37 -43c7 -15 13 -39 13 -76c0 -105 -47 -198 -65 -234c-9 -17 -18 -33 -28 -50c-8 -14 -18 -27 -28 -41c-8 -11 -15 -22 -25 -34c-11 -13 -24 -26 -37 -38c-32 -31 -70 -64 -140 -94c-25 -11 -51 -21 -76 -27
c-9 -2 -29 -5 -54 -5c-12 0 -40 -1 -71 20c-26 18 -37 31 -47 43c-6 7 -11 13 -16 19c-25 33 -49 87 -49 167c0 30 4 92 42 171c9 20 35 63 51 84c10 15 23 32 34 45c4 5 8 9 12 15c5 4 10 10 15 15c6 6 10 12 16 17c4 5 10 9 14 13s7 8 12 13c7 6 11 9 18 15c2 3 4 5 7 7
c17 15 34 29 51 41c8 7 16 13 25 19c8 6 16 11 24 16c16 11 105 76 179 76c3 0 23 0 39 -9c22 -14 71 -69 71 -89c0 -1 -1 -4 -2 -5c-4 -8 -11 -7 -16 -9c-9 -3 -19 -5 -30 -8c-44 -12 -62 -23 -85 -39zM564 575h-11c-22 -2 -45 -4 -90 -29c-59 -33 -107 -81 -127 -105
c-11 -13 -21 -26 -30 -40c-4 -7 -10 -15 -14 -22c-4 -8 -7 -21 -14 -21c-4 1 -8 5 -9 13c-2 10 0 20 0 30c-25 -39 -69 -101 -91 -193c-2 -10 -9 -39 -9 -69s7 -54 17 -64c14 -14 31 -13 36 -13c23 0 56 7 107 39c11 6 22 13 32 21c14 10 27 21 40 33c6 5 38 36 65 70
c9 12 19 24 28 37c8 13 18 25 25 36c14 24 79 129 79 222c0 4 1 19 -5 33c-6 13 -17 22 -29 22zM798 919c19 1 37 0 57 0c7 0 20 0 20 -19c0 -26 -26 -37 -46 -45c-6 -3 -12 -5 -17 -7c-22 -9 -43 -18 -64 -26c-31 -11 -61 -23 -92 -34c-7 -3 -15 -5 -22 -8
c-6 -2 -11 -4 -13 -4s-6 0 -6 4c0 2 2 5 3 8c3 3 51 52 80 79c4 4 10 9 14 13c10 9 31 31 43 36c9 4 22 3 43 3z" />
    <glyph glyph-name="Ocircumflex" unicode="&#xd4;" 
d="M530 618c40 9 50 11 73 11c3 0 22 0 36 -6c23 -9 30 -26 37 -43c7 -15 13 -39 13 -76c0 -105 -47 -198 -65 -234c-9 -17 -18 -33 -28 -50c-8 -14 -18 -27 -28 -41c-8 -11 -15 -22 -25 -34c-11 -13 -24 -26 -37 -38c-32 -31 -70 -64 -140 -94c-25 -11 -51 -21 -76 -27
c-9 -2 -29 -5 -54 -5c-12 0 -40 -1 -71 20c-26 18 -37 31 -47 43c-6 7 -11 13 -16 19c-25 33 -49 87 -49 167c0 30 4 92 42 171c9 20 35 63 51 84c10 15 23 32 34 45c4 5 8 9 12 15c5 4 10 10 15 15c6 6 10 12 16 17c4 5 10 9 14 13s7 8 12 13c7 6 11 9 18 15c2 3 4 5 7 7
c17 15 34 29 51 41c8 7 16 13 25 19c8 6 16 11 24 16c16 11 105 76 179 76c3 0 23 0 39 -9c22 -14 71 -69 71 -89c0 -1 -1 -4 -2 -5c-4 -8 -11 -7 -16 -9c-9 -3 -19 -5 -30 -8c-44 -12 -62 -23 -85 -39zM564 575h-11c-22 -2 -45 -4 -90 -29c-59 -33 -107 -81 -127 -105
c-11 -13 -21 -26 -30 -40c-4 -7 -10 -15 -14 -22c-4 -8 -7 -21 -14 -21c-4 1 -8 5 -9 13c-2 10 0 20 0 30c-25 -39 -69 -101 -91 -193c-2 -10 -9 -39 -9 -69s7 -54 17 -64c14 -14 31 -13 36 -13c23 0 56 7 107 39c11 6 22 13 32 21c14 10 27 21 40 33c6 5 38 36 65 70
c9 12 19 24 28 37c8 13 18 25 25 36c14 24 79 129 79 222c0 4 1 19 -5 33c-6 13 -17 22 -29 22zM711 801c-34 -18 -62 -34 -75 -34c-3 0 -7 0 -12 7c-7 8 -19 36 -35 63c-5 9 -10 18 -14 22c-1 0 -4 2 -7 2c-8 0 -16 -9 -32 -22c-19 -16 -39 -33 -58 -48
c-19 -16 -30 -25 -39 -25c-8 0 -10 5 -10 7c0 1 0 3 1 4c4 5 31 27 36 31c22 19 47 42 73 64c10 9 18 17 27 25c15 13 35 31 53 31c3 0 9 0 16 -5c11 -8 13 -14 23 -31c7 -12 14 -23 21 -35c6 -11 12 -23 18 -34c5 -8 10 -15 14 -22z" />
    <glyph glyph-name="Ograve" unicode="&#xd2;" 
d="M530 618c40 9 50 11 73 11c3 0 22 0 36 -6c23 -9 30 -26 37 -43c7 -15 13 -39 13 -76c0 -105 -47 -198 -65 -234c-9 -17 -18 -33 -28 -50c-8 -14 -18 -27 -28 -41c-8 -11 -15 -22 -25 -34c-11 -13 -24 -26 -37 -38c-32 -31 -70 -64 -140 -94c-25 -11 -51 -21 -76 -27
c-9 -2 -29 -5 -54 -5c-12 0 -40 -1 -71 20c-26 18 -37 31 -47 43c-6 7 -11 13 -16 19c-25 33 -49 87 -49 167c0 30 4 92 42 171c9 20 35 63 51 84c10 15 23 32 34 45c4 5 8 9 12 15c5 4 10 10 15 15c6 6 10 12 16 17c4 5 10 9 14 13s7 8 12 13c7 6 11 9 18 15c2 3 4 5 7 7
c17 15 34 29 51 41c8 7 16 13 25 19c8 6 16 11 24 16c16 11 105 76 179 76c3 0 23 0 39 -9c22 -14 71 -69 71 -89c0 -1 -1 -4 -2 -5c-4 -8 -11 -7 -16 -9c-9 -3 -19 -5 -30 -8c-44 -12 -62 -23 -85 -39zM564 575h-11c-22 -2 -45 -4 -90 -29c-59 -33 -107 -81 -127 -105
c-11 -13 -21 -26 -30 -40c-4 -7 -10 -15 -14 -22c-4 -8 -7 -21 -14 -21c-4 1 -8 5 -9 13c-2 10 0 20 0 30c-25 -39 -69 -101 -91 -193c-2 -10 -9 -39 -9 -69s7 -54 17 -64c14 -14 31 -13 36 -13c23 0 56 7 107 39c11 6 22 13 32 21c14 10 27 21 40 33c6 5 38 36 65 70
c9 12 19 24 28 37c8 13 18 25 25 36c14 24 79 129 79 222c0 4 1 19 -5 33c-6 13 -17 22 -29 22zM493 917c14 0 29 -1 43 0c11 0 18 1 29 -3c18 -6 35 -29 55 -56c8 -11 16 -21 24 -32s16 -23 24 -34c6 -9 11 -13 11 -19c0 -2 -2 -4 -6 -4c0 0 -3 1 -4 1c-7 3 -13 7 -20 10
c-16 7 -32 14 -49 21c-12 6 -23 12 -35 17c-15 7 -29 13 -44 20c-8 4 -17 9 -26 13c-7 4 -25 12 -31 17c-5 4 -16 16 -16 30c0 19 14 18 27 18c6 0 12 1 18 1z" />
    <glyph glyph-name="Uacute" unicode="&#xda;" horiz-adv-x="854" 
d="M831 184l-2 -50c-63 -58 -119 -108 -183 -130c-6 -2 -27 -9 -46 -9c-13 0 -23 3 -27 4c-22 10 -43 36 -43 78c0 9 1 29 8 52c9 28 35 89 80 163c22 35 46 71 69 107c-13 -12 -26 -23 -39 -34c-17 -17 -34 -35 -52 -54l-19 -19c-16 -18 -33 -38 -49 -55
c-26 -30 -55 -60 -85 -88c-10 -9 -18 -18 -27 -26c-6 -6 -12 -11 -18 -16c-18 -16 -35 -31 -52 -45c-10 -8 -20 -18 -30 -26c-9 -6 -17 -12 -25 -16c-5 -3 -18 -11 -30 -11c-3 0 -6 0 -12 2c-24 6 -38 20 -45 28c-14 16 -26 35 -26 70c0 12 1 29 10 56c18 57 52 96 98 151
c31 37 59 71 95 113c13 16 28 34 42 50c10 12 27 33 45 61c3 4 4 6 4 7c0 0 -1 2 -3 2c-4 0 -18 -4 -30 -8c-59 -19 -103 -50 -163 -84c-25 -13 -50 -26 -76 -36c-24 -10 -55 -23 -79 -23c-15 0 -24 13 -24 28c0 5 0 11 4 23c4 14 20 56 51 98c5 7 12 14 19 21
c36 38 74 62 156 92c91 33 165 43 200 43c10 0 20 -1 30 -2c11 -1 22 -6 31 -24c7 -14 10 -22 10 -44c0 -27 -8 -46 -12 -57c-17 -48 -31 -64 -96 -145c-21 -26 -41 -52 -61 -79c-27 -37 -55 -74 -78 -111c-13 -20 -27 -41 -35 -63c-3 -6 -5 -13 -5 -15s1 -9 8 -9s14 4 19 6
c27 13 48 30 74 52c11 9 23 20 35 31c11 10 22 21 32 30c17 16 37 35 56 54c30 29 59 60 88 89c19 19 38 40 54 56c5 6 10 12 16 18s12 13 18 19c13 13 29 30 45 46c6 6 10 9 14 14c3 3 6 7 10 11c6 7 13 13 19 19c3 4 7 9 10 12c5 6 10 10 15 16c8 10 17 19 28 19
c5 0 17 -3 24 -18c1 -2 13 -29 13 -47c0 -20 -15 -40 -40 -79c-17 -26 -34 -53 -52 -80c-14 -20 -29 -40 -42 -61c-19 -29 -36 -58 -53 -86c-8 -14 -16 -27 -23 -40c-7 -12 -39 -67 -39 -114c0 -5 0 -11 2 -17c2 -9 11 -18 28 -18c40 0 99 46 103 49c9 7 19 14 28 21
c10 9 19 18 30 28zM934 919c19 1 37 0 56 0c7 0 21 0 21 -19c0 -26 -27 -37 -47 -45c-6 -3 -11 -5 -17 -7c-21 -9 -43 -18 -64 -26c-31 -11 -61 -23 -92 -34c-7 -3 -14 -5 -21 -8c-6 -2 -11 -4 -14 -4c-2 0 -6 0 -6 4c0 2 2 5 4 8s51 52 79 79c5 4 10 9 14 13
c11 9 32 31 44 36c8 4 22 3 43 3z" />
    <glyph glyph-name="Ucircumflex" unicode="&#xdb;" horiz-adv-x="854" 
d="M831 184l-2 -50c-63 -58 -119 -108 -183 -130c-6 -2 -27 -9 -46 -9c-13 0 -23 3 -27 4c-22 10 -43 36 -43 78c0 9 1 29 8 52c9 28 35 89 80 163c22 35 46 71 69 107c-13 -12 -26 -23 -39 -34c-17 -17 -34 -35 -52 -54l-19 -19c-16 -18 -33 -38 -49 -55
c-26 -30 -55 -60 -85 -88c-10 -9 -18 -18 -27 -26c-6 -6 -12 -11 -18 -16c-18 -16 -35 -31 -52 -45c-10 -8 -20 -18 -30 -26c-9 -6 -17 -12 -25 -16c-5 -3 -18 -11 -30 -11c-3 0 -6 0 -12 2c-24 6 -38 20 -45 28c-14 16 -26 35 -26 70c0 12 1 29 10 56c18 57 52 96 98 151
c31 37 59 71 95 113c13 16 28 34 42 50c10 12 27 33 45 61c3 4 4 6 4 7c0 0 -1 2 -3 2c-4 0 -18 -4 -30 -8c-59 -19 -103 -50 -163 -84c-25 -13 -50 -26 -76 -36c-24 -10 -55 -23 -79 -23c-15 0 -24 13 -24 28c0 5 0 11 4 23c4 14 20 56 51 98c5 7 12 14 19 21
c36 38 74 62 156 92c91 33 165 43 200 43c10 0 20 -1 30 -2c11 -1 22 -6 31 -24c7 -14 10 -22 10 -44c0 -27 -8 -46 -12 -57c-17 -48 -31 -64 -96 -145c-21 -26 -41 -52 -61 -79c-27 -37 -55 -74 -78 -111c-13 -20 -27 -41 -35 -63c-3 -6 -5 -13 -5 -15s1 -9 8 -9s14 4 19 6
c27 13 48 30 74 52c11 9 23 20 35 31c11 10 22 21 32 30c17 16 37 35 56 54c30 29 59 60 88 89c19 19 38 40 54 56c5 6 10 12 16 18s12 13 18 19c13 13 29 30 45 46c6 6 10 9 14 14c3 3 6 7 10 11c6 7 13 13 19 19c3 4 7 9 10 12c5 6 10 10 15 16c8 10 17 19 28 19
c5 0 17 -3 24 -18c1 -2 13 -29 13 -47c0 -20 -15 -40 -40 -79c-17 -26 -34 -53 -52 -80c-14 -20 -29 -40 -42 -61c-19 -29 -36 -58 -53 -86c-8 -14 -16 -27 -23 -40c-7 -12 -39 -67 -39 -114c0 -5 0 -11 2 -17c2 -9 11 -18 28 -18c40 0 99 46 103 49c9 7 19 14 28 21
c10 9 19 18 30 28zM857 801c-34 -18 -62 -34 -75 -34c-4 0 -7 0 -12 7c-7 8 -20 36 -35 63c-5 9 -11 18 -14 22c-1 0 -4 2 -7 2c-8 0 -16 -9 -32 -22c-19 -16 -39 -33 -58 -48c-19 -16 -30 -25 -39 -25c-8 0 -11 5 -11 7c0 1 1 3 2 4c3 5 31 27 36 31c22 19 47 42 73 64
c9 9 18 17 27 25c14 13 35 31 53 31c3 0 9 0 16 -5c11 -8 13 -14 23 -31c7 -12 14 -23 21 -35c6 -11 11 -23 18 -34c4 -8 9 -15 14 -22z" />
    <glyph glyph-name="Ugrave" unicode="&#xd9;" horiz-adv-x="854" 
d="M831 184l-2 -50c-63 -58 -119 -108 -183 -130c-6 -2 -27 -9 -46 -9c-13 0 -23 3 -27 4c-22 10 -43 36 -43 78c0 9 1 29 8 52c9 28 35 89 80 163c22 35 46 71 69 107c-13 -12 -26 -23 -39 -34c-17 -17 -34 -35 -52 -54l-19 -19c-16 -18 -33 -38 -49 -55
c-26 -30 -55 -60 -85 -88c-10 -9 -18 -18 -27 -26c-6 -6 -12 -11 -18 -16c-18 -16 -35 -31 -52 -45c-10 -8 -20 -18 -30 -26c-9 -6 -17 -12 -25 -16c-5 -3 -18 -11 -30 -11c-3 0 -6 0 -12 2c-24 6 -38 20 -45 28c-14 16 -26 35 -26 70c0 12 1 29 10 56c18 57 52 96 98 151
c31 37 59 71 95 113c13 16 28 34 42 50c10 12 27 33 45 61c3 4 4 6 4 7c0 0 -1 2 -3 2c-4 0 -18 -4 -30 -8c-59 -19 -103 -50 -163 -84c-25 -13 -50 -26 -76 -36c-24 -10 -55 -23 -79 -23c-15 0 -24 13 -24 28c0 5 0 11 4 23c4 14 20 56 51 98c5 7 12 14 19 21
c36 38 74 62 156 92c91 33 165 43 200 43c10 0 20 -1 30 -2c11 -1 22 -6 31 -24c7 -14 10 -22 10 -44c0 -27 -8 -46 -12 -57c-17 -48 -31 -64 -96 -145c-21 -26 -41 -52 -61 -79c-27 -37 -55 -74 -78 -111c-13 -20 -27 -41 -35 -63c-3 -6 -5 -13 -5 -15s1 -9 8 -9s14 4 19 6
c27 13 48 30 74 52c11 9 23 20 35 31c11 10 22 21 32 30c17 16 37 35 56 54c30 29 59 60 88 89c19 19 38 40 54 56c5 6 10 12 16 18s12 13 18 19c13 13 29 30 45 46c6 6 10 9 14 14c3 3 6 7 10 11c6 7 13 13 19 19c3 4 7 9 10 12c5 6 10 10 15 16c8 10 17 19 28 19
c5 0 17 -3 24 -18c1 -2 13 -29 13 -47c0 -20 -15 -40 -40 -79c-17 -26 -34 -53 -52 -80c-14 -20 -29 -40 -42 -61c-19 -29 -36 -58 -53 -86c-8 -14 -16 -27 -23 -40c-7 -12 -39 -67 -39 -114c0 -5 0 -11 2 -17c2 -9 11 -18 28 -18c40 0 99 46 103 49c9 7 19 14 28 21
c10 9 19 18 30 28zM628 917c15 0 29 -1 43 0c11 0 19 1 29 -3c19 -6 35 -29 56 -56c7 -11 15 -21 23 -32s16 -23 24 -34c7 -9 12 -13 12 -19c0 -2 -3 -4 -6 -4c-1 0 -3 1 -5 1c-6 3 -13 7 -19 10c-17 7 -33 14 -49 21c-12 6 -24 12 -36 17c-14 7 -29 13 -43 20
c-9 4 -17 9 -26 13c-8 4 -25 12 -32 17c-5 4 -16 16 -15 30c0 19 13 18 27 18c5 0 11 1 17 1z" />
    </font>
</defs>
</svg>
